<svg width="133" height="133" viewBox="0 0 133 133" fill="none" xmlns="http://www.w3.org/2000/svg">
<path fill-rule="evenodd" clip-rule="evenodd" d="M66.2314 5C32.5345 5 4.99999 32.5345 4.99999 66.2314C4.99999 100.466 32.5345 128 66.2314 128C100.466 128 128 100.466 128 66.2314C128 32.5345 100.466 5 66.2314 5Z" stroke="#DBECF8" stroke-opacity="0.5" stroke-width="10"/>
<path d="M102.561 16.7018C92.3801 9.34758 79.8347 4.99999 66.2314 5C32.5344 5 4.99996 32.5345 4.99996 66.2314C4.99997 100.466 32.5345 128 66.2314 128" stroke="#1B2CC1" stroke-width="10" stroke-linecap="round" stroke-linejoin="round"/>
<mask id="mask0" mask-type="alpha" maskUnits="userSpaceOnUse" x="2" y="2" width="104" height="129">
<path fill-rule="evenodd" clip-rule="evenodd" d="M102.561 16.7018C92.3801 9.34758 79.8347 4.99999 66.2314 5C32.5344 5 4.99996 32.5345 4.99996 66.2314C4.99997 100.466 32.5345 128 66.2314 128" fill="white"/>
<path d="M102.561 16.7018C92.3801 9.34758 79.8347 5 66.2314 5C32.5344 5 4.99996 32.5345 4.99996 66.2314C4.99997 100.466 32.5345 128 66.2314 128" stroke="white" stroke-width="5.04615" stroke-linecap="round" stroke-linejoin="round"/>
</mask>
<g mask="url(#mask0)">
</g>
<circle cx="103" cy="15" r="12.25" fill="#1B2CC1" stroke="white" stroke-width="1.5"/>
<g clip-path="url(#clip0)">
<path d="M107.854 11.4746C107.658 11.2793 107.342 11.2793 107.146 11.4746L101.156 17.465L98.8536 15.1624C98.6583 14.9671 98.3417 14.9671 98.1465 15.1624C97.9512 15.3576 97.9512 15.6742 98.1465 15.8695L100.803 18.5256C100.998 18.7208 101.315 18.7207 101.51 18.5256L107.854 12.1817C108.049 11.9864 108.049 11.6699 107.854 11.4746Z" fill="white"/>
</g>
<path d="M42.7665 60.648H37.7105L36.7025 63H33.6945L39.0225 51.608H41.3905L46.7345 63H43.7745L42.7665 60.648ZM41.7905 58.392L40.2385 54.792L38.6865 58.392H41.7905ZM51.2554 63.128C49.8794 63.128 48.802 62.7547 48.0234 62.008C47.2447 61.2613 46.8554 60.2427 46.8554 58.952C46.8554 58.0987 47.042 57.3467 47.4154 56.696C47.7994 56.0453 48.3327 55.544 49.0154 55.192C49.698 54.8293 50.4874 54.648 51.3834 54.648C51.9807 54.648 52.5674 54.7387 53.1434 54.92C53.7194 55.0907 54.178 55.3253 54.5194 55.624L53.7834 57.624C53.4954 57.3893 53.1594 57.2027 52.7754 57.064C52.3914 56.9253 52.0234 56.856 51.6714 56.856C51.074 56.856 50.6154 57.0267 50.2954 57.368C49.9754 57.7093 49.8154 58.216 49.8154 58.888C49.8154 59.5707 49.9754 60.088 50.2954 60.44C50.6154 60.7813 51.0794 60.952 51.6874 60.952C52.0394 60.952 52.402 60.8827 52.7754 60.744C53.1594 60.6053 53.4954 60.4187 53.7834 60.184L54.5194 62.152C54.1674 62.4613 53.698 62.7013 53.1114 62.872C52.5354 63.0427 51.9167 63.128 51.2554 63.128ZM60.3515 60.792C60.5435 60.792 60.7995 60.76 61.1195 60.696V62.888C60.7248 63.048 60.2235 63.128 59.6155 63.128C58.5168 63.128 57.6795 62.8187 57.1035 62.2C56.5382 61.5813 56.2555 60.7227 56.2555 59.624V57H54.7355V54.872H56.2555V53.032L59.1515 52.104V54.872H61.1035V57H59.1515V59.624C59.1515 60.008 59.2635 60.3013 59.4875 60.504C59.7222 60.696 60.0102 60.792 60.3515 60.792ZM62.2078 54.872H65.1038V63H62.2078V54.872ZM65.1518 50.888V53.496H62.1278V50.888H65.1518ZM75.2328 54.888L71.6168 63H69.2328L65.6647 54.888H68.6728L70.4968 59.56L72.3848 54.888H75.2328ZM75.7703 54.872H78.6663V63H75.7703V54.872ZM78.7143 50.888V53.496H75.6903V50.888H78.7143ZM85.1953 60.792C85.3873 60.792 85.6433 60.76 85.9633 60.696V62.888C85.5686 63.048 85.0673 63.128 84.4593 63.128C83.3606 63.128 82.5233 62.8187 81.9473 62.2C81.3819 61.5813 81.0993 60.7227 81.0993 59.624V57H79.5793V54.872H81.0993V53.032L83.9953 52.104V54.872H85.9473V57H83.9953V59.624C83.9953 60.008 84.1073 60.3013 84.3313 60.504C84.5659 60.696 84.8539 60.792 85.1953 60.792ZM95.6234 54.872L91.8954 63.288C91.4047 64.3867 90.786 65.1867 90.0394 65.688C89.3034 66.2 88.3914 66.52 87.3034 66.648L86.6314 64.44C87.378 64.2907 87.938 64.0987 88.3114 63.864C88.6847 63.6293 88.9674 63.304 89.1594 62.888L89.3674 62.44L86.0554 54.872H89.0634L90.8874 59.56L92.7754 54.872H95.6234ZM28.8603 80.648H23.8043L22.7963 83H19.7882L25.1163 71.608H27.4843L32.8283 83H29.8683L28.8603 80.648ZM27.8843 78.392L26.3323 74.792L24.7803 78.392H27.8843ZM36.4253 83.128C34.8039 83.128 33.5239 82.8027 32.5853 82.152L33.3213 80.184C33.7586 80.4827 34.2546 80.7173 34.8093 80.888C35.3639 81.048 35.9079 81.128 36.4413 81.128C36.7719 81.128 37.0279 81.08 37.2093 80.984C37.3906 80.888 37.4813 80.7547 37.4813 80.584C37.4813 80.4347 37.4119 80.3173 37.2733 80.232C37.1453 80.136 36.8946 80.0507 36.5213 79.976L35.2093 79.672C34.3773 79.5013 33.7746 79.2347 33.4013 78.872C33.0386 78.4987 32.8573 77.9867 32.8573 77.336C32.8573 76.8133 33.0119 76.3493 33.3213 75.944C33.6306 75.5387 34.0573 75.224 34.6013 75C35.1559 74.7653 35.7906 74.648 36.5052 74.648C37.0919 74.648 37.6679 74.7333 38.2333 74.904C38.7986 75.0747 39.3266 75.3147 39.8173 75.624L39.0493 77.544C38.6226 77.2667 38.1853 77.0533 37.7373 76.904C37.2893 76.7547 36.8679 76.68 36.4733 76.68C36.1533 76.68 35.9026 76.7333 35.7213 76.84C35.5399 76.936 35.4493 77.08 35.4493 77.272C35.4493 77.3893 35.5026 77.4853 35.6093 77.56C35.7159 77.624 35.9186 77.6933 36.2173 77.768L37.5773 78.072C38.4413 78.2747 39.0599 78.5733 39.4333 78.968C39.8173 79.352 40.0093 79.88 40.0093 80.552C40.0093 81.352 39.6893 81.9813 39.0493 82.44C38.4199 82.8987 37.5453 83.128 36.4253 83.128ZM44.5346 83.128C42.9133 83.128 41.6333 82.8027 40.6946 82.152L41.4306 80.184C41.868 80.4827 42.364 80.7173 42.9186 80.888C43.4733 81.048 44.0173 81.128 44.5506 81.128C44.8813 81.128 45.1373 81.08 45.3186 80.984C45.5 80.888 45.5906 80.7547 45.5906 80.584C45.5906 80.4347 45.5213 80.3173 45.3826 80.232C45.2546 80.136 45.004 80.0507 44.6306 79.976L43.3186 79.672C42.4866 79.5013 41.884 79.2347 41.5106 78.872C41.148 78.4987 40.9666 77.9867 40.9666 77.336C40.9666 76.8133 41.1213 76.3493 41.4306 75.944C41.74 75.5387 42.1666 75.224 42.7106 75C43.2653 74.7653 43.9 74.648 44.6146 74.648C45.2013 74.648 45.7773 74.7333 46.3426 74.904C46.908 75.0747 47.436 75.3147 47.9266 75.624L47.1586 77.544C46.732 77.2667 46.2946 77.0533 45.8466 76.904C45.3986 76.7547 44.9773 76.68 44.5826 76.68C44.2626 76.68 44.012 76.7333 43.8306 76.84C43.6493 76.936 43.5586 77.08 43.5586 77.272C43.5586 77.3893 43.612 77.4853 43.7186 77.56C43.8253 77.624 44.028 77.6933 44.3266 77.768L45.6866 78.072C46.5506 78.2747 47.1693 78.5733 47.5426 78.968C47.9266 79.352 48.1186 79.88 48.1186 80.552C48.1186 81.352 47.7986 81.9813 47.1586 82.44C46.5293 82.8987 45.6546 83.128 44.5346 83.128ZM56.868 79.224H51.764C51.8173 79.8533 51.9987 80.3067 52.308 80.584C52.6173 80.8613 53.0707 81 53.668 81C54.0733 81 54.4787 80.936 54.884 80.808C55.2893 80.6693 55.6573 80.4827 55.988 80.248L56.724 82.168C56.3187 82.4667 55.828 82.7013 55.252 82.872C54.676 83.0427 54.1 83.128 53.524 83.128C52.596 83.128 51.7907 82.9573 51.108 82.616C50.4253 82.2747 49.9027 81.7893 49.54 81.16C49.1773 80.52 48.996 79.768 48.996 78.904C48.996 78.0827 49.1667 77.352 49.508 76.712C49.86 76.0613 50.34 75.5547 50.948 75.192C51.5667 74.8293 52.2707 74.648 53.06 74.648C53.828 74.648 54.5 74.8187 55.076 75.16C55.652 75.5013 56.0947 75.992 56.404 76.632C56.7133 77.2613 56.868 77.9973 56.868 78.84V79.224ZM53.14 76.632C52.4253 76.632 51.9773 77.048 51.796 77.88H54.388C54.2813 77.048 53.8653 76.632 53.14 76.632ZM61.4878 83.128C59.8664 83.128 58.5864 82.8027 57.6478 82.152L58.3838 80.184C58.8211 80.4827 59.3171 80.7173 59.8718 80.888C60.4264 81.048 60.9704 81.128 61.5038 81.128C61.8344 81.128 62.0904 81.08 62.2718 80.984C62.4531 80.888 62.5438 80.7547 62.5438 80.584C62.5438 80.4347 62.4744 80.3173 62.3358 80.232C62.2078 80.136 61.9571 80.0507 61.5838 79.976L60.2718 79.672C59.4398 79.5013 58.8371 79.2347 58.4638 78.872C58.1011 78.4987 57.9198 77.9867 57.9198 77.336C57.9198 76.8133 58.0744 76.3493 58.3838 75.944C58.6931 75.5387 59.1198 75.224 59.6638 75C60.2184 74.7653 60.8531 74.648 61.5677 74.648C62.1544 74.648 62.7304 74.7333 63.2958 74.904C63.8611 75.0747 64.3891 75.3147 64.8798 75.624L64.1118 77.544C63.6851 77.2667 63.2478 77.0533 62.7998 76.904C62.3518 76.7547 61.9304 76.68 61.5358 76.68C61.2158 76.68 60.9651 76.7333 60.7838 76.84C60.6024 76.936 60.5118 77.08 60.5118 77.272C60.5118 77.3893 60.5651 77.4853 60.6718 77.56C60.7784 77.624 60.9811 77.6933 61.2798 77.768L62.6398 78.072C63.5038 78.2747 64.1224 78.5733 64.4958 78.968C64.8798 79.352 65.0718 79.88 65.0718 80.552C65.0718 81.352 64.7518 81.9813 64.1118 82.44C63.4824 82.8987 62.6078 83.128 61.4878 83.128ZM69.5971 83.128C67.9758 83.128 66.6958 82.8027 65.7571 82.152L66.4931 80.184C66.9305 80.4827 67.4265 80.7173 67.9811 80.888C68.5358 81.048 69.0798 81.128 69.6131 81.128C69.9438 81.128 70.1998 81.08 70.3811 80.984C70.5625 80.888 70.6531 80.7547 70.6531 80.584C70.6531 80.4347 70.5838 80.3173 70.4451 80.232C70.3171 80.136 70.0665 80.0507 69.6931 79.976L68.3811 79.672C67.5491 79.5013 66.9465 79.2347 66.5731 78.872C66.2105 78.4987 66.0291 77.9867 66.0291 77.336C66.0291 76.8133 66.1838 76.3493 66.4931 75.944C66.8025 75.5387 67.2291 75.224 67.7731 75C68.3278 74.7653 68.9625 74.648 69.6771 74.648C70.2638 74.648 70.8398 74.7333 71.4051 74.904C71.9705 75.0747 72.4985 75.3147 72.9891 75.624L72.2211 77.544C71.7945 77.2667 71.3571 77.0533 70.9091 76.904C70.4611 76.7547 70.0398 76.68 69.6451 76.68C69.3251 76.68 69.0745 76.7333 68.8931 76.84C68.7118 76.936 68.6211 77.08 68.6211 77.272C68.6211 77.3893 68.6745 77.4853 68.7811 77.56C68.8878 77.624 69.0905 77.6933 69.3891 77.768L70.7491 78.072C71.6131 78.2747 72.2318 78.5733 72.6051 78.968C72.9891 79.352 73.1811 79.88 73.1811 80.552C73.1811 81.352 72.8611 81.9813 72.2211 82.44C71.5918 82.8987 70.7171 83.128 69.5971 83.128ZM84.7785 74.648C85.7172 74.648 86.4105 74.936 86.8585 75.512C87.3172 76.088 87.5465 76.968 87.5465 78.152V83H84.6505V78.232C84.6505 77.752 84.5758 77.4053 84.4265 77.192C84.2878 76.9787 84.0478 76.872 83.7065 76.872C83.3012 76.872 82.9865 77.0213 82.7625 77.32C82.5385 77.6187 82.4265 78.04 82.4265 78.584V83H79.5305V78.232C79.5305 77.752 79.4558 77.4053 79.3065 77.192C79.1572 76.9787 78.9172 76.872 78.5865 76.872C78.1812 76.872 77.8665 77.0213 77.6425 77.32C77.4292 77.6187 77.3225 78.04 77.3225 78.584V83H74.4265V77.208C74.4265 76.3333 74.3838 75.5547 74.2985 74.872H77.0185L77.1625 76.008C77.4078 75.5707 77.7492 75.2347 78.1865 75C78.6345 74.7653 79.1465 74.648 79.7225 74.648C80.8852 74.648 81.6745 75.1387 82.0905 76.12C82.3785 75.672 82.7572 75.3147 83.2265 75.048C83.7065 74.7813 84.2238 74.648 84.7785 74.648ZM96.7274 79.224H91.6234C91.6767 79.8533 91.858 80.3067 92.1674 80.584C92.4767 80.8613 92.93 81 93.5274 81C93.9327 81 94.338 80.936 94.7434 80.808C95.1487 80.6693 95.5167 80.4827 95.8474 80.248L96.5834 82.168C96.178 82.4667 95.6874 82.7013 95.1114 82.872C94.5354 83.0427 93.9594 83.128 93.3834 83.128C92.4554 83.128 91.65 82.9573 90.9674 82.616C90.2847 82.2747 89.762 81.7893 89.3994 81.16C89.0367 80.52 88.8554 79.768 88.8554 78.904C88.8554 78.0827 89.026 77.352 89.3674 76.712C89.7194 76.0613 90.1994 75.5547 90.8074 75.192C91.426 74.8293 92.13 74.648 92.9194 74.648C93.6874 74.648 94.3594 74.8187 94.9354 75.16C95.5114 75.5013 95.954 75.992 96.2634 76.632C96.5727 77.2613 96.7274 77.9973 96.7274 78.84V79.224ZM92.9994 76.632C92.2847 76.632 91.8367 77.048 91.6554 77.88H94.2474C94.1407 77.048 93.7247 76.632 92.9994 76.632ZM103.507 74.648C104.467 74.648 105.182 74.9413 105.651 75.528C106.131 76.104 106.371 76.9787 106.371 78.152V83H103.475V78.28C103.475 77.7787 103.39 77.4213 103.219 77.208C103.048 76.984 102.782 76.872 102.419 76.872C101.982 76.872 101.63 77.0213 101.363 77.32C101.096 77.608 100.963 77.992 100.963 78.472V83H98.0671V77.208C98.0671 76.3333 98.0245 75.5547 97.9391 74.872H100.659L100.803 76.072C101.112 75.6133 101.496 75.2613 101.955 75.016C102.414 74.7707 102.931 74.648 103.507 74.648ZM112.852 80.792C113.044 80.792 113.3 80.76 113.62 80.696V82.888C113.225 83.048 112.724 83.128 112.116 83.128C111.017 83.128 110.18 82.8187 109.604 82.2C109.038 81.5813 108.756 80.7227 108.756 79.624V77H107.236V74.872H108.756V73.032L111.652 72.104V74.872H113.604V77H111.652V79.624C111.652 80.008 111.764 80.3013 111.988 80.504C112.222 80.696 112.51 80.792 112.852 80.792Z" fill="black"/>
<defs>
<clipPath id="clip0">
<rect x="98" y="10" width="10" height="10" fill="white"/>
</clipPath>
</defs>
</svg>
