<svg width="23" height="22" viewBox="0 0 23 22" fill="none" xmlns="http://www.w3.org/2000/svg">
<path d="M18.9574 5.58398H4.18528C3.07277 5.58398 2.1709 6.48585 2.1709 7.59837V16.9988C2.1709 18.1113 3.07277 19.0132 4.18528 19.0132H18.9574C20.0699 19.0132 20.9718 18.1113 20.9718 16.9988V7.59837C20.9718 6.48585 20.0699 5.58398 18.9574 5.58398Z" stroke="#C4C4C4" stroke-width="1.34292" stroke-linejoin="round"/>
<path d="M14.2572 10.2835V11.2907C14.2572 11.3798 14.2218 11.4652 14.1589 11.5281C14.0959 11.5911 14.0105 11.6265 13.9215 11.6265H9.22124C9.1322 11.6265 9.04681 11.5911 8.98384 11.5281C8.92088 11.4652 8.88551 11.3798 8.88551 11.2907V10.2835M6.87113 5.58331V4.24038C6.87113 3.88422 7.01261 3.54264 7.26446 3.29079C7.51631 3.03895 7.85788 2.89746 8.21405 2.89746H14.9287C15.2848 2.89746 15.6264 3.03895 15.8783 3.29079C16.1301 3.54264 16.2716 3.88422 16.2716 4.24038V5.58331H6.87113ZM20.9718 10.2835H2.1709H20.9718Z" stroke="#C4C4C4" stroke-width="1.34292" stroke-linecap="round" stroke-linejoin="round"/>
</svg>
