<svg width="30" height="30" viewBox="0 0 30 30" fill="none" xmlns="http://www.w3.org/2000/svg">
<path d="M27.6005 7.75H23.3385L21.3385 2.75H8.6615L6.6615 7.75H6V5.25H3V7.75H2.3995C1.076 7.75 0 8.826 0 10.1495V24.8335C0 26.166 1.084 27.25 2.4165 27.25H27.5835C28.916 27.25 30 26.166 30 24.8335V10.1495C30 8.826 28.924 7.75 27.6005 7.75ZM4 6.25H5V7.75H4V6.25ZM29 24.8335C29 25.615 28.3645 26.25 27.5835 26.25H2.4165C1.6355 26.25 1 25.6145 1 24.8335V10.1495C1 9.378 1.628 8.75 2.3995 8.75H3H6H7.3385L9.3385 3.75H20.6615L22.6615 8.75H27.6005C28.372 8.75 29 9.378 29 10.1495V24.8335Z" fill="#828282"/>
<g clip-path="url(#clip0)">
<path d="M11.4357 11.9745C13.6503 9.97132 16.9645 9.94069 19.2097 11.7693L17.4301 11.8367C17.2004 11.8459 17.0227 12.0358 17.0319 12.2655C17.0411 12.4891 17.2249 12.6637 17.4454 12.6637C17.4515 12.6637 17.4546 12.6637 17.4607 12.6637L20.1929 12.5626C20.4165 12.5535 20.5911 12.3727 20.5911 12.1491V12.1185C20.5911 12.1124 20.5911 12.1093 20.5911 12.1032V12.1001L20.4901 9.39854C20.4809 9.16881 20.2879 8.99115 20.0612 9.00034C19.8315 9.00953 19.6539 9.19944 19.663 9.42917L19.7274 11.123C18.6155 10.2133 17.2463 9.68646 15.7822 9.61295C13.9689 9.52106 12.226 10.1429 10.8813 11.3619C9.03126 13.0374 8.24712 15.5859 8.83523 18.0118C8.88117 18.2017 9.04964 18.3273 9.23648 18.3273C9.27018 18.3273 9.30081 18.3242 9.3345 18.315C9.55504 18.2599 9.69288 18.0363 9.63774 17.8157C9.12315 15.6839 9.80927 13.4448 11.4357 11.9745Z" fill="#828282"/>
<path d="M22.1652 14.9886C22.1101 14.768 21.8865 14.6302 21.666 14.6853C21.4454 14.7404 21.3076 14.9641 21.3627 15.1846C21.8804 17.3165 21.1912 19.5555 19.5647 21.0258C18.4222 22.058 16.9887 22.5665 15.5614 22.5665C14.1983 22.5665 12.8383 22.104 11.7418 21.1912L13.5428 21.0289C13.7695 21.0074 13.9379 20.8083 13.9165 20.5786C13.8951 20.3489 13.696 20.1835 13.4662 20.2049L10.7432 20.4499C10.5165 20.4714 10.3481 20.6705 10.3695 20.9002L10.6146 23.6232C10.6329 23.8377 10.8137 24 11.025 24C11.0373 24 11.0495 24 11.0618 23.9969C11.2884 23.9755 11.4569 23.7764 11.4355 23.5467L11.2884 21.8896C12.4003 22.7901 13.7634 23.3139 15.2183 23.3874C15.3347 23.3935 15.4511 23.3966 15.5644 23.3966C17.2521 23.3966 18.8572 22.7778 20.1191 21.6384C21.9692 19.9629 22.7533 17.4175 22.1652 14.9886Z" fill="#828282"/>
</g>
<defs>
<clipPath id="clip0">
<rect x="8" y="9" width="15" height="15" fill="white"/>
</clipPath>
</defs>
</svg>
