<svg width="313" height="183" viewBox="0 0 313 183" fill="none" xmlns="http://www.w3.org/2000/svg">
<g filter="url(#filter0_d)">
<rect x="19" y="19" width="275" height="144.588" rx="18.9003" fill="white"/>
</g>
<path d="M46.9726 69.6096C45.3849 69.6096 43.9939 69.2694 42.7994 68.589C41.62 67.9086 40.7128 66.9485 40.0777 65.7086C39.4427 64.4536 39.1251 62.987 39.1251 61.3086C39.1251 59.6454 39.4427 58.1938 40.0777 56.954C40.7128 55.699 41.62 54.7389 42.7994 54.0736C43.9939 53.3931 45.3849 53.0529 46.9726 53.0529C48.0612 53.0529 49.0818 53.2268 50.0344 53.5746C51.0021 53.9072 51.8035 54.376 52.4385 54.9808L51.486 57.1127C50.7602 56.523 50.0344 56.0997 49.3086 55.8426C48.598 55.5705 47.8344 55.4344 47.0179 55.4344C45.4605 55.4344 44.2509 55.9409 43.3891 56.954C42.5423 57.967 42.1189 59.4186 42.1189 61.3086C42.1189 63.2138 42.5423 64.6804 43.3891 65.7086C44.2358 66.7217 45.4454 67.2282 47.0179 67.2282C47.8344 67.2282 48.598 67.0997 49.3086 66.8426C50.0344 66.5705 50.7602 66.1395 51.486 65.5498L52.4385 67.6818C51.8035 68.2866 51.0021 68.7629 50.0344 69.1107C49.0818 69.4433 48.0612 69.6096 46.9726 69.6096ZM59.0341 69.587C57.8698 69.587 56.8417 69.345 55.9496 68.8612C55.0726 68.3773 54.3922 67.6894 53.9083 66.7973C53.4396 65.8901 53.2052 64.8316 53.2052 63.622C53.2052 62.4124 53.4396 61.3615 53.9083 60.4694C54.3922 59.5622 55.0726 58.8667 55.9496 58.3828C56.8417 57.899 57.8698 57.6571 59.0341 57.6571C60.1832 57.6571 61.1963 57.899 62.0733 58.3828C62.9503 58.8667 63.6231 59.5622 64.0918 60.4694C64.5757 61.3615 64.8176 62.4124 64.8176 63.622C64.8176 64.8316 64.5757 65.8901 64.0918 66.7973C63.6231 67.6894 62.9503 68.3773 62.0733 68.8612C61.1963 69.345 60.1832 69.587 59.0341 69.587ZM59.0114 67.3643C59.9791 67.3643 60.7125 67.0543 61.2114 66.4344C61.7255 65.7993 61.9826 64.8619 61.9826 63.622C61.9826 62.3973 61.7255 61.4674 61.2114 60.8323C60.6973 60.1821 59.9716 59.8571 59.0341 59.8571C58.0815 59.8571 57.3482 60.1821 56.8341 60.8323C56.32 61.4674 56.063 62.3973 56.063 63.622C56.063 64.8619 56.3125 65.7993 56.8114 66.4344C57.3255 67.0543 58.0588 67.3643 59.0114 67.3643ZM72.9099 57.6571C75.6467 57.6571 77.0151 59.2296 77.0151 62.3746V69.4055H74.18V62.5107C74.18 61.6035 74.0061 60.9457 73.6584 60.5375C73.3106 60.1141 72.7738 59.9024 72.0481 59.9024C71.1862 59.9024 70.4907 60.1821 69.9615 60.7416C69.4322 61.2859 69.1676 62.0117 69.1676 62.9189V69.4055H66.3553V61.1952C66.3553 59.9856 66.2948 58.9045 66.1738 57.9519H68.8274L69.0316 59.8344C69.4247 59.1389 69.9539 58.6021 70.6192 58.2241C71.2996 57.8461 72.0632 57.6571 72.9099 57.6571ZM90.0685 52.7127V69.4055H87.2788V67.5684C86.9311 68.2035 86.4321 68.7024 85.7819 69.0653C85.1318 69.4131 84.3909 69.587 83.5592 69.587C82.5764 69.587 81.6995 69.3375 80.9283 68.8385C80.1572 68.3395 79.5524 67.6364 79.1139 66.7292C78.6905 65.8069 78.4788 64.756 78.4788 63.5767C78.4788 62.3973 78.6905 61.3615 79.1139 60.4694C79.5373 59.5773 80.1345 58.8894 80.9056 58.4055C81.6768 57.9065 82.5613 57.6571 83.5592 57.6571C84.3757 57.6571 85.1015 57.8309 85.7366 58.1787C86.3867 58.5114 86.8857 58.9876 87.2335 59.6076V52.7127H90.0685ZM84.3077 67.3643C85.2452 67.3643 85.9709 67.0392 86.485 66.389C87.0142 65.7389 87.2788 64.8165 87.2788 63.622C87.2788 62.4275 87.0218 61.5052 86.5077 60.855C85.9936 60.2048 85.2678 59.8797 84.3304 59.8797C83.3778 59.8797 82.6369 60.2048 82.1077 60.855C81.5936 61.4901 81.3366 62.3973 81.3366 63.5767C81.3366 64.7712 81.5936 65.7011 82.1077 66.3663C82.6369 67.0316 83.3702 67.3643 84.3077 67.3643ZM92.249 57.9519H95.0614V69.4055H92.249V57.9519ZM95.2202 52.7581V55.5478H92.0676V52.7581H95.2202ZM100.862 60.0839V65.2096C100.862 66.5553 101.489 67.2282 102.744 67.2282C103.092 67.2282 103.47 67.1677 103.878 67.0468V69.2921C103.379 69.4736 102.774 69.5643 102.064 69.5643C100.763 69.5643 99.7655 69.2014 99.07 68.4756C98.3745 67.7498 98.0267 66.7065 98.0267 65.3457V60.0839H95.8267V57.9519H98.0267V55.1622L100.862 54.2096V57.9519H103.901V60.0839H100.862ZM104.942 57.9519H107.754V69.4055H104.942V57.9519ZM107.913 52.7581V55.5478H104.761V52.7581H107.913ZM115.142 69.587C113.978 69.587 112.95 69.345 112.058 68.8612C111.181 68.3773 110.501 67.6894 110.017 66.7973C109.548 65.8901 109.314 64.8316 109.314 63.622C109.314 62.4124 109.548 61.3615 110.017 60.4694C110.501 59.5622 111.181 58.8667 112.058 58.3828C112.95 57.899 113.978 57.6571 115.142 57.6571C116.292 57.6571 117.305 57.899 118.182 58.3828C119.059 58.8667 119.731 59.5622 120.2 60.4694C120.684 61.3615 120.926 62.4124 120.926 63.622C120.926 64.8316 120.684 65.8901 120.2 66.7973C119.731 67.6894 119.059 68.3773 118.182 68.8612C117.305 69.345 116.292 69.587 115.142 69.587ZM115.12 67.3643C116.087 67.3643 116.821 67.0543 117.32 66.4344C117.834 65.7993 118.091 64.8619 118.091 63.622C118.091 62.3973 117.834 61.4674 117.32 60.8323C116.806 60.1821 116.08 59.8571 115.142 59.8571C114.19 59.8571 113.457 60.1821 112.942 60.8323C112.428 61.4674 112.171 62.3973 112.171 63.622C112.171 64.8619 112.421 65.7993 112.92 66.4344C113.434 67.0543 114.167 67.3643 115.12 67.3643ZM129.018 57.6571C131.755 57.6571 133.123 59.2296 133.123 62.3746V69.4055H130.288V62.5107C130.288 61.6035 130.114 60.9457 129.767 60.5375C129.419 60.1141 128.882 59.9024 128.156 59.9024C127.295 59.9024 126.599 60.1821 126.07 60.7416C125.541 61.2859 125.276 62.0117 125.276 62.9189V69.4055H122.464V61.1952C122.464 59.9856 122.403 58.9045 122.282 57.9519H124.936L125.14 59.8344C125.533 59.1389 126.062 58.6021 126.728 58.2241C127.408 57.8461 128.172 57.6571 129.018 57.6571ZM39.6468 81.2571H42.5726V95.0014H50.1251V97.4055H39.6468V81.2571ZM51.2267 85.9519H54.0391V97.4055H51.2267V85.9519ZM54.1979 80.7581V83.5478H51.0453V80.7581H54.1979ZM62.7652 85.6571C63.7631 85.6571 64.6401 85.9065 65.3961 86.4055C66.1673 86.8894 66.7645 87.5773 67.1879 88.4694C67.6113 89.3615 67.8229 90.3973 67.8229 91.5767C67.8229 92.756 67.6037 93.8069 67.1652 94.7292C66.7418 95.6364 66.1446 96.3395 65.3735 96.8385C64.6174 97.3375 63.748 97.587 62.7652 97.587C61.9185 97.587 61.1625 97.4055 60.4972 97.0426C59.847 96.6797 59.3556 96.1732 59.0229 95.523V97.4055H56.2333V80.7127H59.0456V87.6756C59.3934 87.0406 59.8924 86.5492 60.5425 86.2014C61.1927 85.8385 61.9336 85.6571 62.7652 85.6571ZM62.0168 95.3643C62.9542 95.3643 63.68 95.0316 64.1941 94.3663C64.7082 93.7011 64.9652 92.7712 64.9652 91.5767C64.9652 90.3973 64.7082 89.4901 64.1941 88.855C63.68 88.2048 62.9467 87.8797 61.9941 87.8797C61.0415 87.8797 60.3082 88.2048 59.7941 88.855C59.28 89.5052 59.0229 90.4275 59.0229 91.622C59.0229 92.8316 59.28 93.7615 59.7941 94.4117C60.3082 95.0468 61.0491 95.3643 62.0168 95.3643ZM75.5596 85.6797C75.9981 85.6797 76.3761 85.7402 76.6936 85.8612L76.671 88.4468C76.1871 88.2502 75.6881 88.1519 75.1741 88.1519C74.2064 88.1519 73.4655 88.4316 72.9514 88.9911C72.4524 89.5505 72.2029 90.2914 72.2029 91.2138V97.4055H69.3905V89.1952C69.3905 87.9856 69.3301 86.9045 69.2091 85.9519H71.8627L72.0895 87.9705C72.3768 87.2296 72.8304 86.6626 73.4503 86.2694C74.0703 85.8763 74.7734 85.6797 75.5596 85.6797ZM88.0982 85.9519V97.4055H85.3085V95.5684C84.9607 96.2035 84.4617 96.7024 83.8116 97.0653C83.1614 97.4131 82.4205 97.587 81.5889 97.587C80.591 97.587 79.7064 97.345 78.9353 96.8612C78.1641 96.3773 77.5669 95.6894 77.1435 94.7973C76.7202 93.9052 76.5085 92.8694 76.5085 91.6901C76.5085 90.5107 76.7202 89.4674 77.1435 88.5602C77.582 87.6378 78.1868 86.9272 78.958 86.4282C79.7291 85.9141 80.6061 85.6571 81.5889 85.6571C82.4205 85.6571 83.1614 85.8385 83.8116 86.2014C84.4617 86.5492 84.9607 87.0406 85.3085 87.6756V85.9519H88.0982ZM82.36 95.3643C83.2975 95.3643 84.0233 95.0392 84.5373 94.389C85.0514 93.7389 85.3085 92.8241 85.3085 91.6447C85.3085 90.4351 85.0514 89.5052 84.5373 88.855C84.0233 88.2048 83.2899 87.8797 82.3373 87.8797C81.3999 87.8797 80.6666 88.22 80.1373 88.9004C79.6233 89.5657 79.3662 90.4956 79.3662 91.6901C79.3662 92.8694 79.6233 93.7767 80.1373 94.4117C80.6666 95.0468 81.4074 95.3643 82.36 95.3643ZM96.4477 85.6797C96.8862 85.6797 97.2642 85.7402 97.5818 85.8612L97.5591 88.4468C97.0752 88.2502 96.5763 88.1519 96.0622 88.1519C95.0945 88.1519 94.3536 88.4316 93.8395 88.9911C93.3405 89.5505 93.091 90.2914 93.091 91.2138V97.4055H90.2787V89.1952C90.2787 87.9856 90.2182 86.9045 90.0972 85.9519H92.7508L92.9776 87.9705C93.2649 87.2296 93.7185 86.6626 94.3385 86.2694C94.9584 85.8763 95.6615 85.6797 96.4477 85.6797ZM109.781 85.9519L104.451 98.1767C103.846 99.598 103.075 100.634 102.138 101.284C101.2 101.934 100.044 102.365 98.6676 102.577L98.0325 100.399C99.1061 100.157 99.9075 99.8474 100.437 99.4694C100.981 99.1065 101.419 98.5622 101.752 97.8364L102.115 96.9973L97.3521 85.9519H100.323L103.612 94.1849L106.969 85.9519H109.781Z" fill="#1B2CC1"/>
<path d="M39.0647 127.502V118.082H42.2267C43.2322 118.082 44.0877 118.267 44.7933 118.637C45.499 118.999 46.037 119.533 46.4074 120.238C46.7779 120.935 46.9631 121.782 46.9631 122.779C46.9631 123.784 46.7735 124.64 46.3942 125.345C46.0238 126.042 45.4857 126.576 44.7801 126.946C44.0745 127.316 43.2234 127.502 42.2267 127.502H39.0647ZM40.1495 126.576H42.1605C43.3777 126.576 44.2906 126.258 44.8992 125.623C45.5166 124.988 45.8253 124.04 45.8253 122.779C45.8253 120.265 44.6037 119.008 42.1605 119.008H40.1495V126.576ZM48.2741 127.502V120.847H49.3458V127.502H48.2741ZM48.1683 118.029H49.4781V119.246H48.1683V118.029ZM53.1466 127.594C52.0264 127.594 51.14 127.308 50.4873 126.734L50.8445 125.941C51.1973 126.214 51.559 126.417 51.9294 126.549C52.3087 126.673 52.7276 126.734 53.1863 126.734C53.689 126.734 54.0683 126.651 54.3241 126.483C54.5887 126.307 54.721 126.055 54.721 125.729C54.721 125.464 54.6328 125.257 54.4564 125.107C54.28 124.948 53.9889 124.82 53.5832 124.723L52.4586 124.459C51.9029 124.335 51.4708 124.115 51.1621 123.797C50.8622 123.48 50.7122 123.1 50.7122 122.659C50.7122 122.271 50.8181 121.932 51.0298 121.641C51.2414 121.341 51.5369 121.107 51.9162 120.94C52.2954 120.772 52.7453 120.688 53.2657 120.688C53.7331 120.688 54.1741 120.763 54.5887 120.913C55.0032 121.063 55.3516 121.279 55.6339 121.561L55.2767 122.342C54.9591 122.077 54.6328 121.883 54.2976 121.76C53.9713 121.627 53.6273 121.561 53.2657 121.561C52.7894 121.561 52.4189 121.654 52.1543 121.839C51.8985 122.024 51.7706 122.276 51.7706 122.593C51.7706 122.867 51.85 123.083 52.0088 123.242C52.1764 123.4 52.441 123.524 52.8026 123.612L53.9272 123.89C54.5534 124.022 55.0121 124.243 55.3031 124.551C55.603 124.851 55.7529 125.235 55.7529 125.702C55.7529 126.276 55.5192 126.734 55.0517 127.078C54.5843 127.422 53.9492 127.594 53.1466 127.594ZM59.7233 127.594C59.0706 127.594 58.5061 127.453 58.0298 127.171C57.5535 126.889 57.1831 126.492 56.9184 125.98C56.6627 125.469 56.5348 124.864 56.5348 124.168C56.5348 123.48 56.6671 122.876 56.9317 122.355C57.1963 121.826 57.5711 121.416 58.0562 121.125C58.5414 120.834 59.1147 120.688 59.7762 120.688C60.226 120.688 60.6582 120.768 61.0727 120.926C61.4961 121.076 61.8445 121.288 62.1179 121.561L61.7607 122.355C61.4344 122.099 61.1124 121.91 60.7949 121.786C60.4862 121.654 60.1643 121.588 59.8291 121.588C59.1588 121.588 58.6251 121.813 58.2282 122.263C57.8402 122.712 57.6461 123.347 57.6461 124.168C57.6461 124.979 57.8402 125.605 58.2282 126.046C58.6163 126.487 59.1499 126.708 59.8291 126.708C60.1554 126.708 60.4774 126.646 60.7949 126.523C61.1124 126.39 61.4344 126.196 61.7607 125.941L62.1179 126.734C61.8357 126.999 61.4785 127.211 61.0463 127.369C60.6229 127.519 60.1819 127.594 59.7233 127.594ZM65.7049 127.594C65.0698 127.594 64.5142 127.453 64.0379 127.171C63.5704 126.889 63.2044 126.492 62.9398 125.98C62.684 125.46 62.5561 124.847 62.5561 124.141C62.5561 123.444 62.684 122.836 62.9398 122.315C63.2044 121.795 63.5704 121.394 64.0379 121.112C64.5142 120.829 65.0698 120.688 65.7049 120.688C66.3399 120.688 66.8912 120.829 67.3587 121.112C67.8349 121.394 68.201 121.795 68.4568 122.315C68.7214 122.836 68.8537 123.444 68.8537 124.141C68.8537 124.847 68.7214 125.46 68.4568 125.98C68.201 126.492 67.8349 126.889 67.3587 127.171C66.8912 127.453 66.3399 127.594 65.7049 127.594ZM65.7049 126.708C66.3576 126.708 66.8603 126.492 67.2131 126.06C67.5748 125.619 67.7556 124.979 67.7556 124.141C67.7556 123.321 67.5748 122.69 67.2131 122.249C66.8515 121.808 66.3487 121.588 65.7049 121.588C65.061 121.588 64.5538 121.808 64.1834 122.249C63.8218 122.69 63.641 123.321 63.641 124.141C63.641 124.979 63.8174 125.619 64.1702 126.06C64.5318 126.492 65.0434 126.708 65.7049 126.708ZM71.8755 127.502L69.0443 120.86H70.1688L72.5767 126.721H72.2592L74.6936 120.86H75.7652L72.8943 127.502H71.8755ZM81.7902 126.708C81.4991 126.981 81.1242 127.197 80.6656 127.356C80.2158 127.515 79.7527 127.594 79.2764 127.594C78.5884 127.594 77.9931 127.458 77.4903 127.184C76.9964 126.911 76.6127 126.518 76.3393 126.007C76.0747 125.486 75.9424 124.869 75.9424 124.154C75.9424 123.466 76.0747 122.862 76.3393 122.342C76.6039 121.822 76.9699 121.416 77.4374 121.125C77.9137 120.834 78.4605 120.688 79.078 120.688C79.6689 120.688 80.1761 120.82 80.5994 121.085C81.0228 121.341 81.3447 121.711 81.5652 122.196C81.7946 122.681 81.9092 123.264 81.9092 123.943V124.141H76.8817V123.44H81.3006L80.9567 123.93C80.9743 123.153 80.8199 122.558 80.4936 122.143C80.1761 121.729 79.7086 121.522 79.0912 121.522C78.4473 121.522 77.9402 121.751 77.5697 122.21C77.2081 122.659 77.0273 123.286 77.0273 124.088C77.0273 124.953 77.2169 125.605 77.5962 126.046C77.9843 126.487 78.5488 126.708 79.2896 126.708C79.6777 126.708 80.0482 126.646 80.401 126.523C80.7626 126.39 81.1066 126.192 81.4329 125.927L81.7902 126.708ZM83.0066 127.502V122.712C83.0066 122.404 82.9978 122.095 82.9802 121.786C82.9713 121.469 82.9449 121.156 82.9008 120.847H83.9195L84.065 122.487L83.9195 122.448C84.043 121.866 84.3076 121.429 84.7133 121.138C85.1279 120.838 85.5909 120.688 86.1025 120.688C86.2172 120.688 86.323 120.697 86.42 120.715C86.5259 120.723 86.6229 120.741 86.7111 120.768L86.6846 121.747C86.4818 121.676 86.248 121.641 85.9834 121.641C85.5248 121.641 85.1543 121.742 84.8721 121.945C84.5987 122.148 84.3958 122.408 84.2635 122.726C84.14 123.034 84.0783 123.361 84.0783 123.705V127.502H83.0066ZM89.2519 121.694V120.847H93.5253V121.694H89.2519ZM93.4988 126.549V127.462C93.3489 127.506 93.1989 127.537 93.049 127.555C92.9079 127.581 92.7491 127.594 92.5727 127.594C91.9553 127.594 91.4614 127.418 91.0909 127.065C90.7293 126.712 90.5485 126.183 90.5485 125.477V119.14L91.6201 118.757V125.332C91.6201 125.685 91.6686 125.958 91.7657 126.152C91.8715 126.346 92.0126 126.483 92.189 126.562C92.3654 126.633 92.5639 126.668 92.7844 126.668C92.9167 126.668 93.0358 126.659 93.1416 126.642C93.2474 126.624 93.3665 126.593 93.4988 126.549ZM94.2875 127.502V117.764H95.3591V122.196L95.1871 122.329C95.3723 121.791 95.6811 121.385 96.1132 121.112C96.5454 120.829 97.0438 120.688 97.6083 120.688C99.2047 120.688 100.003 121.566 100.003 123.321V127.502H98.9313V123.374C98.9313 122.756 98.8078 122.307 98.5608 122.024C98.3139 121.733 97.9258 121.588 97.3966 121.588C96.7792 121.588 96.2852 121.777 95.9148 122.157C95.5443 122.536 95.3591 123.048 95.3591 123.691V127.502H94.2875ZM104.249 127.594C103.614 127.594 103.059 127.453 102.582 127.171C102.115 126.889 101.749 126.492 101.484 125.98C101.228 125.46 101.101 124.847 101.101 124.141C101.101 123.444 101.228 122.836 101.484 122.315C101.749 121.795 102.115 121.394 102.582 121.112C103.059 120.829 103.614 120.688 104.249 120.688C104.884 120.688 105.436 120.829 105.903 121.112C106.379 121.394 106.745 121.795 107.001 122.315C107.266 122.836 107.398 123.444 107.398 124.141C107.398 124.847 107.266 125.46 107.001 125.98C106.745 126.492 106.379 126.889 105.903 127.171C105.436 127.453 104.884 127.594 104.249 127.594ZM104.249 126.708C104.902 126.708 105.405 126.492 105.758 126.06C106.119 125.619 106.3 124.979 106.3 124.141C106.3 123.321 106.119 122.69 105.758 122.249C105.396 121.808 104.893 121.588 104.249 121.588C103.605 121.588 103.098 121.808 102.728 122.249C102.366 122.69 102.185 123.321 102.185 124.141C102.185 124.979 102.362 125.619 102.715 126.06C103.076 126.492 103.588 126.708 104.249 126.708ZM110.894 127.594C110.101 127.594 109.501 127.374 109.095 126.933C108.698 126.492 108.5 125.839 108.5 124.975V120.847H109.571V124.948C109.571 125.548 109.695 125.989 109.942 126.271C110.189 126.554 110.564 126.695 111.066 126.695C111.657 126.695 112.134 126.505 112.495 126.126C112.857 125.746 113.038 125.239 113.038 124.604V120.847H114.109V127.502H113.064V126.06L113.223 125.98C113.047 126.509 112.747 126.911 112.323 127.184C111.909 127.458 111.432 127.594 110.894 127.594ZM117.895 127.594C116.775 127.594 115.889 127.308 115.236 126.734L115.593 125.941C115.946 126.214 116.308 126.417 116.678 126.549C117.057 126.673 117.476 126.734 117.935 126.734C118.438 126.734 118.817 126.651 119.073 126.483C119.337 126.307 119.47 126.055 119.47 125.729C119.47 125.464 119.381 125.257 119.205 125.107C119.029 124.948 118.737 124.82 118.332 124.723L117.207 124.459C116.652 124.335 116.219 124.115 115.911 123.797C115.611 123.48 115.461 123.1 115.461 122.659C115.461 122.271 115.567 121.932 115.778 121.641C115.99 121.341 116.285 121.107 116.665 120.94C117.044 120.772 117.494 120.688 118.014 120.688C118.482 120.688 118.923 120.763 119.337 120.913C119.752 121.063 120.1 121.279 120.382 121.561L120.025 122.342C119.708 122.077 119.381 121.883 119.046 121.76C118.72 121.627 118.376 121.561 118.014 121.561C117.538 121.561 117.168 121.654 116.903 121.839C116.647 122.024 116.519 122.276 116.519 122.593C116.519 122.867 116.599 123.083 116.757 123.242C116.925 123.4 117.19 123.524 117.551 123.612L118.676 123.89C119.302 124.022 119.761 124.243 120.052 124.551C120.352 124.851 120.502 125.235 120.502 125.702C120.502 126.276 120.268 126.734 119.8 127.078C119.333 127.422 118.698 127.594 117.895 127.594ZM124.234 127.594C123.643 127.594 123.122 127.458 122.673 127.184C122.232 126.902 121.888 126.505 121.641 125.993C121.402 125.473 121.283 124.864 121.283 124.168C121.283 123.471 121.407 122.862 121.654 122.342C121.901 121.822 122.245 121.416 122.686 121.125C123.136 120.834 123.652 120.688 124.234 120.688C124.842 120.688 125.358 120.838 125.782 121.138C126.205 121.438 126.492 121.866 126.642 122.421L126.483 122.527V120.847H127.541V127.502H126.483V125.782L126.642 125.861C126.492 126.417 126.205 126.845 125.782 127.144C125.358 127.444 124.842 127.594 124.234 127.594ZM124.445 126.708C125.098 126.708 125.601 126.487 125.954 126.046C126.306 125.597 126.483 124.962 126.483 124.141C126.483 123.321 126.302 122.69 125.94 122.249C125.588 121.808 125.089 121.588 124.445 121.588C123.793 121.588 123.281 121.817 122.911 122.276C122.549 122.726 122.368 123.356 122.368 124.168C122.368 124.979 122.549 125.605 122.911 126.046C123.281 126.487 123.793 126.708 124.445 126.708ZM129.084 127.502V122.712C129.084 122.404 129.075 122.095 129.058 121.786C129.049 121.469 129.022 121.156 128.978 120.847H129.997L130.116 122.223L129.984 122.329C130.169 121.791 130.478 121.385 130.91 121.112C131.342 120.829 131.84 120.688 132.405 120.688C134.001 120.688 134.799 121.566 134.799 123.321V127.502H133.728V123.374C133.728 122.756 133.604 122.307 133.357 122.024C133.11 121.733 132.722 121.588 132.193 121.588C131.576 121.588 131.082 121.777 130.711 122.157C130.341 122.536 130.156 123.048 130.156 123.691V127.502H129.084ZM142.155 127.502H141.097V125.716L141.255 125.861C141.105 126.417 140.819 126.845 140.395 127.144C139.972 127.444 139.456 127.594 138.847 127.594C138.265 127.594 137.749 127.453 137.299 127.171C136.858 126.88 136.514 126.474 136.268 125.954C136.021 125.425 135.897 124.812 135.897 124.115C135.897 123.418 136.016 122.814 136.254 122.302C136.501 121.791 136.845 121.394 137.286 121.112C137.736 120.829 138.256 120.688 138.847 120.688C139.456 120.688 139.972 120.842 140.395 121.151C140.819 121.451 141.105 121.874 141.255 122.421L141.083 122.554V117.764H142.155V127.502ZM139.059 126.708C139.703 126.708 140.201 126.487 140.554 126.046C140.916 125.597 141.097 124.962 141.097 124.141C141.097 123.33 140.92 122.704 140.567 122.263C140.215 121.813 139.712 121.588 139.059 121.588C138.406 121.588 137.895 121.808 137.524 122.249C137.163 122.69 136.982 123.312 136.982 124.115C136.982 124.935 137.163 125.575 137.524 126.033C137.895 126.483 138.406 126.708 139.059 126.708ZM145.947 127.594C144.827 127.594 143.94 127.308 143.288 126.734L143.645 125.941C143.998 126.214 144.359 126.417 144.73 126.549C145.109 126.673 145.528 126.734 145.987 126.734C146.489 126.734 146.869 126.651 147.124 126.483C147.389 126.307 147.521 126.055 147.521 125.729C147.521 125.464 147.433 125.257 147.257 125.107C147.08 124.948 146.789 124.82 146.383 124.723L145.259 124.459C144.703 124.335 144.271 124.115 143.962 123.797C143.662 123.48 143.513 123.1 143.513 122.659C143.513 122.271 143.618 121.932 143.83 121.641C144.042 121.341 144.337 121.107 144.716 120.94C145.096 120.772 145.546 120.688 146.066 120.688C146.533 120.688 146.974 120.763 147.389 120.913C147.804 121.063 148.152 121.279 148.434 121.561L148.077 122.342C147.759 122.077 147.433 121.883 147.098 121.76C146.772 121.627 146.428 121.561 146.066 121.561C145.59 121.561 145.219 121.654 144.955 121.839C144.699 122.024 144.571 122.276 144.571 122.593C144.571 122.867 144.65 123.083 144.809 123.242C144.977 123.4 145.241 123.524 145.603 123.612L146.727 123.89C147.354 124.022 147.812 124.243 148.103 124.551C148.403 124.851 148.553 125.235 148.553 125.702C148.553 126.276 148.32 126.734 147.852 127.078C147.385 127.422 146.75 127.594 145.947 127.594ZM151.713 121.694V120.847H155.986V121.694H151.713ZM155.96 126.549V127.462C155.81 127.506 155.66 127.537 155.51 127.555C155.369 127.581 155.21 127.594 155.034 127.594C154.416 127.594 153.923 127.418 153.552 127.065C153.19 126.712 153.01 126.183 153.01 125.477V119.14L154.081 118.757V125.332C154.081 125.685 154.13 125.958 154.227 126.152C154.333 126.346 154.474 126.483 154.65 126.562C154.827 126.633 155.025 126.668 155.246 126.668C155.378 126.668 155.497 126.659 155.603 126.642C155.709 126.624 155.828 126.593 155.96 126.549ZM159.501 127.594C158.866 127.594 158.31 127.453 157.834 127.171C157.366 126.889 157 126.492 156.735 125.98C156.48 125.46 156.352 124.847 156.352 124.141C156.352 123.444 156.48 122.836 156.735 122.315C157 121.795 157.366 121.394 157.834 121.112C158.31 120.829 158.866 120.688 159.501 120.688C160.136 120.688 160.687 120.829 161.154 121.112C161.631 121.394 161.997 121.795 162.252 122.315C162.517 122.836 162.649 123.444 162.649 124.141C162.649 124.847 162.517 125.46 162.252 125.98C161.997 126.492 161.631 126.889 161.154 127.171C160.687 127.453 160.136 127.594 159.501 127.594ZM159.501 126.708C160.153 126.708 160.656 126.492 161.009 126.06C161.37 125.619 161.551 124.979 161.551 124.141C161.551 123.321 161.37 122.69 161.009 122.249C160.647 121.808 160.144 121.588 159.501 121.588C158.857 121.588 158.35 121.808 157.979 122.249C157.617 122.69 157.437 123.321 157.437 124.141C157.437 124.979 157.613 125.619 157.966 126.06C158.327 126.492 158.839 126.708 159.501 126.708ZM166.711 127.502V117.764H167.783V122.196L167.611 122.329C167.796 121.791 168.105 121.385 168.537 121.112C168.969 120.829 169.467 120.688 170.032 120.688C171.628 120.688 172.427 121.566 172.427 123.321V127.502H171.355V123.374C171.355 122.756 171.231 122.307 170.985 122.024C170.738 121.733 170.349 121.588 169.82 121.588C169.203 121.588 168.709 121.777 168.338 122.157C167.968 122.536 167.783 123.048 167.783 123.691V127.502H166.711ZM179.372 126.708C179.081 126.981 178.706 127.197 178.247 127.356C177.798 127.515 177.335 127.594 176.858 127.594C176.17 127.594 175.575 127.458 175.072 127.184C174.578 126.911 174.195 126.518 173.921 126.007C173.656 125.486 173.524 124.869 173.524 124.154C173.524 123.466 173.656 122.862 173.921 122.342C174.186 121.822 174.552 121.416 175.019 121.125C175.496 120.834 176.042 120.688 176.66 120.688C177.251 120.688 177.758 120.82 178.181 121.085C178.605 121.341 178.927 121.711 179.147 122.196C179.376 122.681 179.491 123.264 179.491 123.943V124.141H174.464V123.44H178.882L178.538 123.93C178.556 123.153 178.402 122.558 178.075 122.143C177.758 121.729 177.29 121.522 176.673 121.522C176.029 121.522 175.522 121.751 175.152 122.21C174.79 122.659 174.609 123.286 174.609 124.088C174.609 124.953 174.799 125.605 175.178 126.046C175.566 126.487 176.131 126.708 176.871 126.708C177.26 126.708 177.63 126.646 177.983 126.523C178.344 126.39 178.688 126.192 179.015 125.927L179.372 126.708ZM183.142 127.594C182.551 127.594 182.031 127.458 181.581 127.184C181.14 126.902 180.796 126.505 180.549 125.993C180.311 125.473 180.192 124.864 180.192 124.168C180.192 123.471 180.315 122.862 180.562 122.342C180.809 121.822 181.153 121.416 181.594 121.125C182.044 120.834 182.56 120.688 183.142 120.688C183.75 120.688 184.266 120.838 184.69 121.138C185.113 121.438 185.4 121.866 185.55 122.421L185.391 122.527V120.847H186.449V127.502H185.391V125.782L185.55 125.861C185.4 126.417 185.113 126.845 184.69 127.144C184.266 127.444 183.75 127.594 183.142 127.594ZM183.354 126.708C184.006 126.708 184.509 126.487 184.862 126.046C185.215 125.597 185.391 124.962 185.391 124.141C185.391 123.321 185.21 122.69 184.849 122.249C184.496 121.808 183.997 121.588 183.354 121.588C182.701 121.588 182.189 121.817 181.819 122.276C181.457 122.726 181.276 123.356 181.276 124.168C181.276 124.979 181.457 125.605 181.819 126.046C182.189 126.487 182.701 126.708 183.354 126.708ZM187.992 127.502V117.764H189.064V127.502H187.992ZM189.676 121.694V120.847H193.95V121.694H189.676ZM193.923 126.549V127.462C193.773 127.506 193.623 127.537 193.473 127.555C193.332 127.581 193.173 127.594 192.997 127.594C192.38 127.594 191.886 127.418 191.515 127.065C191.154 126.712 190.973 126.183 190.973 125.477V119.14L192.044 118.757V125.332C192.044 125.685 192.093 125.958 192.19 126.152C192.296 126.346 192.437 126.483 192.613 126.562C192.79 126.633 192.988 126.668 193.209 126.668C193.341 126.668 193.46 126.659 193.566 126.642C193.672 126.624 193.791 126.593 193.923 126.549ZM194.712 127.502V117.764H195.783V122.196L195.611 122.329C195.797 121.791 196.105 121.385 196.537 121.112C196.97 120.829 197.468 120.688 198.032 120.688C199.629 120.688 200.427 121.566 200.427 123.321V127.502H199.356V123.374C199.356 122.756 199.232 122.307 198.985 122.024C198.738 121.733 198.35 121.588 197.821 121.588C197.203 121.588 196.709 121.777 196.339 122.157C195.969 122.536 195.783 123.048 195.783 123.691V127.502H194.712ZM207.634 127.594C206.981 127.594 206.417 127.453 205.94 127.171C205.464 126.889 205.094 126.492 204.829 125.98C204.573 125.469 204.445 124.864 204.445 124.168C204.445 123.48 204.578 122.876 204.842 122.355C205.107 121.826 205.482 121.416 205.967 121.125C206.452 120.834 207.025 120.688 207.687 120.688C208.136 120.688 208.569 120.768 208.983 120.926C209.407 121.076 209.755 121.288 210.028 121.561L209.671 122.355C209.345 122.099 209.023 121.91 208.705 121.786C208.397 121.654 208.075 121.588 207.74 121.588C207.069 121.588 206.536 121.813 206.139 122.263C205.751 122.712 205.557 123.347 205.557 124.168C205.557 124.979 205.751 125.605 206.139 126.046C206.527 126.487 207.06 126.708 207.74 126.708C208.066 126.708 208.388 126.646 208.705 126.523C209.023 126.39 209.345 126.196 209.671 125.941L210.028 126.734C209.746 126.999 209.389 127.211 208.957 127.369C208.533 127.519 208.092 127.594 207.634 127.594ZM213.615 127.594C212.98 127.594 212.425 127.453 211.948 127.171C211.481 126.889 211.115 126.492 210.85 125.98C210.594 125.46 210.467 124.847 210.467 124.141C210.467 123.444 210.594 122.836 210.85 122.315C211.115 121.795 211.481 121.394 211.948 121.112C212.425 120.829 212.98 120.688 213.615 120.688C214.25 120.688 214.802 120.829 215.269 121.112C215.745 121.394 216.111 121.795 216.367 122.315C216.632 122.836 216.764 123.444 216.764 124.141C216.764 124.847 216.632 125.46 216.367 125.98C216.111 126.492 215.745 126.889 215.269 127.171C214.802 127.453 214.25 127.594 213.615 127.594ZM213.615 126.708C214.268 126.708 214.771 126.492 215.124 126.06C215.485 125.619 215.666 124.979 215.666 124.141C215.666 123.321 215.485 122.69 215.124 122.249C214.762 121.808 214.259 121.588 213.615 121.588C212.971 121.588 212.464 121.808 212.094 122.249C211.732 122.69 211.551 123.321 211.551 124.141C211.551 124.979 211.728 125.619 212.081 126.06C212.442 126.492 212.954 126.708 213.615 126.708ZM217.905 127.502V122.712C217.905 122.404 217.897 122.095 217.879 121.786C217.87 121.469 217.844 121.156 217.8 120.847H218.818L218.937 122.223L218.805 122.329C218.99 121.791 219.299 121.385 219.731 121.112C220.163 120.829 220.662 120.688 221.226 120.688C222.823 120.688 223.621 121.566 223.621 123.321V127.502H222.549V123.374C222.549 122.756 222.426 122.307 222.179 122.024C221.932 121.733 221.544 121.588 221.015 121.588C220.397 121.588 219.903 121.777 219.533 122.157C219.162 122.536 218.977 123.048 218.977 123.691V127.502H217.905ZM230.976 127.502H229.918V125.716L230.077 125.861C229.927 126.417 229.64 126.845 229.217 127.144C228.793 127.444 228.277 127.594 227.669 127.594C227.087 127.594 226.571 127.453 226.121 127.171C225.68 126.88 225.336 126.474 225.089 125.954C224.842 125.425 224.719 124.812 224.719 124.115C224.719 123.418 224.838 122.814 225.076 122.302C225.323 121.791 225.667 121.394 226.108 121.112C226.558 120.829 227.078 120.688 227.669 120.688C228.277 120.688 228.793 120.842 229.217 121.151C229.64 121.451 229.927 121.874 230.077 122.421L229.905 122.554V117.764H230.976V127.502ZM227.881 126.708C228.524 126.708 229.023 126.487 229.376 126.046C229.737 125.597 229.918 124.962 229.918 124.141C229.918 123.33 229.742 122.704 229.389 122.263C229.036 121.813 228.533 121.588 227.881 121.588C227.228 121.588 226.716 121.808 226.346 122.249C225.984 122.69 225.803 123.312 225.803 124.115C225.803 124.935 225.984 125.575 226.346 126.033C226.716 126.483 227.228 126.708 227.881 126.708ZM232.519 127.502V120.847H233.591V127.502H232.519ZM232.413 118.029H233.723V119.246H232.413V118.029ZM234.203 121.694V120.847H238.477V121.694H234.203ZM238.45 126.549V127.462C238.3 127.506 238.15 127.537 238 127.555C237.859 127.581 237.7 127.594 237.524 127.594C236.907 127.594 236.413 127.418 236.042 127.065C235.681 126.712 235.5 126.183 235.5 125.477V119.14L236.571 118.757V125.332C236.571 125.685 236.62 125.958 236.717 126.152C236.823 126.346 236.964 126.483 237.14 126.562C237.317 126.633 237.515 126.668 237.736 126.668C237.868 126.668 237.987 126.659 238.093 126.642C238.199 126.624 238.318 126.593 238.45 126.549ZM239.239 127.502V120.847H240.31V127.502H239.239ZM239.133 118.029H240.443V119.246H239.133V118.029ZM244.614 127.594C243.979 127.594 243.423 127.453 242.947 127.171C242.479 126.889 242.113 126.492 241.849 125.98C241.593 125.46 241.465 124.847 241.465 124.141C241.465 123.444 241.593 122.836 241.849 122.315C242.113 121.795 242.479 121.394 242.947 121.112C243.423 120.829 243.979 120.688 244.614 120.688C245.249 120.688 245.8 120.829 246.268 121.112C246.744 121.394 247.11 121.795 247.366 122.315C247.63 122.836 247.763 123.444 247.763 124.141C247.763 124.847 247.63 125.46 247.366 125.98C247.11 126.492 246.744 126.889 246.268 127.171C245.8 127.453 245.249 127.594 244.614 127.594ZM244.614 126.708C245.267 126.708 245.769 126.492 246.122 126.06C246.484 125.619 246.665 124.979 246.665 124.141C246.665 123.321 246.484 122.69 246.122 122.249C245.761 121.808 245.258 121.588 244.614 121.588C243.97 121.588 243.463 121.808 243.092 122.249C242.731 122.69 242.55 123.321 242.55 124.141C242.55 124.979 242.726 125.619 243.079 126.06C243.441 126.492 243.952 126.708 244.614 126.708ZM248.904 127.502V122.712C248.904 122.404 248.895 122.095 248.878 121.786C248.869 121.469 248.842 121.156 248.798 120.847H249.817L249.936 122.223L249.804 122.329C249.989 121.791 250.298 121.385 250.73 121.112C251.162 120.829 251.66 120.688 252.225 120.688C253.821 120.688 254.619 121.566 254.619 123.321V127.502H253.548V123.374C253.548 122.756 253.424 122.307 253.177 122.024C252.93 121.733 252.542 121.588 252.013 121.588C251.396 121.588 250.902 121.777 250.531 122.157C250.161 122.536 249.976 123.048 249.976 123.691V127.502H248.904ZM258.363 127.594C257.243 127.594 256.357 127.308 255.704 126.734L256.061 125.941C256.414 126.214 256.775 126.417 257.146 126.549C257.525 126.673 257.944 126.734 258.403 126.734C258.906 126.734 259.285 126.651 259.541 126.483C259.805 126.307 259.938 126.055 259.938 125.729C259.938 125.464 259.849 125.257 259.673 125.107C259.497 124.948 259.205 124.82 258.8 124.723L257.675 124.459C257.119 124.335 256.687 124.115 256.379 123.797C256.079 123.48 255.929 123.1 255.929 122.659C255.929 122.271 256.035 121.932 256.246 121.641C256.458 121.341 256.753 121.107 257.133 120.94C257.512 120.772 257.962 120.688 258.482 120.688C258.95 120.688 259.391 120.763 259.805 120.913C260.22 121.063 260.568 121.279 260.85 121.561L260.493 122.342C260.176 122.077 259.849 121.883 259.514 121.76C259.188 121.627 258.844 121.561 258.482 121.561C258.006 121.561 257.635 121.654 257.371 121.839C257.115 122.024 256.987 122.276 256.987 122.593C256.987 122.867 257.067 123.083 257.225 123.242C257.393 123.4 257.658 123.524 258.019 123.612L259.144 123.89C259.77 124.022 260.229 124.243 260.52 124.551C260.82 124.851 260.969 125.235 260.969 125.702C260.969 126.276 260.736 126.734 260.268 127.078C259.801 127.422 259.166 127.594 258.363 127.594ZM41.4858 144.594C40.8948 144.594 40.3744 144.458 39.9246 144.184C39.4836 143.902 39.1396 143.505 38.8927 142.993C38.6545 142.473 38.5354 141.864 38.5354 141.168C38.5354 140.471 38.6589 139.862 38.9059 139.342C39.1529 138.822 39.4968 138.416 39.9378 138.125C40.3877 137.834 40.9037 137.688 41.4858 137.688C42.0944 137.688 42.6104 137.838 43.0337 138.138C43.4571 138.438 43.7437 138.866 43.8937 139.421L43.7349 139.527V137.847H44.7933V144.502H43.7349V142.782L43.8937 142.861C43.7437 143.417 43.4571 143.845 43.0337 144.144C42.6104 144.444 42.0944 144.594 41.4858 144.594ZM41.6975 143.708C42.3502 143.708 42.8529 143.487 43.2057 143.046C43.5585 142.597 43.7349 141.962 43.7349 141.141C43.7349 140.321 43.5541 139.69 43.1925 139.249C42.8397 138.808 42.3413 138.588 41.6975 138.588C41.0448 138.588 40.5332 138.817 40.1628 139.276C39.8011 139.726 39.6203 140.356 39.6203 141.168C39.6203 141.979 39.8011 142.605 40.1628 143.046C40.5332 143.487 41.0448 143.708 41.6975 143.708ZM46.3361 144.502V139.712C46.3361 139.404 46.3273 139.095 46.3097 138.786C46.3008 138.469 46.2744 138.156 46.2303 137.847H47.249L47.3681 139.223L47.2358 139.329C47.421 138.791 47.7297 138.385 48.1619 138.112C48.5941 137.829 49.0924 137.688 49.6569 137.688C51.2534 137.688 52.0516 138.566 52.0516 140.321V144.502H50.9799V140.374C50.9799 139.756 50.8564 139.307 50.6095 139.024C50.3625 138.733 49.9744 138.588 49.4452 138.588C48.8278 138.588 48.3339 138.777 47.9634 139.157C47.593 139.536 47.4078 140.048 47.4078 140.691V144.502H46.3361ZM59.4071 144.502H58.3487V142.716L58.5074 142.861C58.3575 143.417 58.0708 143.845 57.6475 144.144C57.2241 144.444 56.7081 144.594 56.0995 144.594C55.5174 144.594 55.0014 144.453 54.5516 144.171C54.1106 143.88 53.7666 143.474 53.5196 142.954C53.2727 142.425 53.1492 141.812 53.1492 141.115C53.1492 140.418 53.2682 139.814 53.5064 139.302C53.7534 138.791 54.0973 138.394 54.5383 138.112C54.9882 137.829 55.5086 137.688 56.0995 137.688C56.7081 137.688 57.2241 137.842 57.6475 138.151C58.0708 138.451 58.3575 138.874 58.5074 139.421L58.3354 139.554V134.764H59.4071V144.502ZM56.3112 143.708C56.9551 143.708 57.4534 143.487 57.8062 143.046C58.1678 142.597 58.3487 141.962 58.3487 141.141C58.3487 140.33 58.1723 139.704 57.8194 139.263C57.4666 138.813 56.9639 138.588 56.3112 138.588C55.6585 138.588 55.1469 138.808 54.7765 139.249C54.4149 139.69 54.2341 140.312 54.2341 141.115C54.2341 141.935 54.4149 142.575 54.7765 143.033C55.1469 143.483 55.6585 143.708 56.3112 143.708ZM62.931 138.694V137.847H67.2043V138.694H62.931ZM67.1779 143.549V144.462C67.0279 144.506 66.878 144.537 66.7281 144.555C66.5869 144.581 66.4282 144.594 66.2518 144.594C65.6344 144.594 65.1404 144.418 64.77 144.065C64.4083 143.712 64.2275 143.183 64.2275 142.477V136.14L65.2992 135.757V142.332C65.2992 142.685 65.3477 142.958 65.4447 143.152C65.5506 143.346 65.6917 143.483 65.8681 143.562C66.0445 143.633 66.2429 143.668 66.4634 143.668C66.5957 143.668 66.7148 143.659 66.8207 143.642C66.9265 143.624 67.0456 143.593 67.1779 143.549ZM67.9665 144.502V134.764H69.0382V139.196L68.8662 139.329C69.0514 138.791 69.3601 138.385 69.7923 138.112C70.2245 137.829 70.7228 137.688 71.2873 137.688C72.8838 137.688 73.682 138.566 73.682 140.321V144.502H72.6103V140.374C72.6103 139.756 72.4869 139.307 72.2399 139.024C71.9929 138.733 71.6048 138.588 71.0756 138.588C70.4582 138.588 69.9643 138.777 69.5938 139.157C69.2234 139.536 69.0382 140.048 69.0382 140.691V144.502H67.9665ZM80.6273 143.708C80.3363 143.981 79.9614 144.197 79.5028 144.356C79.0529 144.515 78.5899 144.594 78.1136 144.594C77.4256 144.594 76.8303 144.458 76.3275 144.184C75.8336 143.911 75.4499 143.518 75.1765 143.007C74.9119 142.486 74.7796 141.869 74.7796 141.154C74.7796 140.466 74.9119 139.862 75.1765 139.342C75.4411 138.822 75.8071 138.416 76.2746 138.125C76.7509 137.834 77.2977 137.688 77.9151 137.688C78.5061 137.688 79.0133 137.82 79.4366 138.085C79.86 138.341 80.1819 138.711 80.4024 139.196C80.6318 139.681 80.7464 140.264 80.7464 140.943V141.141H75.7189V140.44H80.1378L79.7938 140.93C79.8115 140.153 79.6571 139.558 79.3308 139.143C79.0133 138.729 78.5458 138.522 77.9284 138.522C77.2845 138.522 76.7773 138.751 76.4069 139.21C76.0453 139.659 75.8645 140.286 75.8645 141.088C75.8645 141.953 76.0541 142.605 76.4334 143.046C76.8214 143.487 77.3859 143.708 78.1268 143.708C78.5149 143.708 78.8854 143.646 79.2382 143.523C79.5998 143.39 79.9438 143.192 80.2701 142.927L80.6273 143.708ZM81.8438 144.502V139.712C81.8438 139.404 81.835 139.095 81.8173 138.786C81.8085 138.469 81.7821 138.156 81.738 137.847H82.7567L82.9022 139.487L82.7567 139.448C82.8802 138.866 83.1448 138.429 83.5505 138.138C83.9651 137.838 84.4281 137.688 84.9397 137.688C85.0543 137.688 85.1602 137.697 85.2572 137.715C85.3631 137.723 85.4601 137.741 85.5483 137.768L85.5218 138.747C85.3189 138.676 85.0852 138.641 84.8206 138.641C84.362 138.641 83.9915 138.742 83.7093 138.945C83.4358 139.148 83.233 139.408 83.1007 139.726C82.9772 140.034 82.9155 140.361 82.9155 140.705V144.502H81.8438ZM91.4296 143.708C91.1386 143.981 90.7637 144.197 90.3051 144.356C89.8552 144.515 89.3922 144.594 88.9159 144.594C88.2279 144.594 87.6326 144.458 87.1298 144.184C86.6359 143.911 86.2522 143.518 85.9788 143.007C85.7142 142.486 85.5819 141.869 85.5819 141.154C85.5819 140.466 85.7142 139.862 85.9788 139.342C86.2434 138.822 86.6094 138.416 87.0769 138.125C87.5532 137.834 88.1 137.688 88.7174 137.688C89.3084 137.688 89.8155 137.82 90.2389 138.085C90.6623 138.341 90.9842 138.711 91.2047 139.196C91.434 139.681 91.5487 140.264 91.5487 140.943V141.141H86.5212V140.44H90.9401L90.5961 140.93C90.6138 140.153 90.4594 139.558 90.1331 139.143C89.8155 138.729 89.3481 138.522 88.7307 138.522C88.0868 138.522 87.5796 138.751 87.2092 139.21C86.8476 139.659 86.6667 140.286 86.6667 141.088C86.6667 141.953 86.8564 142.605 87.2356 143.046C87.6237 143.487 88.1882 143.708 88.9291 143.708C89.3172 143.708 89.6876 143.646 90.0405 143.523C90.4021 143.39 90.7461 143.192 91.0724 142.927L91.4296 143.708ZM95.5666 144.502V139.712C95.5666 139.404 95.5577 139.095 95.5401 138.786C95.5313 138.469 95.5048 138.156 95.4607 137.847H96.4794L96.5985 139.223L96.4662 139.315C96.625 138.795 96.8984 138.394 97.2865 138.112C97.6834 137.829 98.1509 137.688 98.6889 137.688C99.3328 137.688 99.8311 137.847 100.184 138.164C100.546 138.482 100.775 138.967 100.872 139.62L100.554 139.448C100.695 138.91 100.978 138.482 101.401 138.164C101.833 137.847 102.349 137.688 102.949 137.688C103.681 137.688 104.232 137.909 104.603 138.35C104.973 138.782 105.158 139.439 105.158 140.321V144.502H104.087V140.374C104.087 139.756 103.977 139.307 103.756 139.024C103.536 138.733 103.187 138.588 102.711 138.588C102.155 138.588 101.714 138.777 101.388 139.157C101.07 139.536 100.912 140.052 100.912 140.705V144.502H99.8399V140.374C99.8399 139.756 99.7253 139.307 99.4959 139.024C99.2754 138.733 98.927 138.588 98.4508 138.588C97.8863 138.588 97.4408 138.777 97.1145 139.157C96.797 139.536 96.6382 140.052 96.6382 140.705V144.502H95.5666ZM112.116 143.708C111.825 143.981 111.45 144.197 110.992 144.356C110.542 144.515 110.079 144.594 109.603 144.594C108.915 144.594 108.319 144.458 107.817 144.184C107.323 143.911 106.939 143.518 106.665 143.007C106.401 142.486 106.269 141.869 106.269 141.154C106.269 140.466 106.401 139.862 106.665 139.342C106.93 138.822 107.296 138.416 107.764 138.125C108.24 137.834 108.787 137.688 109.404 137.688C109.995 137.688 110.502 137.82 110.926 138.085C111.349 138.341 111.671 138.711 111.891 139.196C112.121 139.681 112.235 140.264 112.235 140.943V141.141H107.208V140.44H111.627L111.283 140.93C111.3 140.153 111.146 139.558 110.82 139.143C110.502 138.729 110.035 138.522 109.417 138.522C108.774 138.522 108.266 138.751 107.896 139.21C107.534 139.659 107.353 140.286 107.353 141.088C107.353 141.953 107.543 142.605 107.922 143.046C108.31 143.487 108.875 143.708 109.616 143.708C110.004 143.708 110.374 143.646 110.727 143.523C111.089 143.39 111.433 143.192 111.759 142.927L112.116 143.708ZM115.886 144.594C115.295 144.594 114.775 144.458 114.325 144.184C113.884 143.902 113.54 143.505 113.293 142.993C113.055 142.473 112.936 141.864 112.936 141.168C112.936 140.471 113.059 139.862 113.306 139.342C113.553 138.822 113.897 138.416 114.338 138.125C114.788 137.834 115.304 137.688 115.886 137.688C116.495 137.688 117.011 137.838 117.434 138.138C117.858 138.438 118.144 138.866 118.294 139.421L118.135 139.527V137.847H119.194V144.502H118.135V142.782L118.294 142.861C118.144 143.417 117.858 143.845 117.434 144.144C117.011 144.444 116.495 144.594 115.886 144.594ZM116.098 143.708C116.751 143.708 117.253 143.487 117.606 143.046C117.959 142.597 118.135 141.962 118.135 141.141C118.135 140.321 117.955 139.69 117.593 139.249C117.24 138.808 116.742 138.588 116.098 138.588C115.445 138.588 114.934 138.817 114.563 139.276C114.202 139.726 114.021 140.356 114.021 141.168C114.021 141.979 114.202 142.605 114.563 143.046C114.934 143.487 115.445 143.708 116.098 143.708ZM120.737 144.502V139.712C120.737 139.404 120.728 139.095 120.71 138.786C120.701 138.469 120.675 138.156 120.631 137.847H121.649L121.769 139.223L121.636 139.329C121.821 138.791 122.13 138.385 122.562 138.112C122.995 137.829 123.493 137.688 124.057 137.688C125.654 137.688 126.452 138.566 126.452 140.321V144.502H125.38V140.374C125.38 139.756 125.257 139.307 125.01 139.024C124.763 138.733 124.375 138.588 123.846 138.588C123.228 138.588 122.734 138.777 122.364 139.157C121.993 139.536 121.808 140.048 121.808 140.691V144.502H120.737ZM127.947 144.502V137.847H129.018V144.502H127.947ZM127.841 135.029H129.15V136.246H127.841V135.029ZM130.57 144.502V139.712C130.57 139.404 130.561 139.095 130.543 138.786C130.535 138.469 130.508 138.156 130.464 137.847H131.483L131.602 139.223L131.47 139.329C131.655 138.791 131.963 138.385 132.396 138.112C132.828 137.829 133.326 137.688 133.891 137.688C135.487 137.688 136.285 138.566 136.285 140.321V144.502H135.214V140.374C135.214 139.756 135.09 139.307 134.843 139.024C134.596 138.733 134.208 138.588 133.679 138.588C133.062 138.588 132.568 138.777 132.197 139.157C131.827 139.536 131.641 140.048 131.641 140.691V144.502H130.57ZM140.704 147.452C139.698 147.452 138.825 147.223 138.084 146.764L138.269 145.891C138.684 146.129 139.076 146.301 139.447 146.407C139.817 146.513 140.236 146.566 140.704 146.566C141.339 146.566 141.819 146.394 142.146 146.05C142.481 145.714 142.649 145.212 142.649 144.541V142.742L142.794 142.57C142.688 142.923 142.521 143.232 142.291 143.496C142.071 143.752 141.797 143.95 141.471 144.092C141.145 144.233 140.774 144.303 140.36 144.303C139.769 144.303 139.248 144.167 138.799 143.893C138.358 143.611 138.009 143.223 137.753 142.729C137.506 142.235 137.383 141.657 137.383 140.996C137.383 140.334 137.506 139.756 137.753 139.263C138.009 138.769 138.358 138.385 138.799 138.112C139.248 137.829 139.769 137.688 140.36 137.688C140.977 137.688 141.498 137.842 141.921 138.151C142.353 138.451 142.644 138.874 142.794 139.421L142.635 139.276V137.847H143.707V144.449C143.707 145.445 143.451 146.195 142.94 146.698C142.437 147.201 141.692 147.452 140.704 147.452ZM140.571 143.404C141.215 143.404 141.718 143.192 142.08 142.769C142.45 142.336 142.635 141.745 142.635 140.996C142.635 140.246 142.45 139.659 142.08 139.236C141.718 138.804 141.215 138.588 140.571 138.588C139.919 138.588 139.403 138.804 139.023 139.236C138.653 139.659 138.468 140.246 138.468 140.996C138.468 141.754 138.653 142.345 139.023 142.769C139.403 143.192 139.919 143.404 140.571 143.404ZM148.156 144.502V134.764H149.227V139.196L149.055 139.329C149.241 138.791 149.549 138.385 149.982 138.112C150.414 137.829 150.912 137.688 151.477 137.688C153.073 137.688 153.871 138.566 153.871 140.321V144.502H152.8V140.374C152.8 139.756 152.676 139.307 152.429 139.024C152.182 138.733 151.794 138.588 151.265 138.588C150.647 138.588 150.153 138.777 149.783 139.157C149.413 139.536 149.227 140.048 149.227 140.691V144.502H148.156ZM160.817 143.708C160.525 143.981 160.151 144.197 159.692 144.356C159.242 144.515 158.779 144.594 158.303 144.594C157.615 144.594 157.019 144.458 156.517 144.184C156.023 143.911 155.639 143.518 155.366 143.007C155.101 142.486 154.969 141.869 154.969 141.154C154.969 140.466 155.101 139.862 155.366 139.342C155.63 138.822 155.996 138.416 156.464 138.125C156.94 137.834 157.487 137.688 158.104 137.688C158.695 137.688 159.202 137.82 159.626 138.085C160.049 138.341 160.371 138.711 160.592 139.196C160.821 139.681 160.936 140.264 160.936 140.943V141.141H155.908V140.44H160.327L159.983 140.93C160.001 140.153 159.846 139.558 159.52 139.143C159.202 138.729 158.735 138.522 158.118 138.522C157.474 138.522 156.967 138.751 156.596 139.21C156.234 139.659 156.054 140.286 156.054 141.088C156.054 141.953 156.243 142.605 156.623 143.046C157.011 143.487 157.575 143.708 158.316 143.708C158.704 143.708 159.075 143.646 159.427 143.523C159.789 143.39 160.133 143.192 160.459 142.927L160.817 143.708ZM162.033 144.502V139.712C162.033 139.404 162.024 139.095 162.007 138.786C161.998 138.469 161.971 138.156 161.927 137.847H162.946L163.091 139.487L162.946 139.448C163.069 138.866 163.334 138.429 163.74 138.138C164.154 137.838 164.617 137.688 165.129 137.688C165.244 137.688 165.349 137.697 165.446 137.715C165.552 137.723 165.649 137.741 165.737 137.768L165.711 138.747C165.508 138.676 165.274 138.641 165.01 138.641C164.551 138.641 164.181 138.742 163.898 138.945C163.625 139.148 163.422 139.408 163.29 139.726C163.166 140.034 163.105 140.361 163.105 140.705V144.502H162.033ZM171.619 143.708C171.328 143.981 170.953 144.197 170.494 144.356C170.044 144.515 169.581 144.594 169.105 144.594C168.417 144.594 167.822 144.458 167.319 144.184C166.825 143.911 166.441 143.518 166.168 143.007C165.903 142.486 165.771 141.869 165.771 141.154C165.771 140.466 165.903 139.862 166.168 139.342C166.433 138.822 166.799 138.416 167.266 138.125C167.742 137.834 168.289 137.688 168.907 137.688C169.498 137.688 170.005 137.82 170.428 138.085C170.851 138.341 171.173 138.711 171.394 139.196C171.623 139.681 171.738 140.264 171.738 140.943V141.141H166.71V140.44H171.129L170.785 140.93C170.803 140.153 170.649 139.558 170.322 139.143C170.005 138.729 169.537 138.522 168.92 138.522C168.276 138.522 167.769 138.751 167.398 139.21C167.037 139.659 166.856 140.286 166.856 141.088C166.856 141.953 167.046 142.605 167.425 143.046C167.813 143.487 168.377 143.708 169.118 143.708C169.506 143.708 169.877 143.646 170.23 143.523C170.591 143.39 170.935 143.192 171.262 142.927L171.619 143.708Z" fill="#262626"/>
<rect x="173.038" y="31.2853" width="102.062" height="27.4055" rx="4.72509" fill="#0066F5" fill-opacity="0.1"/>
<path d="M194.289 49.1162C193.39 49.1162 192.613 48.9222 191.961 48.5341C191.308 48.146 190.805 47.5903 190.453 46.8671C190.1 46.1438 189.923 45.2839 189.923 44.2872C189.923 43.2905 190.1 42.4349 190.453 41.7205C190.805 41.0061 191.308 40.4548 191.961 40.0667C192.613 39.6786 193.39 39.4846 194.289 39.4846C194.933 39.4846 195.529 39.586 196.075 39.7889C196.622 39.9829 197.094 40.2784 197.491 40.6753L197.081 41.5088C196.631 41.1207 196.186 40.8429 195.745 40.6753C195.304 40.5077 194.823 40.4239 194.303 40.4239C193.271 40.4239 192.468 40.7591 191.895 41.4294C191.33 42.0998 191.048 43.0524 191.048 44.2872C191.048 45.5308 191.33 46.4922 191.895 47.1714C192.459 47.8417 193.262 48.1769 194.303 48.1769C194.823 48.1769 195.304 48.0931 195.745 47.9255C196.186 47.7579 196.631 47.4801 197.081 47.092L197.491 47.9255C197.094 48.3224 196.622 48.6223 196.075 48.8252C195.529 49.0192 194.933 49.1162 194.289 49.1162ZM198.65 49.0104V39.2729H199.722V49.0104H198.65ZM201.273 49.0104V42.3556H202.345V49.0104H201.273ZM201.167 39.5375H202.477V40.7547H201.167V39.5375ZM206.688 49.103C206.035 49.103 205.471 48.9619 204.995 48.6796C204.518 48.3974 204.148 48.0005 203.883 47.4889C203.627 46.9773 203.5 46.3731 203.5 45.6764C203.5 44.9884 203.632 44.3842 203.897 43.8638C204.161 43.3346 204.536 42.9245 205.021 42.6334C205.506 42.3423 206.079 42.1968 206.741 42.1968C207.191 42.1968 207.623 42.2762 208.038 42.4349C208.461 42.5849 208.809 42.7966 209.083 43.07L208.726 43.8638C208.399 43.608 208.077 43.4184 207.76 43.2949C207.451 43.1626 207.129 43.0965 206.794 43.0965C206.124 43.0965 205.59 43.3214 205.193 43.7712C204.805 44.221 204.611 44.8561 204.611 45.6764C204.611 46.4878 204.805 47.114 205.193 47.555C205.581 47.9961 206.115 48.2166 206.794 48.2166C207.12 48.2166 207.442 48.1548 207.76 48.0313C208.077 47.899 208.399 47.705 208.726 47.4492L209.083 48.243C208.801 48.5076 208.443 48.7193 208.011 48.8781C207.588 49.028 207.147 49.103 206.688 49.103ZM214.403 49.0104L210.778 45.6102L214.125 42.3688H215.488L211.783 45.9145L211.823 45.2398L215.805 49.0104H214.403ZM209.918 49.0104V39.2729H210.989V49.0104H209.918ZM218.179 43.2023V42.3556H222.452V43.2023H218.179ZM222.426 48.0578V48.9707C222.276 49.0148 222.126 49.0457 221.976 49.0633C221.835 49.0898 221.676 49.103 221.499 49.103C220.882 49.103 220.388 48.9266 220.018 48.5738C219.656 48.221 219.475 47.6918 219.475 46.9861V40.6489L220.547 40.2652V46.8406C220.547 47.1934 220.595 47.4668 220.692 47.6609C220.798 47.8549 220.939 47.9916 221.116 48.071C221.292 48.1416 221.491 48.1769 221.711 48.1769C221.843 48.1769 221.962 48.1681 222.068 48.1504C222.174 48.1328 222.293 48.1019 222.426 48.0578ZM225.966 49.103C225.331 49.103 224.775 48.9619 224.299 48.6796C223.832 48.3974 223.466 48.0005 223.201 47.4889C222.945 46.9685 222.817 46.3555 222.817 45.6499C222.817 44.9531 222.945 44.3445 223.201 43.8241C223.466 43.3037 223.832 42.9024 224.299 42.6202C224.775 42.3379 225.331 42.1968 225.966 42.1968C226.601 42.1968 227.152 42.3379 227.62 42.6202C228.096 42.9024 228.462 43.3037 228.718 43.8241C228.983 44.3445 229.115 44.9531 229.115 45.6499C229.115 46.3555 228.983 46.9685 228.718 47.4889C228.462 48.0005 228.096 48.3974 227.62 48.6796C227.152 48.9619 226.601 49.103 225.966 49.103ZM225.966 48.2166C226.619 48.2166 227.122 48.0005 227.474 47.5683C227.836 47.1273 228.017 46.4878 228.017 45.6499C228.017 44.8296 227.836 44.199 227.474 43.758C227.113 43.317 226.61 43.0965 225.966 43.0965C225.322 43.0965 224.815 43.317 224.445 43.758C224.083 44.199 223.902 44.8296 223.902 45.6499C223.902 46.4878 224.079 47.1273 224.431 47.5683C224.793 48.0005 225.305 48.2166 225.966 48.2166ZM233.177 49.0104V44.221C233.177 43.9123 233.168 43.6036 233.15 43.2949C233.141 42.9774 233.115 42.6643 233.071 42.3556H234.09L234.235 43.9961L234.09 43.9564C234.213 43.3743 234.478 42.9377 234.883 42.6466C235.298 42.3467 235.761 42.1968 236.273 42.1968C236.387 42.1968 236.493 42.2056 236.59 42.2233C236.696 42.2321 236.793 42.2497 236.881 42.2762L236.855 43.2552C236.652 43.1847 236.418 43.1494 236.153 43.1494C235.695 43.1494 235.324 43.2508 235.042 43.4537C234.769 43.6565 234.566 43.9167 234.434 44.2343C234.31 44.543 234.248 44.8693 234.248 45.2133V49.0104H233.177ZM242.763 48.2166C242.471 48.49 242.097 48.7061 241.638 48.8648C241.188 49.0236 240.725 49.103 240.249 49.103C239.561 49.103 238.965 48.9663 238.463 48.6929C237.969 48.4194 237.585 48.0269 237.312 47.5154C237.047 46.995 236.915 46.3776 236.915 45.6631C236.915 44.9752 237.047 44.371 237.312 43.8506C237.576 43.3302 237.942 42.9245 238.41 42.6334C238.886 42.3423 239.433 42.1968 240.05 42.1968C240.641 42.1968 241.148 42.3291 241.572 42.5937C241.995 42.8495 242.317 43.2199 242.538 43.705C242.767 44.1902 242.882 44.7723 242.882 45.4514V45.6499H237.854V44.9487H242.273L241.929 45.4382C241.947 44.662 241.792 44.0667 241.466 43.6521C241.148 43.2376 240.681 43.0303 240.064 43.0303C239.42 43.0303 238.913 43.2596 238.542 43.7183C238.18 44.1681 238 44.7943 238 45.597C238 46.4613 238.189 47.114 238.569 47.555C238.957 47.9961 239.521 48.2166 240.262 48.2166C240.65 48.2166 241.021 48.1548 241.373 48.0313C241.735 47.899 242.079 47.7006 242.405 47.436L242.763 48.2166ZM246.532 49.103C245.941 49.103 245.421 48.9663 244.971 48.6929C244.53 48.4106 244.186 48.0137 243.939 47.5021C243.701 46.9817 243.582 46.3731 243.582 45.6764C243.582 44.9796 243.706 44.371 243.953 43.8506C244.199 43.3302 244.543 42.9245 244.984 42.6334C245.434 42.3423 245.95 42.1968 246.532 42.1968C247.141 42.1968 247.657 42.3467 248.08 42.6466C248.504 42.9465 248.79 43.3743 248.94 43.93L248.782 44.0358V42.3556H249.84V49.0104H248.782V47.2904L248.94 47.3698C248.79 47.9255 248.504 48.3533 248.08 48.6532C247.657 48.953 247.141 49.103 246.532 49.103ZM246.744 48.2166C247.397 48.2166 247.9 47.9961 248.252 47.555C248.605 47.1052 248.782 46.4702 248.782 45.6499C248.782 44.8296 248.601 44.199 248.239 43.758C247.886 43.317 247.388 43.0965 246.744 43.0965C246.091 43.0965 245.58 43.3258 245.209 43.7844C244.848 44.2343 244.667 44.8649 244.667 45.6764C244.667 46.4878 244.848 47.114 245.209 47.555C245.58 47.9961 246.091 48.2166 246.744 48.2166ZM257.244 49.0104H256.185V47.2243L256.344 47.3698C256.194 47.9255 255.907 48.3533 255.484 48.6532C255.061 48.953 254.545 49.103 253.936 49.103C253.354 49.103 252.838 48.9619 252.388 48.6796C251.947 48.3886 251.603 47.9828 251.356 47.4624C251.109 46.9332 250.986 46.3202 250.986 45.6234C250.986 44.9266 251.105 44.3225 251.343 43.8109C251.59 43.2993 251.934 42.9024 252.375 42.6202C252.825 42.3379 253.345 42.1968 253.936 42.1968C254.545 42.1968 255.061 42.3512 255.484 42.6599C255.907 42.9597 256.194 43.3831 256.344 43.93L256.172 44.0623V39.2729H257.244V49.0104ZM254.148 48.2166C254.792 48.2166 255.29 47.9961 255.643 47.555C256.004 47.1052 256.185 46.4702 256.185 45.6499C256.185 44.8384 256.009 44.2122 255.656 43.7712C255.303 43.3214 254.801 43.0965 254.148 43.0965C253.495 43.0965 252.984 43.317 252.613 43.758C252.252 44.199 252.071 44.8208 252.071 45.6234C252.071 46.4437 252.252 47.0832 252.613 47.5418C252.984 47.9916 253.495 48.2166 254.148 48.2166Z" fill="#0066F5"/>
<defs>
<filter id="filter0_d" x="0.0996571" y="0.0996571" width="312.801" height="182.388" filterUnits="userSpaceOnUse" color-interpolation-filters="sRGB">
<feFlood flood-opacity="0" result="BackgroundImageFix"/>
<feColorMatrix in="SourceAlpha" type="matrix" values="0 0 0 0 0 0 0 0 0 0 0 0 0 0 0 0 0 0 127 0"/>
<feOffset/>
<feGaussianBlur stdDeviation="9.45017"/>
<feColorMatrix type="matrix" values="0 0 0 0 0 0 0 0 0 0 0 0 0 0 0 0 0 0 0.1 0"/>
<feBlend mode="normal" in2="BackgroundImageFix" result="effect1_dropShadow"/>
<feBlend mode="normal" in="SourceGraphic" in2="effect1_dropShadow" result="shape"/>
</filter>
</defs>
</svg>
