<svg width="143" height="86" viewBox="0 0 143 86" fill="none" xmlns="http://www.w3.org/2000/svg">
<g clip-path="url(#clip0)">
<rect y="0.889526" width="143" height="84.2209" rx="17.546" fill="#1B2CC1"/>
<path d="M21.9747 54.3541H18.5918V53.1469H26.8174V54.3541H23.4345V63.1411H21.9747V54.3541ZM32.702 56.0666V63.1411H31.2983V61.9339C31.0924 62.3551 30.7836 62.6779 30.3718 62.9025C29.9695 63.1271 29.4969 63.2394 28.9541 63.2394C28.3272 63.2394 27.775 63.0896 27.2978 62.7902C26.8299 62.4907 26.4649 62.0696 26.2029 61.5269C25.9409 60.9748 25.8099 60.3338 25.8099 59.6038C25.8099 58.8739 25.9409 58.2282 26.2029 57.6668C26.4743 57.1053 26.8486 56.6701 27.3259 56.3613C27.8031 56.0525 28.3459 55.8981 28.9541 55.8981C29.4969 55.8981 29.9695 56.0151 30.3718 56.249C30.7742 56.4736 31.083 56.7965 31.2983 57.2176V56.0666H32.702ZM29.291 62.1164C29.9273 62.1164 30.4186 61.8965 30.7649 61.4567C31.1205 61.0075 31.2983 60.3805 31.2983 59.5758C31.2983 58.7616 31.1205 58.1347 30.7649 57.6948C30.4186 57.255 29.9227 57.0351 29.277 57.0351C28.6406 57.0351 28.14 57.2644 27.775 57.7229C27.4194 58.1721 27.2416 58.7991 27.2416 59.6038C27.2416 60.3993 27.4194 61.0169 27.775 61.4567C28.14 61.8965 28.6453 62.1164 29.291 62.1164ZM34.0828 52.81H35.4865V63.1411H34.0828V52.81ZM41.6493 63.1411L38.2665 59.8004V63.1411H36.8628V52.81H38.2665V59.267L41.4107 56.0806H43.1653L39.7824 59.4775L43.4601 63.1411H41.6493ZM48.4972 57.1614V60.7127C48.4972 61.1994 48.6001 61.5456 48.806 61.7515C49.0212 61.948 49.316 62.0462 49.6903 62.0462C49.9336 62.0462 50.1816 62.0088 50.4343 61.9339V63.085C50.1255 63.1879 49.7746 63.2394 49.3815 63.2394C48.6516 63.2394 48.0855 63.0335 47.6831 62.6218C47.2807 62.21 47.0795 61.6111 47.0795 60.825V57.1614H45.7039V56.0666H47.0795V54.2979L48.4972 53.8066V56.0666H50.4483V57.1614H48.4972ZM54.1018 63.2394C53.4094 63.2394 52.8011 63.0896 52.2771 62.7902C51.753 62.4907 51.3459 62.065 51.0559 61.5128C50.7751 60.9607 50.6347 60.315 50.6347 59.5758C50.6347 58.8365 50.7751 58.1908 51.0559 57.6387C51.3459 57.0772 51.753 56.6467 52.2771 56.3473C52.8011 56.0478 53.4094 55.8981 54.1018 55.8981C54.785 55.8981 55.3885 56.0478 55.9126 56.3473C56.4366 56.6467 56.839 57.0772 57.1198 57.6387C57.4098 58.1908 57.5549 58.8365 57.5549 59.5758C57.5549 60.315 57.4098 60.9607 57.1198 61.5128C56.839 62.065 56.4366 62.4907 55.9126 62.7902C55.3885 63.0896 54.785 63.2394 54.1018 63.2394ZM54.0878 62.1164C54.7429 62.1164 55.2435 61.9012 55.5897 61.4707C55.936 61.0403 56.1091 60.4086 56.1091 59.5758C56.1091 58.7616 55.9313 58.1347 55.5757 57.6948C55.2295 57.255 54.7382 57.0351 54.1018 57.0351C53.4561 57.0351 52.9555 57.255 52.5999 57.6948C52.2443 58.1347 52.0665 58.7616 52.0665 59.5758C52.0665 60.4086 52.2396 61.0403 52.5859 61.4707C52.9415 61.9012 53.4421 62.1164 54.0878 62.1164ZM68.0215 56.0666V63.1411H66.6178V61.9339C66.412 62.3551 66.1032 62.6779 65.6914 62.9025C65.289 63.1271 64.8165 63.2394 64.2737 63.2394C63.6467 63.2394 63.0946 63.0896 62.6174 62.7902C62.1495 62.4907 61.7845 62.0696 61.5225 61.5269C61.2605 60.9748 61.1295 60.3338 61.1295 59.6038C61.1295 58.8739 61.2605 58.2282 61.5225 57.6668C61.7939 57.1053 62.1682 56.6701 62.6454 56.3613C63.1227 56.0525 63.6654 55.8981 64.2737 55.8981C64.8165 55.8981 65.289 56.0151 65.6914 56.249C66.0938 56.4736 66.4026 56.7965 66.6178 57.2176V56.0666H68.0215ZM64.6106 62.1164C65.2469 62.1164 65.7382 61.8965 66.0845 61.4567C66.4401 61.0075 66.6178 60.3805 66.6178 59.5758C66.6178 58.7616 66.4401 58.1347 66.0845 57.6948C65.7382 57.255 65.2422 57.0351 64.5965 57.0351C63.9602 57.0351 63.4596 57.2644 63.0946 57.7229C62.739 58.1721 62.5612 58.7991 62.5612 59.6038C62.5612 60.3993 62.739 61.0169 63.0946 61.4567C63.4596 61.8965 63.9649 62.1164 64.6106 62.1164ZM78.9138 52.81V63.1411H77.5101V61.9339C77.3042 62.3551 76.9954 62.6779 76.5837 62.9025C76.1813 63.1271 75.7087 63.2394 75.1659 63.2394C74.5577 63.2394 74.0149 63.085 73.5377 62.7762C73.0604 62.4673 72.6861 62.0369 72.4147 61.4848C72.1527 60.9233 72.0217 60.2776 72.0217 59.5477C72.0217 58.8178 72.1527 58.1768 72.4147 57.6246C72.6767 57.0725 73.0417 56.6467 73.5096 56.3473C73.9868 56.0478 74.539 55.8981 75.1659 55.8981C75.6993 55.8981 76.1672 56.0104 76.5696 56.235C76.9814 56.4596 77.2902 56.7778 77.496 57.1895V52.81H78.9138ZM75.4888 62.1164C76.1345 62.1164 76.6304 61.8965 76.9767 61.4567C77.3323 61.0075 77.5101 60.3805 77.5101 59.5758C77.5101 58.771 77.3323 58.1487 76.9767 57.7089C76.6304 57.2597 76.1392 57.0351 75.5028 57.0351C74.8571 57.0351 74.3518 57.255 73.9868 57.6948C73.6312 58.1347 73.4534 58.7523 73.4534 59.5477C73.4534 60.3525 73.6312 60.9841 73.9868 61.4427C74.3518 61.8918 74.8524 62.1164 75.4888 62.1164ZM83.3406 63.2394C82.6481 63.2394 82.0399 63.0896 81.5158 62.7902C80.9918 62.4907 80.5847 62.065 80.2946 61.5128C80.0139 60.9607 79.8735 60.315 79.8735 59.5758C79.8735 58.8365 80.0139 58.1908 80.2946 57.6387C80.5847 57.0772 80.9918 56.6467 81.5158 56.3473C82.0399 56.0478 82.6481 55.8981 83.3406 55.8981C84.0237 55.8981 84.6273 56.0478 85.1514 56.3473C85.6754 56.6467 86.0778 57.0772 86.3585 57.6387C86.6486 58.1908 86.7937 58.8365 86.7937 59.5758C86.7937 60.315 86.6486 60.9607 86.3585 61.5128C86.0778 62.065 85.6754 62.4907 85.1514 62.7902C84.6273 63.0896 84.0237 63.2394 83.3406 63.2394ZM83.3266 62.1164C83.9816 62.1164 84.4823 61.9012 84.8285 61.4707C85.1748 61.0403 85.3479 60.4086 85.3479 59.5758C85.3479 58.7616 85.1701 58.1347 84.8145 57.6948C84.4682 57.255 83.977 57.0351 83.3406 57.0351C82.6949 57.0351 82.1943 57.255 81.8387 57.6948C81.4831 58.1347 81.3053 58.7616 81.3053 59.5758C81.3053 60.4086 81.4784 61.0403 81.8246 61.4707C82.1802 61.9012 82.6809 62.1164 83.3266 62.1164ZM90.823 63.2394C90.1118 63.2394 89.4895 63.0896 88.9561 62.7902C88.4321 62.4907 88.0297 62.0696 87.749 61.5269C87.4682 60.9748 87.3278 60.3338 87.3278 59.6038C87.3278 58.8739 87.4729 58.2282 87.763 57.6668C88.0624 57.1053 88.4789 56.6701 89.0123 56.3613C89.5457 56.0525 90.168 55.8981 90.8792 55.8981C91.3751 55.8981 91.8524 55.9823 92.3109 56.1508C92.7695 56.3099 93.1391 56.5298 93.4198 56.8105L92.9847 57.8352C92.3203 57.3112 91.6512 57.0491 90.9774 57.0491C90.2943 57.0491 89.7609 57.2737 89.3772 57.7229C88.9935 58.1627 88.8017 58.785 88.8017 59.5898C88.8017 60.3946 88.9935 61.0169 89.3772 61.4567C89.7609 61.8872 90.2943 62.1024 90.9774 62.1024C91.6699 62.1024 92.339 61.8404 92.9847 61.3163L93.4198 62.341C93.1204 62.6218 92.7367 62.8417 92.2688 63.0007C91.8103 63.1598 91.3283 63.2394 90.823 63.2394ZM95.918 57.1614V60.7127C95.918 61.1994 96.021 61.5456 96.2269 61.7515C96.4421 61.948 96.7369 62.0462 97.1112 62.0462C97.3545 62.0462 97.6025 62.0088 97.8551 61.9339V63.085C97.5463 63.1879 97.1954 63.2394 96.8024 63.2394C96.0724 63.2394 95.5063 63.0335 95.1039 62.6218C94.7015 62.21 94.5003 61.6111 94.5003 60.825V57.1614H93.1247V56.0666H94.5003V54.2979L95.918 53.8066V56.0666H97.8692V57.1614H95.918ZM101.523 63.2394C100.83 63.2394 100.222 63.0896 99.6979 62.7902C99.1739 62.4907 98.7668 62.065 98.4767 61.5128C98.196 60.9607 98.0556 60.315 98.0556 59.5758C98.0556 58.8365 98.196 58.1908 98.4767 57.6387C98.7668 57.0772 99.1739 56.6467 99.6979 56.3473C100.222 56.0478 100.83 55.8981 101.523 55.8981C102.206 55.8981 102.809 56.0478 103.333 56.3473C103.857 56.6467 104.26 57.0772 104.541 57.6387C104.831 58.1908 104.976 58.8365 104.976 59.5758C104.976 60.315 104.831 60.9607 104.541 61.5128C104.26 62.065 103.857 62.4907 103.333 62.7902C102.809 63.0896 102.206 63.2394 101.523 63.2394ZM101.509 62.1164C102.164 62.1164 102.664 61.9012 103.011 61.4707C103.357 61.0403 103.53 60.4086 103.53 59.5758C103.53 58.7616 103.352 58.1347 102.997 57.6948C102.65 57.255 102.159 57.0351 101.523 57.0351C100.877 57.0351 100.376 57.255 100.021 57.6948C99.6651 58.1347 99.4873 58.7616 99.4873 59.5758C99.4873 60.4086 99.6605 61.0403 100.007 61.4707C100.362 61.9012 100.863 62.1164 101.509 62.1164ZM109.454 55.8981C109.669 55.8981 109.894 55.9309 110.128 55.9964L110.1 57.2878C109.847 57.1942 109.571 57.1474 109.272 57.1474C108.626 57.1474 108.139 57.3439 107.812 57.7369C107.494 58.1206 107.335 58.6072 107.335 59.1968V63.1411H105.931V58.0598C105.931 57.3205 105.894 56.6561 105.819 56.0666H107.138L107.265 57.3439C107.452 56.876 107.742 56.5204 108.135 56.2771C108.528 56.0245 108.968 55.8981 109.454 55.8981Z" fill="white"/>
<circle cx="0.877395" cy="24.5767" r="7.89571" fill="#8F99FF"/>
<path d="M101.798 15.3604C101.798 15.3604 102.373 16.9462 103.848 19.9615V19.9773C105.32 22.9971 106.294 24.3608 106.294 24.3608C107.259 25.3893 108.902 25.8628 110.628 25.0201C111.589 24.5534 111.405 23.4683 110.531 21.6764C110.531 21.6764 110.531 21.6764 110.531 21.665C109.747 20.0611 108.863 20.0181 108.265 20.5119C108.069 20.6695 107.894 20.8515 107.744 21.0534C107.744 21.0534 107.402 21.6197 106.075 18.899C104.747 16.1782 105.291 16.3277 105.291 16.3277C105.537 16.3826 105.789 16.4009 106.041 16.3821C106.793 16.2235 107.386 15.4488 106.519 13.6954V13.684C105.647 11.8921 104.906 11.0788 103.943 11.5478C102.518 12.2342 101.582 13.9649 101.798 15.3604Z" stroke="white" stroke-width="0.877301" stroke-miterlimit="10"/>
</g>
<defs>
<clipPath id="clip0">
<rect y="0.889526" width="143" height="84.2209" fill="white"/>
</clipPath>
</defs>
</svg>
