<svg width="331" height="193" viewBox="0 0 331 193" fill="none" xmlns="http://www.w3.org/2000/svg">
<g filter="url(#filter0_d)">
<rect x="20" y="20" width="291" height="153" rx="20" fill="white"/>
</g>
<path d="M53.2 68.992H44.848L43.12 73H40L47.728 55.912H50.248L58 73H54.904L53.2 68.992ZM52.168 66.592L49.024 59.272L45.88 66.592H52.168ZM70.264 55.336V73H67.312V71.056C66.944 71.728 66.416 72.256 65.728 72.64C65.04 73.008 64.256 73.192 63.376 73.192C62.336 73.192 61.408 72.928 60.592 72.4C59.776 71.872 59.136 71.128 58.672 70.168C58.224 69.192 58 68.08 58 66.832C58 65.584 58.224 64.488 58.672 63.544C59.12 62.6 59.752 61.872 60.568 61.36C61.384 60.832 62.32 60.568 63.376 60.568C64.24 60.568 65.008 60.752 65.68 61.12C66.368 61.472 66.896 61.976 67.264 62.632V55.336H70.264ZM64.168 70.84C65.16 70.84 65.928 70.496 66.472 69.808C67.032 69.12 67.312 68.144 67.312 66.88C67.312 65.616 67.04 64.64 66.496 63.952C65.952 63.264 65.184 62.92 64.192 62.92C63.184 62.92 62.4 63.264 61.84 63.952C61.296 64.624 61.024 65.584 61.024 66.832C61.024 68.096 61.296 69.08 61.84 69.784C62.4 70.488 63.176 70.84 64.168 70.84ZM84.1634 55.336V73H81.2114V71.056C80.8434 71.728 80.3154 72.256 79.6274 72.64C78.9394 73.008 78.1554 73.192 77.2754 73.192C76.2354 73.192 75.3074 72.928 74.4914 72.4C73.6754 71.872 73.0354 71.128 72.5714 70.168C72.1234 69.192 71.8994 68.08 71.8994 66.832C71.8994 65.584 72.1234 64.488 72.5714 63.544C73.0194 62.6 73.6514 61.872 74.4674 61.36C75.2834 60.832 76.2194 60.568 77.2754 60.568C78.1394 60.568 78.9074 60.752 79.5794 61.12C80.2674 61.472 80.7954 61.976 81.1634 62.632V55.336H84.1634ZM78.0674 70.84C79.0594 70.84 79.8274 70.496 80.3714 69.808C80.9314 69.12 81.2114 68.144 81.2114 66.88C81.2114 65.616 80.9394 64.64 80.3954 63.952C79.8514 63.264 79.0834 62.92 78.0914 62.92C77.0834 62.92 76.2994 63.264 75.7394 63.952C75.1954 64.624 74.9234 65.584 74.9234 66.832C74.9234 68.096 75.1954 69.08 75.7394 69.784C76.2994 70.488 77.0754 70.84 78.0674 70.84ZM103.689 60.88V73H100.737V71.056C100.369 71.728 99.8407 72.256 99.1527 72.64C98.4647 73.008 97.6807 73.192 96.8007 73.192C95.7447 73.192 94.8087 72.936 93.9927 72.424C93.1767 71.912 92.5447 71.184 92.0967 70.24C91.6487 69.296 91.4247 68.2 91.4247 66.952C91.4247 65.704 91.6487 64.6 92.0967 63.64C92.5607 62.664 93.2007 61.912 94.0167 61.384C94.8327 60.84 95.7607 60.568 96.8007 60.568C97.6807 60.568 98.4647 60.76 99.1527 61.144C99.8407 61.512 100.369 62.032 100.737 62.704V60.88H103.689ZM97.6167 70.84C98.6087 70.84 99.3767 70.496 99.9207 69.808C100.465 69.12 100.737 68.152 100.737 66.904C100.737 65.624 100.465 64.64 99.9207 63.952C99.3767 63.264 98.6007 62.92 97.5927 62.92C96.6007 62.92 95.8247 63.28 95.2647 64C94.7207 64.704 94.4487 65.688 94.4487 66.952C94.4487 68.2 94.7207 69.16 95.2647 69.832C95.8247 70.504 96.6087 70.84 97.6167 70.84ZM117.358 57.712C116.062 57.712 115.414 58.424 115.414 59.848V60.88H118.126V63.136H115.414V73H112.414V63.136H110.11V60.88H112.414V59.704C112.414 58.264 112.774 57.16 113.494 56.392C114.23 55.608 115.278 55.216 116.638 55.216C117.39 55.216 118.022 55.312 118.534 55.504V57.88C118.086 57.768 117.694 57.712 117.358 57.712ZM130.949 60.88V73H127.997V71.056C127.629 71.728 127.101 72.256 126.413 72.64C125.725 73.008 124.941 73.192 124.061 73.192C123.005 73.192 122.069 72.936 121.253 72.424C120.437 71.912 119.805 71.184 119.357 70.24C118.909 69.296 118.685 68.2 118.685 66.952C118.685 65.704 118.909 64.6 119.357 63.64C119.821 62.664 120.461 61.912 121.277 61.384C122.093 60.84 123.021 60.568 124.061 60.568C124.941 60.568 125.725 60.76 126.413 61.144C127.101 61.512 127.629 62.032 127.997 62.704V60.88H130.949ZM124.877 70.84C125.869 70.84 126.637 70.496 127.181 69.808C127.725 69.12 127.997 68.152 127.997 66.904C127.997 65.624 127.725 64.64 127.181 63.952C126.637 63.264 125.861 62.92 124.853 62.92C123.861 62.92 123.085 63.28 122.525 64C121.981 64.704 121.709 65.688 121.709 66.952C121.709 68.2 121.981 69.16 122.525 69.832C123.085 70.504 123.869 70.84 124.877 70.84ZM147.561 60.568C148.937 60.568 149.961 60.984 150.633 61.816C151.305 62.632 151.641 63.88 151.641 65.56V73H148.641V65.656C148.641 64.696 148.481 64.008 148.161 63.592C147.857 63.16 147.345 62.944 146.625 62.944C145.793 62.944 145.137 63.24 144.657 63.832C144.193 64.408 143.961 65.208 143.961 66.232V73H140.961V65.656C140.961 64.712 140.793 64.024 140.457 63.592C140.137 63.16 139.625 62.944 138.921 62.944C138.089 62.944 137.433 63.24 136.953 63.832C136.473 64.408 136.233 65.208 136.233 66.232V73H133.257V64.312C133.257 63.032 133.193 61.888 133.065 60.88H135.873L136.089 62.8C136.441 62.08 136.945 61.528 137.601 61.144C138.273 60.76 139.041 60.568 139.905 60.568C141.761 60.568 142.969 61.336 143.529 62.872C143.913 62.152 144.457 61.592 145.161 61.192C145.881 60.776 146.681 60.568 147.561 60.568ZM153.883 60.88H156.859V73H153.883V60.88ZM157.027 55.384V58.336H153.691V55.384H157.027ZM159.18 55.336H162.156V73H159.18V55.336ZM175.95 60.88L170.31 73.816C169.67 75.32 168.854 76.416 167.862 77.104C166.87 77.792 165.646 78.248 164.19 78.472L163.518 76.168C164.654 75.912 165.502 75.584 166.062 75.184C166.638 74.8 167.102 74.224 167.454 73.456L167.838 72.568L162.798 60.88H165.942L169.422 69.592L172.974 60.88H175.95ZM58.504 85.912V103H55.768V92.392L51.232 103H49.192L44.632 92.512V103H41.896V85.912H44.344L50.224 99.28L56.056 85.912H58.504ZM71.6706 97.096H63.3186C63.3826 98.392 63.7026 99.352 64.2786 99.976C64.8706 100.584 65.7426 100.888 66.8946 100.888C68.2226 100.888 69.4546 100.456 70.5906 99.592L71.4546 101.656C70.8786 102.12 70.1666 102.496 69.3186 102.784C68.4866 103.056 67.6386 103.192 66.7746 103.192C64.7906 103.192 63.2306 102.632 62.0946 101.512C60.9586 100.392 60.3906 98.856 60.3906 96.904C60.3906 95.672 60.6386 94.576 61.1346 93.616C61.6306 92.656 62.3266 91.912 63.2226 91.384C64.1186 90.84 65.1346 90.568 66.2706 90.568C67.9346 90.568 69.2466 91.112 70.2066 92.2C71.1826 93.272 71.6706 94.752 71.6706 96.64V97.096ZM66.3426 92.728C65.5426 92.728 64.8866 92.968 64.3746 93.448C63.8786 93.912 63.5586 94.592 63.4146 95.488H69.0546C68.9586 94.576 68.6786 93.888 68.2146 93.424C67.7666 92.96 67.1426 92.728 66.3426 92.728ZM87.5551 90.568C88.9311 90.568 89.9551 90.984 90.6271 91.816C91.2991 92.632 91.6351 93.88 91.6351 95.56V103H88.6351V95.656C88.6351 94.696 88.4751 94.008 88.1551 93.592C87.8511 93.16 87.3391 92.944 86.6191 92.944C85.7871 92.944 85.1311 93.24 84.6511 93.832C84.1871 94.408 83.9551 95.208 83.9551 96.232V103H80.9551V95.656C80.9551 94.712 80.7871 94.024 80.4511 93.592C80.1311 93.16 79.6191 92.944 78.9151 92.944C78.0831 92.944 77.4271 93.24 76.9471 93.832C76.4671 94.408 76.2271 95.208 76.2271 96.232V103H73.2511V94.312C73.2511 93.032 73.1871 91.888 73.0591 90.88H75.8671L76.0831 92.8C76.4351 92.08 76.9391 91.528 77.5951 91.144C78.2671 90.76 79.0351 90.568 79.8991 90.568C81.7551 90.568 82.9631 91.336 83.5231 92.872C83.9071 92.152 84.4511 91.592 85.1551 91.192C85.8751 90.776 86.6751 90.568 87.5551 90.568ZM100.789 90.568C101.845 90.568 102.773 90.832 103.573 91.36C104.389 91.872 105.021 92.6 105.469 93.544C105.917 94.488 106.141 95.584 106.141 96.832C106.141 98.08 105.909 99.192 105.445 100.168C104.997 101.128 104.365 101.872 103.549 102.4C102.749 102.928 101.829 103.192 100.789 103.192C99.893 103.192 99.093 103 98.389 102.616C97.701 102.232 97.181 101.696 96.829 101.008V103H93.877V85.336H96.853V92.704C97.221 92.032 97.749 91.512 98.437 91.144C99.125 90.76 99.909 90.568 100.789 90.568ZM99.997 100.84C100.989 100.84 101.757 100.488 102.301 99.784C102.845 99.08 103.117 98.096 103.117 96.832C103.117 95.584 102.845 94.624 102.301 93.952C101.757 93.264 100.981 92.92 99.973 92.92C98.965 92.92 98.189 93.264 97.645 93.952C97.101 94.64 96.829 95.616 96.829 96.88C96.829 98.16 97.101 99.144 97.645 99.832C98.189 100.504 98.973 100.84 99.997 100.84ZM118.408 97.096H110.056C110.12 98.392 110.44 99.352 111.016 99.976C111.608 100.584 112.48 100.888 113.632 100.888C114.96 100.888 116.192 100.456 117.328 99.592L118.192 101.656C117.616 102.12 116.904 102.496 116.056 102.784C115.224 103.056 114.376 103.192 113.512 103.192C111.528 103.192 109.968 102.632 108.832 101.512C107.696 100.392 107.128 98.856 107.128 96.904C107.128 95.672 107.376 94.576 107.872 93.616C108.368 92.656 109.064 91.912 109.96 91.384C110.856 90.84 111.872 90.568 113.008 90.568C114.672 90.568 115.984 91.112 116.944 92.2C117.92 93.272 118.408 94.752 118.408 96.64V97.096ZM113.08 92.728C112.28 92.728 111.624 92.968 111.112 93.448C110.616 93.912 110.296 94.592 110.152 95.488H115.792C115.696 94.576 115.416 93.888 114.952 93.424C114.504 92.96 113.88 92.728 113.08 92.728ZM126.516 90.592C126.98 90.592 127.38 90.656 127.716 90.784L127.692 93.52C127.18 93.312 126.652 93.208 126.108 93.208C125.084 93.208 124.3 93.504 123.756 94.096C123.228 94.688 122.964 95.472 122.964 96.448V103H119.988V94.312C119.988 93.032 119.924 91.888 119.796 90.88H122.604L122.844 93.016C123.148 92.232 123.628 91.632 124.284 91.216C124.94 90.8 125.684 90.592 126.516 90.592Z" fill="#1B2CC1"/>
<path d="M41.442 134H40.252L44.634 124.032H45.642L50.024 134H48.848L44.942 124.872H45.362L41.442 134ZM42.114 131.438L42.52 130.486H47.756L48.162 131.438H42.114ZM57.0152 134H55.8952V132.11L56.0632 132.264C55.9046 132.852 55.6012 133.305 55.1532 133.622C54.7052 133.939 54.1592 134.098 53.5152 134.098C52.8992 134.098 52.3532 133.949 51.8772 133.65C51.4106 133.342 51.0466 132.913 50.7852 132.362C50.5239 131.802 50.3932 131.153 50.3932 130.416C50.3932 129.679 50.5192 129.039 50.7712 128.498C51.0326 127.957 51.3966 127.537 51.8632 127.238C52.3392 126.939 52.8899 126.79 53.5152 126.79C54.1592 126.79 54.7052 126.953 55.1532 127.28C55.6012 127.597 55.9046 128.045 56.0632 128.624L55.8812 128.764V123.696H57.0152V134ZM53.7392 133.16C54.4206 133.16 54.9479 132.927 55.3212 132.46C55.7039 131.984 55.8952 131.312 55.8952 130.444C55.8952 129.585 55.7086 128.923 55.3352 128.456C54.9619 127.98 54.4299 127.742 53.7392 127.742C53.0486 127.742 52.5072 127.975 52.1152 128.442C51.7326 128.909 51.5412 129.567 51.5412 130.416C51.5412 131.284 51.7326 131.961 52.1152 132.446C52.5072 132.922 53.0486 133.16 53.7392 133.16ZM64.8498 134H63.7298V132.11L63.8978 132.264C63.7391 132.852 63.4358 133.305 62.9878 133.622C62.5398 133.939 61.9938 134.098 61.3498 134.098C60.7338 134.098 60.1878 133.949 59.7118 133.65C59.2451 133.342 58.8811 132.913 58.6198 132.362C58.3584 131.802 58.2278 131.153 58.2278 130.416C58.2278 129.679 58.3538 129.039 58.6058 128.498C58.8671 127.957 59.2311 127.537 59.6978 127.238C60.1738 126.939 60.7244 126.79 61.3498 126.79C61.9938 126.79 62.5398 126.953 62.9878 127.28C63.4358 127.597 63.7391 128.045 63.8978 128.624L63.7158 128.764V123.696H64.8498V134ZM61.5738 133.16C62.2551 133.16 62.7824 132.927 63.1558 132.46C63.5384 131.984 63.7298 131.312 63.7298 130.444C63.7298 129.585 63.5431 128.923 63.1698 128.456C62.7964 127.98 62.2644 127.742 61.5738 127.742C60.8831 127.742 60.3418 127.975 59.9498 128.442C59.5671 128.909 59.3758 129.567 59.3758 130.416C59.3758 131.284 59.5671 131.961 59.9498 132.446C60.3418 132.922 60.8831 133.16 61.5738 133.16ZM69.2367 137.178L68.9987 136.296C69.428 136.193 69.7874 136.072 70.0767 135.932C70.3754 135.801 70.6227 135.629 70.8187 135.414C71.024 135.199 71.2014 134.915 71.3507 134.56L71.7987 133.524L72.0507 133.174L74.6267 126.958H75.7607L72.4707 134.644C72.2187 135.213 71.934 135.666 71.6167 136.002C71.2994 136.347 70.94 136.609 70.5387 136.786C70.1467 136.963 69.7127 137.094 69.2367 137.178ZM71.8127 134.364L68.6487 126.958H69.8387L72.3867 133.174L71.8127 134.364ZM79.2802 134.098C78.6082 134.098 78.0202 133.949 77.5162 133.65C77.0215 133.351 76.6342 132.931 76.3542 132.39C76.0835 131.839 75.9482 131.191 75.9482 130.444C75.9482 129.707 76.0835 129.063 76.3542 128.512C76.6342 127.961 77.0215 127.537 77.5162 127.238C78.0202 126.939 78.6082 126.79 79.2802 126.79C79.9522 126.79 80.5355 126.939 81.0302 127.238C81.5342 127.537 81.9215 127.961 82.1922 128.512C82.4722 129.063 82.6122 129.707 82.6122 130.444C82.6122 131.191 82.4722 131.839 82.1922 132.39C81.9215 132.931 81.5342 133.351 81.0302 133.65C80.5355 133.949 79.9522 134.098 79.2802 134.098ZM79.2802 133.16C79.9708 133.16 80.5028 132.931 80.8762 132.474C81.2588 132.007 81.4502 131.331 81.4502 130.444C81.4502 129.576 81.2588 128.909 80.8762 128.442C80.4935 127.975 79.9615 127.742 79.2802 127.742C78.5988 127.742 78.0622 127.975 77.6702 128.442C77.2875 128.909 77.0962 129.576 77.0962 130.444C77.0962 131.331 77.2828 132.007 77.6562 132.474C78.0388 132.931 78.5802 133.16 79.2802 133.16ZM86.3119 134.098C85.4719 134.098 84.8372 133.865 84.4079 133.398C83.9879 132.931 83.7779 132.241 83.7779 131.326V126.958H84.9119V131.298C84.9119 131.933 85.0426 132.399 85.3039 132.698C85.5652 132.997 85.9619 133.146 86.4939 133.146C87.1192 133.146 87.6232 132.945 88.0059 132.544C88.3886 132.143 88.5799 131.606 88.5799 130.934V126.958H89.7139V134H88.6079V132.474L88.7759 132.39C88.5892 132.95 88.2719 133.375 87.8239 133.664C87.3852 133.953 86.8812 134.098 86.3119 134.098ZM91.34 134V128.932C91.34 128.605 91.3306 128.279 91.312 127.952C91.3026 127.616 91.2746 127.285 91.228 126.958H92.306L92.46 128.694L92.306 128.652C92.4366 128.036 92.7166 127.574 93.146 127.266C93.5846 126.949 94.0746 126.79 94.616 126.79C94.7373 126.79 94.8493 126.799 94.952 126.818C95.064 126.827 95.1666 126.846 95.26 126.874L95.232 127.91C95.0173 127.835 94.77 127.798 94.49 127.798C94.0046 127.798 93.6126 127.905 93.314 128.12C93.0246 128.335 92.81 128.61 92.67 128.946C92.5393 129.273 92.474 129.618 92.474 129.982V134H91.34ZM97.9486 127.854V126.958H102.177V127.854H97.9486ZM102.373 124.732C102.111 124.657 101.869 124.62 101.645 124.62C101.421 124.62 101.215 124.662 101.029 124.746C100.851 124.821 100.711 124.961 100.609 125.166C100.506 125.371 100.455 125.656 100.455 126.02V134H99.3206V125.88C99.3206 125.124 99.5073 124.564 99.8806 124.2C100.254 123.827 100.767 123.64 101.421 123.64C101.579 123.64 101.738 123.649 101.897 123.668C102.055 123.687 102.214 123.719 102.373 123.766V124.732ZM105.733 134.098C105.108 134.098 104.557 133.953 104.081 133.664C103.614 133.365 103.25 132.945 102.989 132.404C102.737 131.853 102.611 131.209 102.611 130.472C102.611 129.735 102.742 129.091 103.003 128.54C103.264 127.989 103.628 127.56 104.095 127.252C104.571 126.944 105.117 126.79 105.733 126.79C106.377 126.79 106.923 126.949 107.371 127.266C107.819 127.583 108.122 128.036 108.281 128.624L108.113 128.736V126.958H109.233V134H108.113V132.18L108.281 132.264C108.122 132.852 107.819 133.305 107.371 133.622C106.923 133.939 106.377 134.098 105.733 134.098ZM105.957 133.16C106.648 133.16 107.18 132.927 107.553 132.46C107.926 131.984 108.113 131.312 108.113 130.444C108.113 129.576 107.922 128.909 107.539 128.442C107.166 127.975 106.638 127.742 105.957 127.742C105.266 127.742 104.725 127.985 104.333 128.47C103.95 128.946 103.759 129.613 103.759 130.472C103.759 131.331 103.95 131.993 104.333 132.46C104.725 132.927 105.266 133.16 105.957 133.16ZM110.866 134V128.932C110.866 128.605 110.856 128.279 110.838 127.952C110.828 127.616 110.8 127.285 110.754 126.958H111.832L111.958 128.414L111.818 128.512C111.986 127.961 112.275 127.537 112.686 127.238C113.106 126.939 113.6 126.79 114.17 126.79C114.851 126.79 115.378 126.958 115.752 127.294C116.134 127.63 116.377 128.143 116.48 128.834L116.144 128.652C116.293 128.083 116.592 127.63 117.04 127.294C117.497 126.958 118.043 126.79 118.678 126.79C119.452 126.79 120.036 127.023 120.428 127.49C120.82 127.947 121.016 128.643 121.016 129.576V134H119.882V129.632C119.882 128.979 119.765 128.503 119.532 128.204C119.298 127.896 118.93 127.742 118.426 127.742C117.838 127.742 117.371 127.943 117.026 128.344C116.69 128.745 116.522 129.291 116.522 129.982V134H115.388V129.632C115.388 128.979 115.266 128.503 115.024 128.204C114.79 127.896 114.422 127.742 113.918 127.742C113.32 127.742 112.849 127.943 112.504 128.344C112.168 128.745 112 129.291 112 129.982V134H110.866ZM122.61 134V126.958H123.744V134H122.61ZM122.498 123.976H123.884V125.264H122.498V123.976ZM125.386 134V123.696H126.52V134H125.386ZM127.826 137.178L127.588 136.296C128.017 136.193 128.377 136.072 128.666 135.932C128.965 135.801 129.212 135.629 129.408 135.414C129.613 135.199 129.791 134.915 129.94 134.56L130.388 133.524L130.64 133.174L133.216 126.958H134.35L131.06 134.644C130.808 135.213 130.523 135.666 130.206 136.002C129.889 136.347 129.529 136.609 129.128 136.786C128.736 136.963 128.302 137.094 127.826 137.178ZM130.402 134.364L127.238 126.958H128.428L130.976 133.174L130.402 134.364ZM138.13 134V128.932C138.13 128.605 138.121 128.279 138.102 127.952C138.093 127.616 138.065 127.285 138.018 126.958H139.096L139.222 128.414L139.082 128.512C139.25 127.961 139.539 127.537 139.95 127.238C140.37 126.939 140.865 126.79 141.434 126.79C142.115 126.79 142.643 126.958 143.016 127.294C143.399 127.63 143.641 128.143 143.744 128.834L143.408 128.652C143.557 128.083 143.856 127.63 144.304 127.294C144.761 126.958 145.307 126.79 145.942 126.79C146.717 126.79 147.3 127.023 147.692 127.49C148.084 127.947 148.28 128.643 148.28 129.576V134H147.146V129.632C147.146 128.979 147.029 128.503 146.796 128.204C146.563 127.896 146.194 127.742 145.69 127.742C145.102 127.742 144.635 127.943 144.29 128.344C143.954 128.745 143.786 129.291 143.786 129.982V134H142.652V129.632C142.652 128.979 142.531 128.503 142.288 128.204C142.055 127.896 141.686 127.742 141.182 127.742C140.585 127.742 140.113 127.943 139.768 128.344C139.432 128.745 139.264 129.291 139.264 129.982V134H138.13ZM155.643 133.16C155.335 133.449 154.938 133.678 154.453 133.846C153.977 134.014 153.487 134.098 152.983 134.098C152.255 134.098 151.625 133.953 151.093 133.664C150.57 133.375 150.164 132.959 149.875 132.418C149.595 131.867 149.455 131.214 149.455 130.458C149.455 129.73 149.595 129.091 149.875 128.54C150.155 127.989 150.542 127.56 151.037 127.252C151.541 126.944 152.119 126.79 152.773 126.79C153.398 126.79 153.935 126.93 154.383 127.21C154.831 127.481 155.171 127.873 155.405 128.386C155.647 128.899 155.769 129.515 155.769 130.234V130.444H150.449V129.702H155.125L154.761 130.22C154.779 129.399 154.616 128.769 154.271 128.33C153.935 127.891 153.44 127.672 152.787 127.672C152.105 127.672 151.569 127.915 151.177 128.4C150.794 128.876 150.603 129.539 150.603 130.388C150.603 131.303 150.803 131.993 151.205 132.46C151.615 132.927 152.213 133.16 152.997 133.16C153.407 133.16 153.799 133.095 154.173 132.964C154.555 132.824 154.919 132.614 155.265 132.334L155.643 133.16ZM156.93 134V128.932C156.93 128.605 156.921 128.279 156.902 127.952C156.893 127.616 156.865 127.285 156.818 126.958H157.896L158.022 128.414L157.882 128.512C158.05 127.961 158.339 127.537 158.75 127.238C159.17 126.939 159.665 126.79 160.234 126.79C160.915 126.79 161.443 126.958 161.816 127.294C162.199 127.63 162.441 128.143 162.544 128.834L162.208 128.652C162.357 128.083 162.656 127.63 163.104 127.294C163.561 126.958 164.107 126.79 164.742 126.79C165.517 126.79 166.1 127.023 166.492 127.49C166.884 127.947 167.08 128.643 167.08 129.576V134H165.946V129.632C165.946 128.979 165.829 128.503 165.596 128.204C165.363 127.896 164.994 127.742 164.49 127.742C163.902 127.742 163.435 127.943 163.09 128.344C162.754 128.745 162.586 129.291 162.586 129.982V134H161.452V129.632C161.452 128.979 161.331 128.503 161.088 128.204C160.855 127.896 160.486 127.742 159.982 127.742C159.385 127.742 158.913 127.943 158.568 128.344C158.232 128.745 158.064 129.291 158.064 129.982V134H156.93ZM168.675 134V123.696H169.809V128.764L169.655 128.624C169.813 128.045 170.117 127.597 170.565 127.28C171.013 126.953 171.554 126.79 172.189 126.79C172.814 126.79 173.36 126.939 173.827 127.238C174.293 127.537 174.657 127.957 174.919 128.498C175.189 129.039 175.325 129.679 175.325 130.416C175.325 131.153 175.189 131.802 174.919 132.362C174.657 132.913 174.289 133.342 173.813 133.65C173.346 133.949 172.805 134.098 172.189 134.098C171.554 134.098 171.013 133.939 170.565 133.622C170.117 133.305 169.813 132.852 169.655 132.264L169.809 132.11V134H168.675ZM171.979 133.16C172.66 133.16 173.192 132.922 173.575 132.446C173.957 131.961 174.149 131.284 174.149 130.416C174.149 129.567 173.957 128.909 173.575 128.442C173.192 127.975 172.66 127.742 171.979 127.742C171.279 127.742 170.742 127.98 170.369 128.456C169.995 128.923 169.809 129.585 169.809 130.444C169.809 131.312 169.995 131.984 170.369 132.46C170.742 132.927 171.279 133.16 171.979 133.16ZM182.277 133.16C181.969 133.449 181.573 133.678 181.087 133.846C180.611 134.014 180.121 134.098 179.617 134.098C178.889 134.098 178.259 133.953 177.727 133.664C177.205 133.375 176.799 132.959 176.509 132.418C176.229 131.867 176.089 131.214 176.089 130.458C176.089 129.73 176.229 129.091 176.509 128.54C176.789 127.989 177.177 127.56 177.671 127.252C178.175 126.944 178.754 126.79 179.407 126.79C180.033 126.79 180.569 126.93 181.017 127.21C181.465 127.481 181.806 127.873 182.039 128.386C182.282 128.899 182.403 129.515 182.403 130.234V130.444H177.083V129.702H181.759L181.395 130.22C181.414 129.399 181.251 128.769 180.905 128.33C180.569 127.891 180.075 127.672 179.421 127.672C178.74 127.672 178.203 127.915 177.811 128.4C177.429 128.876 177.237 129.539 177.237 130.388C177.237 131.303 177.438 131.993 177.839 132.46C178.25 132.927 178.847 133.16 179.631 133.16C180.042 133.16 180.434 133.095 180.807 132.964C181.19 132.824 181.554 132.614 181.899 132.334L182.277 133.16ZM183.564 134V128.932C183.564 128.605 183.555 128.279 183.536 127.952C183.527 127.616 183.499 127.285 183.452 126.958H184.53L184.684 128.694L184.53 128.652C184.661 128.036 184.941 127.574 185.37 127.266C185.809 126.949 186.299 126.79 186.84 126.79C186.962 126.79 187.074 126.799 187.176 126.818C187.288 126.827 187.391 126.846 187.484 126.874L187.456 127.91C187.242 127.835 186.994 127.798 186.714 127.798C186.229 127.798 185.837 127.905 185.538 128.12C185.249 128.335 185.034 128.61 184.894 128.946C184.764 129.273 184.698 129.618 184.698 129.982V134H183.564ZM190.388 134.098C189.203 134.098 188.265 133.795 187.574 133.188L187.952 132.348C188.326 132.637 188.708 132.852 189.1 132.992C189.502 133.123 189.945 133.188 190.43 133.188C190.962 133.188 191.364 133.099 191.634 132.922C191.914 132.735 192.054 132.469 192.054 132.124C192.054 131.844 191.961 131.625 191.774 131.466C191.588 131.298 191.28 131.163 190.85 131.06L189.66 130.78C189.072 130.649 188.615 130.416 188.288 130.08C187.971 129.744 187.812 129.343 187.812 128.876C187.812 128.465 187.924 128.106 188.148 127.798C188.372 127.481 188.685 127.233 189.086 127.056C189.488 126.879 189.964 126.79 190.514 126.79C191.009 126.79 191.476 126.869 191.914 127.028C192.353 127.187 192.722 127.415 193.02 127.714L192.642 128.54C192.306 128.26 191.961 128.055 191.606 127.924C191.261 127.784 190.897 127.714 190.514 127.714C190.01 127.714 189.618 127.812 189.338 128.008C189.068 128.204 188.932 128.47 188.932 128.806C188.932 129.095 189.016 129.324 189.184 129.492C189.362 129.66 189.642 129.791 190.024 129.884L191.214 130.178C191.877 130.318 192.362 130.551 192.67 130.878C192.988 131.195 193.146 131.601 193.146 132.096C193.146 132.703 192.899 133.188 192.404 133.552C191.91 133.916 191.238 134.098 190.388 134.098ZM199.374 134L196.77 126.958H197.96L200.13 133.16H199.766L202.006 126.958H203L205.212 133.16H204.848L207.06 126.958H208.18L205.576 134H204.484L202.16 127.658H202.776L200.466 134H199.374ZM209.092 134V123.696H210.226V128.386L210.044 128.526C210.24 127.957 210.567 127.527 211.024 127.238C211.481 126.939 212.009 126.79 212.606 126.79C214.295 126.79 215.14 127.719 215.14 129.576V134H214.006V129.632C214.006 128.979 213.875 128.503 213.614 128.204C213.353 127.896 212.942 127.742 212.382 127.742C211.729 127.742 211.206 127.943 210.814 128.344C210.422 128.745 210.226 129.287 210.226 129.968V134H209.092ZM219.633 134.098C218.961 134.098 218.373 133.949 217.869 133.65C217.375 133.351 216.987 132.931 216.707 132.39C216.437 131.839 216.301 131.191 216.301 130.444C216.301 129.707 216.437 129.063 216.707 128.512C216.987 127.961 217.375 127.537 217.869 127.238C218.373 126.939 218.961 126.79 219.633 126.79C220.305 126.79 220.889 126.939 221.383 127.238C221.887 127.537 222.275 127.961 222.545 128.512C222.825 129.063 222.965 129.707 222.965 130.444C222.965 131.191 222.825 131.839 222.545 132.39C222.275 132.931 221.887 133.351 221.383 133.65C220.889 133.949 220.305 134.098 219.633 134.098ZM219.633 133.16C220.324 133.16 220.856 132.931 221.229 132.474C221.612 132.007 221.803 131.331 221.803 130.444C221.803 129.576 221.612 128.909 221.229 128.442C220.847 127.975 220.315 127.742 219.633 127.742C218.952 127.742 218.415 127.975 218.023 128.442C217.641 128.909 217.449 129.576 217.449 130.444C217.449 131.331 217.636 132.007 218.009 132.474C218.392 132.931 218.933 133.16 219.633 133.16ZM229.966 134.098C229.34 134.098 228.79 133.953 228.314 133.664C227.847 133.365 227.483 132.945 227.222 132.404C226.97 131.853 226.844 131.209 226.844 130.472C226.844 129.735 226.974 129.091 227.236 128.54C227.497 127.989 227.861 127.56 228.328 127.252C228.804 126.944 229.35 126.79 229.966 126.79C230.61 126.79 231.156 126.949 231.604 127.266C232.052 127.583 232.355 128.036 232.514 128.624L232.346 128.736V126.958H233.466V134H232.346V132.18L232.514 132.264C232.355 132.852 232.052 133.305 231.604 133.622C231.156 133.939 230.61 134.098 229.966 134.098ZM230.19 133.16C230.88 133.16 231.412 132.927 231.786 132.46C232.159 131.984 232.346 131.312 232.346 130.444C232.346 129.576 232.154 128.909 231.772 128.442C231.398 127.975 230.871 127.742 230.19 127.742C229.499 127.742 228.958 127.985 228.566 128.47C228.183 128.946 227.992 129.613 227.992 130.472C227.992 131.331 228.183 131.993 228.566 132.46C228.958 132.927 229.499 133.16 230.19 133.16ZM235.098 134V128.932C235.098 128.605 235.089 128.279 235.07 127.952C235.061 127.616 235.033 127.285 234.986 126.958H236.064L236.218 128.694L236.064 128.652C236.195 128.036 236.475 127.574 236.904 127.266C237.343 126.949 237.833 126.79 238.374 126.79C238.495 126.79 238.607 126.799 238.71 126.818C238.822 126.827 238.925 126.846 239.018 126.874L238.99 127.91C238.775 127.835 238.528 127.798 238.248 127.798C237.763 127.798 237.371 127.905 237.072 128.12C236.783 128.335 236.568 128.61 236.428 128.946C236.297 129.273 236.232 129.618 236.232 129.982V134H235.098ZM245.242 133.16C244.934 133.449 244.537 133.678 244.052 133.846C243.576 134.014 243.086 134.098 242.582 134.098C241.854 134.098 241.224 133.953 240.692 133.664C240.169 133.375 239.763 132.959 239.474 132.418C239.194 131.867 239.054 131.214 239.054 130.458C239.054 129.73 239.194 129.091 239.474 128.54C239.754 127.989 240.141 127.56 240.636 127.252C241.14 126.944 241.718 126.79 242.372 126.79C242.997 126.79 243.534 126.93 243.982 127.21C244.43 127.481 244.77 127.873 245.004 128.386C245.246 128.899 245.368 129.515 245.368 130.234V130.444H240.048V129.702H244.724L244.36 130.22C244.378 129.399 244.215 128.769 243.87 128.33C243.534 127.891 243.039 127.672 242.386 127.672C241.704 127.672 241.168 127.915 240.776 128.4C240.393 128.876 240.202 129.539 240.202 130.388C240.202 131.303 240.402 131.993 240.804 132.46C241.214 132.927 241.812 133.16 242.596 133.16C243.006 133.16 243.398 133.095 243.772 132.964C244.154 132.824 244.518 132.614 244.864 132.334L245.242 133.16ZM41.092 152V141.696H42.226V146.764L42.072 146.624C42.2307 146.045 42.534 145.597 42.982 145.28C43.43 144.953 43.9713 144.79 44.606 144.79C45.2313 144.79 45.7773 144.939 46.244 145.238C46.7107 145.537 47.0747 145.957 47.336 146.498C47.6067 147.039 47.742 147.679 47.742 148.416C47.742 149.153 47.6067 149.802 47.336 150.362C47.0747 150.913 46.706 151.342 46.23 151.65C45.7633 151.949 45.222 152.098 44.606 152.098C43.9713 152.098 43.43 151.939 42.982 151.622C42.534 151.305 42.2307 150.852 42.072 150.264L42.226 150.11V152H41.092ZM44.396 151.16C45.0773 151.16 45.6093 150.922 45.992 150.446C46.3747 149.961 46.566 149.284 46.566 148.416C46.566 147.567 46.3747 146.909 45.992 146.442C45.6093 145.975 45.0773 145.742 44.396 145.742C43.696 145.742 43.1593 145.98 42.786 146.456C42.4127 146.923 42.226 147.585 42.226 148.444C42.226 149.312 42.4127 149.984 42.786 150.46C43.1593 150.927 43.696 151.16 44.396 151.16ZM54.6945 151.16C54.3865 151.449 53.9899 151.678 53.5045 151.846C53.0285 152.014 52.5385 152.098 52.0345 152.098C51.3065 152.098 50.6765 151.953 50.1445 151.664C49.6219 151.375 49.2159 150.959 48.9265 150.418C48.6465 149.867 48.5065 149.214 48.5065 148.458C48.5065 147.73 48.6465 147.091 48.9265 146.54C49.2065 145.989 49.5939 145.56 50.0885 145.252C50.5925 144.944 51.1712 144.79 51.8245 144.79C52.4499 144.79 52.9865 144.93 53.4345 145.21C53.8825 145.481 54.2232 145.873 54.4565 146.386C54.6992 146.899 54.8205 147.515 54.8205 148.234V148.444H49.5005V147.702H54.1765L53.8125 148.22C53.8312 147.399 53.6679 146.769 53.3225 146.33C52.9865 145.891 52.4919 145.672 51.8385 145.672C51.1572 145.672 50.6205 145.915 50.2285 146.4C49.8459 146.876 49.6545 147.539 49.6545 148.388C49.6545 149.303 49.8552 149.993 50.2565 150.46C50.6672 150.927 51.2645 151.16 52.0485 151.16C52.4592 151.16 52.8512 151.095 53.2245 150.964C53.6072 150.824 53.9712 150.614 54.3165 150.334L54.6945 151.16ZM55.9818 152V141.696H57.1158V152H55.9818ZM61.6697 152.098C60.9977 152.098 60.4097 151.949 59.9057 151.65C59.411 151.351 59.0237 150.931 58.7437 150.39C58.473 149.839 58.3377 149.191 58.3377 148.444C58.3377 147.707 58.473 147.063 58.7437 146.512C59.0237 145.961 59.411 145.537 59.9057 145.238C60.4097 144.939 60.9977 144.79 61.6697 144.79C62.3417 144.79 62.925 144.939 63.4197 145.238C63.9237 145.537 64.311 145.961 64.5817 146.512C64.8617 147.063 65.0017 147.707 65.0017 148.444C65.0017 149.191 64.8617 149.839 64.5817 150.39C64.311 150.931 63.9237 151.351 63.4197 151.65C62.925 151.949 62.3417 152.098 61.6697 152.098ZM61.6697 151.16C62.3604 151.16 62.8924 150.931 63.2657 150.474C63.6484 150.007 63.8397 149.331 63.8397 148.444C63.8397 147.576 63.6484 146.909 63.2657 146.442C62.883 145.975 62.351 145.742 61.6697 145.742C60.9884 145.742 60.4517 145.975 60.0597 146.442C59.677 146.909 59.4857 147.576 59.4857 148.444C59.4857 149.331 59.6724 150.007 60.0457 150.474C60.4284 150.931 60.9697 151.16 61.6697 151.16ZM68.0174 152L65.4134 144.958H66.6034L68.7734 151.16H68.4094L70.6494 144.958H71.6434L73.8554 151.16H73.4914L75.7034 144.958H76.8234L74.2194 152H73.1274L70.8034 145.658H71.4194L69.1094 152H68.0174ZM79.8317 145.854V144.958H84.3537V145.854H79.8317ZM84.3257 150.992V151.958C84.1671 152.005 84.0084 152.037 83.8497 152.056C83.7004 152.084 83.5324 152.098 83.3457 152.098C82.6924 152.098 82.1697 151.911 81.7777 151.538C81.3951 151.165 81.2037 150.605 81.2037 149.858V143.152L82.3377 142.746V149.704C82.3377 150.077 82.3891 150.367 82.4917 150.572C82.6037 150.777 82.7531 150.922 82.9397 151.006C83.1264 151.081 83.3364 151.118 83.5697 151.118C83.7097 151.118 83.8357 151.109 83.9477 151.09C84.0597 151.071 84.1857 151.039 84.3257 150.992ZM85.1603 152V141.696H86.2943V146.386L86.1123 146.526C86.3083 145.957 86.6349 145.527 87.0923 145.238C87.5496 144.939 88.077 144.79 88.6743 144.79C90.3636 144.79 91.2083 145.719 91.2083 147.576V152H90.0743V147.632C90.0743 146.979 89.9436 146.503 89.6823 146.204C89.421 145.896 89.0103 145.742 88.4503 145.742C87.797 145.742 87.2743 145.943 86.8823 146.344C86.4903 146.745 86.2943 147.287 86.2943 147.968V152H85.1603ZM98.5577 151.16C98.2497 151.449 97.8531 151.678 97.3677 151.846C96.8917 152.014 96.4017 152.098 95.8977 152.098C95.1697 152.098 94.5397 151.953 94.0077 151.664C93.4851 151.375 93.0791 150.959 92.7897 150.418C92.5097 149.867 92.3697 149.214 92.3697 148.458C92.3697 147.73 92.5097 147.091 92.7897 146.54C93.0697 145.989 93.4571 145.56 93.9517 145.252C94.4557 144.944 95.0344 144.79 95.6877 144.79C96.3131 144.79 96.8497 144.93 97.2977 145.21C97.7457 145.481 98.0864 145.873 98.3197 146.386C98.5624 146.899 98.6837 147.515 98.6837 148.234V148.444H93.3637V147.702H98.0397L97.6757 148.22C97.6944 147.399 97.5311 146.769 97.1857 146.33C96.8497 145.891 96.3551 145.672 95.7017 145.672C95.0204 145.672 94.4837 145.915 94.0917 146.4C93.7091 146.876 93.5177 147.539 93.5177 148.388C93.5177 149.303 93.7184 149.993 94.1197 150.46C94.5304 150.927 95.1277 151.16 95.9117 151.16C96.3224 151.16 96.7144 151.095 97.0877 150.964C97.4704 150.824 97.8344 150.614 98.1797 150.334L98.5577 151.16ZM105.637 152.098C105.012 152.098 104.461 151.953 103.985 151.664C103.519 151.365 103.155 150.945 102.893 150.404C102.641 149.853 102.515 149.209 102.515 148.472C102.515 147.735 102.646 147.091 102.907 146.54C103.169 145.989 103.533 145.56 103.999 145.252C104.475 144.944 105.021 144.79 105.637 144.79C106.281 144.79 106.827 144.949 107.275 145.266C107.723 145.583 108.027 146.036 108.185 146.624L108.017 146.736V144.958H109.137V152H108.017V150.18L108.185 150.264C108.027 150.852 107.723 151.305 107.275 151.622C106.827 151.939 106.281 152.098 105.637 152.098ZM105.861 151.16C106.552 151.16 107.084 150.927 107.457 150.46C107.831 149.984 108.017 149.312 108.017 148.444C108.017 147.576 107.826 146.909 107.443 146.442C107.07 145.975 106.543 145.742 105.861 145.742C105.171 145.742 104.629 145.985 104.237 146.47C103.855 146.946 103.663 147.613 103.663 148.472C103.663 149.331 103.855 149.993 104.237 150.46C104.629 150.927 105.171 151.16 105.861 151.16ZM113.864 155.122C112.8 155.122 111.876 154.879 111.092 154.394L111.288 153.47C111.727 153.722 112.142 153.904 112.534 154.016C112.926 154.128 113.369 154.184 113.864 154.184C114.536 154.184 115.045 154.002 115.39 153.638C115.745 153.283 115.922 152.751 115.922 152.042V150.138L116.076 149.956C115.964 150.329 115.787 150.656 115.544 150.936C115.311 151.207 115.021 151.417 114.676 151.566C114.331 151.715 113.939 151.79 113.5 151.79C112.875 151.79 112.324 151.645 111.848 151.356C111.381 151.057 111.013 150.647 110.742 150.124C110.481 149.601 110.35 148.99 110.35 148.29C110.35 147.59 110.481 146.979 110.742 146.456C111.013 145.933 111.381 145.527 111.848 145.238C112.324 144.939 112.875 144.79 113.5 144.79C114.153 144.79 114.704 144.953 115.152 145.28C115.609 145.597 115.917 146.045 116.076 146.624L115.908 146.47V144.958H117.042V151.944C117.042 152.999 116.771 153.792 116.23 154.324C115.698 154.856 114.909 155.122 113.864 155.122ZM113.724 150.838C114.405 150.838 114.937 150.614 115.32 150.166C115.712 149.709 115.908 149.083 115.908 148.29C115.908 147.497 115.712 146.876 115.32 146.428C114.937 145.971 114.405 145.742 113.724 145.742C113.033 145.742 112.487 145.971 112.086 146.428C111.694 146.876 111.498 147.497 111.498 148.29C111.498 149.093 111.694 149.718 112.086 150.166C112.487 150.614 113.033 150.838 113.724 150.838ZM124.427 151.16C124.119 151.449 123.722 151.678 123.237 151.846C122.761 152.014 122.271 152.098 121.767 152.098C121.039 152.098 120.409 151.953 119.877 151.664C119.354 151.375 118.948 150.959 118.659 150.418C118.379 149.867 118.239 149.214 118.239 148.458C118.239 147.73 118.379 147.091 118.659 146.54C118.939 145.989 119.326 145.56 119.821 145.252C120.325 144.944 120.904 144.79 121.557 144.79C122.182 144.79 122.719 144.93 123.167 145.21C123.615 145.481 123.956 145.873 124.189 146.386C124.432 146.899 124.553 147.515 124.553 148.234V148.444H119.233V147.702H123.909L123.545 148.22C123.564 147.399 123.4 146.769 123.055 146.33C122.719 145.891 122.224 145.672 121.571 145.672C120.89 145.672 120.353 145.915 119.961 146.4C119.578 146.876 119.387 147.539 119.387 148.388C119.387 149.303 119.588 149.993 119.989 150.46C120.4 150.927 120.997 151.16 121.781 151.16C122.192 151.16 122.584 151.095 122.957 150.964C123.34 150.824 123.704 150.614 124.049 150.334L124.427 151.16ZM131.717 152.098C131.045 152.098 130.457 151.949 129.953 151.65C129.458 151.351 129.071 150.931 128.791 150.39C128.52 149.839 128.385 149.191 128.385 148.444C128.385 147.707 128.52 147.063 128.791 146.512C129.071 145.961 129.458 145.537 129.953 145.238C130.457 144.939 131.045 144.79 131.717 144.79C132.389 144.79 132.972 144.939 133.467 145.238C133.971 145.537 134.358 145.961 134.629 146.512C134.909 147.063 135.049 147.707 135.049 148.444C135.049 149.191 134.909 149.839 134.629 150.39C134.358 150.931 133.971 151.351 133.467 151.65C132.972 151.949 132.389 152.098 131.717 152.098ZM131.717 151.16C132.407 151.16 132.939 150.931 133.313 150.474C133.695 150.007 133.887 149.331 133.887 148.444C133.887 147.576 133.695 146.909 133.313 146.442C132.93 145.975 132.398 145.742 131.717 145.742C131.035 145.742 130.499 145.975 130.107 146.442C129.724 146.909 129.533 147.576 129.533 148.444C129.533 149.331 129.719 150.007 130.093 150.474C130.475 150.931 131.017 151.16 131.717 151.16ZM135.249 145.854V144.958H139.477V145.854H135.249ZM139.673 142.732C139.411 142.657 139.169 142.62 138.945 142.62C138.721 142.62 138.515 142.662 138.329 142.746C138.151 142.821 138.011 142.961 137.909 143.166C137.806 143.371 137.755 143.656 137.755 144.02V152H136.621V143.88C136.621 143.124 136.807 142.564 137.181 142.2C137.554 141.827 138.067 141.64 138.721 141.64C138.879 141.64 139.038 141.649 139.197 141.668C139.355 141.687 139.514 141.719 139.673 141.766V142.732ZM146.388 151.482V142.704L147.046 143.04L144.344 144.762V143.656L146.892 142.032H147.55V151.482H146.388ZM144.19 152V151.034H149.748V152H144.19ZM154.754 152.112C153.55 152.112 152.622 151.697 151.968 150.866C151.315 150.026 150.988 148.827 150.988 147.268C150.988 146.139 151.138 145.177 151.436 144.384C151.744 143.581 152.183 142.97 152.752 142.55C153.331 142.13 154.022 141.92 154.824 141.92C155.403 141.92 155.963 142.027 156.504 142.242C157.046 142.447 157.526 142.751 157.946 143.152L157.512 144.034C157.046 143.633 156.593 143.343 156.154 143.166C155.725 142.979 155.291 142.886 154.852 142.886C153.994 142.886 153.326 143.269 152.85 144.034C152.374 144.79 152.136 145.863 152.136 147.254V148.458L151.968 148.08C152.043 147.604 152.216 147.193 152.486 146.848C152.757 146.493 153.093 146.223 153.494 146.036C153.905 145.84 154.358 145.742 154.852 145.742C155.468 145.742 156.01 145.877 156.476 146.148C156.943 146.409 157.307 146.778 157.568 147.254C157.83 147.73 157.96 148.281 157.96 148.906C157.96 149.522 157.82 150.073 157.54 150.558C157.27 151.043 156.892 151.426 156.406 151.706C155.93 151.977 155.38 152.112 154.754 152.112ZM154.698 151.146C155.333 151.146 155.846 150.945 156.238 150.544C156.63 150.133 156.826 149.592 156.826 148.92C156.826 148.257 156.63 147.725 156.238 147.324C155.846 146.913 155.328 146.708 154.684 146.708C154.255 146.708 153.872 146.806 153.536 147.002C153.2 147.189 152.939 147.45 152.752 147.786C152.566 148.113 152.472 148.491 152.472 148.92C152.472 149.368 152.566 149.76 152.752 150.096C152.939 150.423 153.2 150.679 153.536 150.866C153.872 151.053 154.26 151.146 154.698 151.146ZM162.249 152V141.696H163.383V146.386L163.201 146.526C163.397 145.957 163.724 145.527 164.181 145.238C164.639 144.939 165.166 144.79 165.763 144.79C167.453 144.79 168.297 145.719 168.297 147.576V152H167.163V147.632C167.163 146.979 167.033 146.503 166.771 146.204C166.51 145.896 166.099 145.742 165.539 145.742C164.886 145.742 164.363 145.943 163.971 146.344C163.579 146.745 163.383 147.287 163.383 147.968V152H162.249ZM175.647 151.16C175.339 151.449 174.942 151.678 174.457 151.846C173.981 152.014 173.491 152.098 172.987 152.098C172.259 152.098 171.629 151.953 171.097 151.664C170.574 151.375 170.168 150.959 169.879 150.418C169.599 149.867 169.459 149.214 169.459 148.458C169.459 147.73 169.599 147.091 169.879 146.54C170.159 145.989 170.546 145.56 171.041 145.252C171.545 144.944 172.124 144.79 172.777 144.79C173.402 144.79 173.939 144.93 174.387 145.21C174.835 145.481 175.176 145.873 175.409 146.386C175.652 146.899 175.773 147.515 175.773 148.234V148.444H170.453V147.702H175.129L174.765 148.22C174.784 147.399 174.62 146.769 174.275 146.33C173.939 145.891 173.444 145.672 172.791 145.672C172.11 145.672 171.573 145.915 171.181 146.4C170.798 146.876 170.607 147.539 170.607 148.388C170.607 149.303 170.808 149.993 171.209 150.46C171.62 150.927 172.217 151.16 173.001 151.16C173.412 151.16 173.804 151.095 174.177 150.964C174.56 150.824 174.924 150.614 175.269 150.334L175.647 151.16ZM176.934 152V146.932C176.934 146.605 176.925 146.279 176.906 145.952C176.897 145.616 176.869 145.285 176.822 144.958H177.9L178.054 146.694L177.9 146.652C178.031 146.036 178.311 145.574 178.74 145.266C179.179 144.949 179.669 144.79 180.21 144.79C180.331 144.79 180.443 144.799 180.546 144.818C180.658 144.827 180.761 144.846 180.854 144.874L180.826 145.91C180.611 145.835 180.364 145.798 180.084 145.798C179.599 145.798 179.207 145.905 178.908 146.12C178.619 146.335 178.404 146.61 178.264 146.946C178.133 147.273 178.068 147.618 178.068 147.982V152H176.934ZM187.078 151.16C186.77 151.449 186.373 151.678 185.888 151.846C185.412 152.014 184.922 152.098 184.418 152.098C183.69 152.098 183.06 151.953 182.528 151.664C182.005 151.375 181.599 150.959 181.31 150.418C181.03 149.867 180.89 149.214 180.89 148.458C180.89 147.73 181.03 147.091 181.31 146.54C181.59 145.989 181.977 145.56 182.472 145.252C182.976 144.944 183.554 144.79 184.208 144.79C184.833 144.79 185.37 144.93 185.818 145.21C186.266 145.481 186.606 145.873 186.84 146.386C187.082 146.899 187.204 147.515 187.204 148.234V148.444H181.884V147.702H186.56L186.196 148.22C186.214 147.399 186.051 146.769 185.706 146.33C185.37 145.891 184.875 145.672 184.222 145.672C183.54 145.672 183.004 145.915 182.612 146.4C182.229 146.876 182.038 147.539 182.038 148.388C182.038 149.303 182.238 149.993 182.64 150.46C183.05 150.927 183.648 151.16 184.432 151.16C184.842 151.16 185.234 151.095 185.608 150.964C185.99 150.824 186.354 150.614 186.7 150.334L187.078 151.16Z" fill="#262626"/>
<rect x="183" y="33" width="108" height="29" rx="5" fill="#0066F5" fill-opacity="0.1"/>
<path d="M207.488 52.112C206.536 52.112 205.715 51.9067 205.024 51.496C204.333 51.0853 203.801 50.4973 203.428 49.732C203.055 48.9667 202.868 48.0567 202.868 47.002C202.868 45.9473 203.055 45.042 203.428 44.286C203.801 43.53 204.333 42.9467 205.024 42.536C205.715 42.1253 206.536 41.92 207.488 41.92C208.169 41.92 208.799 42.0273 209.378 42.242C209.957 42.4473 210.456 42.76 210.876 43.18L210.442 44.062C209.966 43.6513 209.495 43.3573 209.028 43.18C208.561 43.0027 208.053 42.914 207.502 42.914C206.41 42.914 205.561 43.2687 204.954 43.978C204.357 44.6873 204.058 45.6953 204.058 47.002C204.058 48.318 204.357 49.3353 204.954 50.054C205.551 50.7633 206.401 51.118 207.502 51.118C208.053 51.118 208.561 51.0293 209.028 50.852C209.495 50.6747 209.966 50.3807 210.442 49.97L210.876 50.852C210.456 51.272 209.957 51.5893 209.378 51.804C208.799 52.0093 208.169 52.112 207.488 52.112ZM212.102 52V41.696H213.236V52H212.102ZM214.878 52V44.958H216.012V52H214.878ZM214.766 41.976H216.152V43.264H214.766V41.976ZM220.608 52.098C219.918 52.098 219.32 51.9487 218.816 51.65C218.312 51.3513 217.92 50.9313 217.64 50.39C217.37 49.8487 217.234 49.2093 217.234 48.472C217.234 47.744 217.374 47.1047 217.654 46.554C217.934 45.994 218.331 45.56 218.844 45.252C219.358 44.944 219.964 44.79 220.664 44.79C221.14 44.79 221.598 44.874 222.036 45.042C222.484 45.2007 222.853 45.4247 223.142 45.714L222.764 46.554C222.419 46.2833 222.078 46.0827 221.742 45.952C221.416 45.812 221.075 45.742 220.72 45.742C220.011 45.742 219.446 45.98 219.026 46.456C218.616 46.932 218.41 47.604 218.41 48.472C218.41 49.3307 218.616 49.9933 219.026 50.46C219.437 50.9267 220.002 51.16 220.72 51.16C221.066 51.16 221.406 51.0947 221.742 50.964C222.078 50.824 222.419 50.6187 222.764 50.348L223.142 51.188C222.844 51.468 222.466 51.692 222.008 51.86C221.56 52.0187 221.094 52.098 220.608 52.098ZM228.772 52L224.936 48.402L228.478 44.972H229.92L226 48.724L226.042 48.01L230.256 52H228.772ZM224.026 52V41.696H225.16V52H224.026ZM232.767 45.854V44.958H237.289V45.854H232.767ZM237.261 50.992V51.958C237.103 52.0047 236.944 52.0373 236.785 52.056C236.636 52.084 236.468 52.098 236.281 52.098C235.628 52.098 235.105 51.9113 234.713 51.538C234.331 51.1647 234.139 50.6047 234.139 49.858V43.152L235.273 42.746V49.704C235.273 50.0773 235.325 50.3667 235.427 50.572C235.539 50.7773 235.689 50.922 235.875 51.006C236.062 51.0807 236.272 51.118 236.505 51.118C236.645 51.118 236.771 51.1087 236.883 51.09C236.995 51.0713 237.121 51.0387 237.261 50.992ZM241.008 52.098C240.336 52.098 239.748 51.9487 239.244 51.65C238.749 51.3513 238.362 50.9313 238.082 50.39C237.811 49.8393 237.676 49.1907 237.676 48.444C237.676 47.7067 237.811 47.0627 238.082 46.512C238.362 45.9613 238.749 45.5367 239.244 45.238C239.748 44.9393 240.336 44.79 241.008 44.79C241.68 44.79 242.263 44.9393 242.758 45.238C243.262 45.5367 243.649 45.9613 243.92 46.512C244.2 47.0627 244.34 47.7067 244.34 48.444C244.34 49.1907 244.2 49.8393 243.92 50.39C243.649 50.9313 243.262 51.3513 242.758 51.65C242.263 51.9487 241.68 52.098 241.008 52.098ZM241.008 51.16C241.698 51.16 242.23 50.9313 242.604 50.474C242.986 50.0073 243.178 49.3307 243.178 48.444C243.178 47.576 242.986 46.9087 242.604 46.442C242.221 45.9753 241.689 45.742 241.008 45.742C240.326 45.742 239.79 45.9753 239.398 46.442C239.015 46.9087 238.824 47.576 238.824 48.444C238.824 49.3307 239.01 50.0073 239.384 50.474C239.766 50.9313 240.308 51.16 241.008 51.16ZM251.34 52.098C250.715 52.098 250.164 51.9533 249.688 51.664C249.221 51.3653 248.857 50.9453 248.596 50.404C248.344 49.8533 248.218 49.2093 248.218 48.472C248.218 47.7347 248.349 47.0907 248.61 46.54C248.871 45.9893 249.235 45.56 249.702 45.252C250.178 44.944 250.724 44.79 251.34 44.79C251.984 44.79 252.53 44.9487 252.978 45.266C253.426 45.5833 253.729 46.036 253.888 46.624L253.72 46.736V44.958H254.84V52H253.72V50.18L253.888 50.264C253.729 50.852 253.426 51.3047 252.978 51.622C252.53 51.9393 251.984 52.098 251.34 52.098ZM251.564 51.16C252.255 51.16 252.787 50.9267 253.16 50.46C253.533 49.984 253.72 49.312 253.72 48.444C253.72 47.576 253.529 46.9087 253.146 46.442C252.773 45.9753 252.245 45.742 251.564 45.742C250.873 45.742 250.332 45.9847 249.94 46.47C249.557 46.946 249.366 47.6133 249.366 48.472C249.366 49.3307 249.557 49.9933 249.94 50.46C250.332 50.9267 250.873 51.16 251.564 51.16ZM262.674 52H261.554V50.11L261.722 50.264C261.564 50.852 261.26 51.3047 260.812 51.622C260.364 51.9393 259.818 52.098 259.174 52.098C258.558 52.098 258.012 51.9487 257.536 51.65C257.07 51.342 256.706 50.9127 256.444 50.362C256.183 49.802 256.052 49.1533 256.052 48.416C256.052 47.6787 256.178 47.0393 256.43 46.498C256.692 45.9567 257.056 45.5367 257.522 45.238C257.998 44.9393 258.549 44.79 259.174 44.79C259.818 44.79 260.364 44.9533 260.812 45.28C261.26 45.5973 261.564 46.0453 261.722 46.624L261.54 46.764V41.696H262.674V52ZM259.398 51.16C260.08 51.16 260.607 50.9267 260.98 50.46C261.363 49.984 261.554 49.312 261.554 48.444C261.554 47.5853 261.368 46.9227 260.994 46.456C260.621 45.98 260.089 45.742 259.398 45.742C258.708 45.742 258.166 45.9753 257.774 46.442C257.392 46.9087 257.2 47.5667 257.2 48.416C257.2 49.284 257.392 49.9607 257.774 50.446C258.166 50.922 258.708 51.16 259.398 51.16ZM270.509 52H269.389V50.11L269.557 50.264C269.398 50.852 269.095 51.3047 268.647 51.622C268.199 51.9393 267.653 52.098 267.009 52.098C266.393 52.098 265.847 51.9487 265.371 51.65C264.904 51.342 264.54 50.9127 264.279 50.362C264.018 49.802 263.887 49.1533 263.887 48.416C263.887 47.6787 264.013 47.0393 264.265 46.498C264.526 45.9567 264.89 45.5367 265.357 45.238C265.833 44.9393 266.384 44.79 267.009 44.79C267.653 44.79 268.199 44.9533 268.647 45.28C269.095 45.5973 269.398 46.0453 269.557 46.624L269.375 46.764V41.696H270.509V52ZM267.233 51.16C267.914 51.16 268.442 50.9267 268.815 50.46C269.198 49.984 269.389 49.312 269.389 48.444C269.389 47.5853 269.202 46.9227 268.829 46.456C268.456 45.98 267.924 45.742 267.233 45.742C266.542 45.742 266.001 45.9753 265.609 46.442C265.226 46.9087 265.035 47.5667 265.035 48.416C265.035 49.284 265.226 49.9607 265.609 50.446C266.001 50.922 266.542 51.16 267.233 51.16Z" fill="#0066F5"/>
<defs>
<filter id="filter0_d" x="0" y="0" width="331" height="193" filterUnits="userSpaceOnUse" color-interpolation-filters="sRGB">
<feFlood flood-opacity="0" result="BackgroundImageFix"/>
<feColorMatrix in="SourceAlpha" type="matrix" values="0 0 0 0 0 0 0 0 0 0 0 0 0 0 0 0 0 0 127 0"/>
<feOffset/>
<feGaussianBlur stdDeviation="10"/>
<feColorMatrix type="matrix" values="0 0 0 0 0 0 0 0 0 0 0 0 0 0 0 0 0 0 0.1 0"/>
<feBlend mode="normal" in2="BackgroundImageFix" result="effect1_dropShadow"/>
<feBlend mode="normal" in="SourceGraphic" in2="effect1_dropShadow" result="shape"/>
</filter>
</defs>
</svg>
