<svg width="143" height="86" viewBox="0 0 143 86" fill="none" xmlns="http://www.w3.org/2000/svg">
<g clip-path="url(#clip0)">
<rect y="0.889526" width="143" height="84.2209" rx="17.546" fill="#00D6B1"/>
<path d="M19.5884 53.1469H25.933V54.34H21.0201V57.4702H25.6523V58.6634H21.0201V63.1411H19.5884V53.1469ZM29.6334 63.2394C28.9409 63.2394 28.3326 63.0896 27.8086 62.7902C27.2846 62.4907 26.8775 62.065 26.5874 61.5128C26.3067 60.9607 26.1663 60.315 26.1663 59.5758C26.1663 58.8365 26.3067 58.1908 26.5874 57.6387C26.8775 57.0772 27.2846 56.6467 27.8086 56.3473C28.3326 56.0478 28.9409 55.8981 29.6334 55.8981C30.3165 55.8981 30.9201 56.0478 31.4441 56.3473C31.9682 56.6467 32.3706 57.0772 32.6513 57.6387C32.9414 58.1908 33.0864 58.8365 33.0864 59.5758C33.0864 60.315 32.9414 60.9607 32.6513 61.5128C32.3706 62.065 31.9682 62.4907 31.4441 62.7902C30.9201 63.0896 30.3165 63.2394 29.6334 63.2394ZM29.6193 62.1164C30.2744 62.1164 30.775 61.9012 31.1213 61.4707C31.4675 61.0403 31.6406 60.4086 31.6406 59.5758C31.6406 58.7616 31.4628 58.1347 31.1072 57.6948C30.761 57.255 30.2697 57.0351 29.6334 57.0351C28.9877 57.0351 28.487 57.255 28.1314 57.6948C27.7758 58.1347 27.598 58.7616 27.598 59.5758C27.598 60.4086 27.7712 61.0403 28.1174 61.4707C28.473 61.9012 28.9736 62.1164 29.6193 62.1164ZM37.5649 55.8981C37.7802 55.8981 38.0048 55.9309 38.2387 55.9964L38.2106 57.2878C37.958 57.1942 37.6819 57.1474 37.3825 57.1474C36.7368 57.1474 36.2502 57.3439 35.9226 57.7369C35.6045 58.1206 35.4454 58.6072 35.4454 59.1968V63.1411H34.0417V58.0598C34.0417 57.3205 34.0043 56.6561 33.9294 56.0666H35.2489L35.3752 57.3439C35.5624 56.876 35.8525 56.5204 36.2455 56.2771C36.6385 56.0245 37.0783 55.8981 37.5649 55.8981ZM44.7655 56.0666V63.1411H43.3899V61.962C43.1653 62.3738 42.8565 62.6919 42.4635 62.9165C42.0704 63.1318 41.6259 63.2394 41.13 63.2394C39.4268 63.2394 38.5753 62.2942 38.5753 60.4039V56.0666H39.9789V60.3899C39.9789 60.9701 40.0959 61.4005 40.3299 61.6813C40.5732 61.9527 40.9381 62.0884 41.4247 62.0884C42.0049 62.0884 42.4681 61.9012 42.8144 61.5269C43.17 61.1526 43.3478 60.6566 43.3478 60.039V56.0666H44.7655ZM54.2114 55.8981C55.7835 55.8981 56.5696 56.8433 56.5696 58.7336V63.1411H55.1519V58.8037C55.1519 58.1955 55.0442 57.751 54.829 57.4702C54.6231 57.1895 54.2863 57.0491 53.8184 57.0491C53.2756 57.0491 52.8451 57.2363 52.527 57.6106C52.2182 57.9849 52.0638 58.4949 52.0638 59.1406V63.1411H50.646V58.8037C50.646 58.1955 50.5384 57.751 50.3232 57.4702C50.1173 57.1895 49.7804 57.0491 49.3125 57.0491C48.7698 57.0491 48.3393 57.2363 48.0212 57.6106C47.703 57.9849 47.5439 58.4949 47.5439 59.1406V63.1411H46.1402V58.0598C46.1402 57.3205 46.1028 56.6561 46.0279 56.0666H47.3474L47.4737 57.2457C47.6796 56.8152 47.9744 56.483 48.358 56.249C48.7417 56.0151 49.1909 55.8981 49.7056 55.8981C50.8004 55.8981 51.5163 56.352 51.8532 57.2597C52.0684 56.8386 52.3819 56.5064 52.7937 56.2631C53.2148 56.0198 53.6874 55.8981 54.2114 55.8981Z" fill="white"/>
<rect x="69.7214" y="-48.1516" width="69.029" height="69.029" rx="13.1595" transform="rotate(15 69.7214 -48.1516)" fill="#058C75"/>
<g clip-path="url(#clip1)">
<path d="M107.084 12.297H103.602C103.369 12.297 103.215 12.4709 103.215 12.7351C103.215 12.9993 103.369 13.1732 103.602 13.1732H107.084C107.317 13.1732 107.471 12.9993 107.471 12.7351C107.471 12.4709 107.317 12.297 107.084 12.297Z" fill="white"/>
<path d="M110.176 12.297H109.017C108.784 12.297 108.63 12.4709 108.63 12.7351C108.63 12.9993 108.787 13.1732 109.017 13.1732H110.176C110.41 13.1732 110.563 12.9993 110.563 12.7351C110.563 12.4709 110.41 12.297 110.176 12.297Z" fill="white"/>
<path d="M113.154 13.3471L112.109 11.9893V11.8154C112.109 10.8053 111.451 10.1063 110.522 10.1063H102.669C101.819 10.1063 100.89 10.7652 100.89 11.8153V13.3505C100.893 14.3572 101.784 15.3638 102.672 15.3638H110.525C111.26 15.3638 111.803 14.618 112.033 14.0929H112.883C113.036 14.0929 113.154 14.006 113.231 13.8287C113.269 13.6548 113.269 13.4776 113.154 13.3471ZM111.764 13.1732C111.569 13.1732 111.416 13.3471 111.378 13.5679C111.339 13.8321 110.914 14.4876 110.528 14.4876H102.675C102.212 14.4876 101.669 13.8723 101.669 13.3472V11.812H101.666C101.666 11.3304 102.167 10.9793 102.672 10.9793V10.9358H110.525C110.911 10.9358 111.336 11.1565 111.336 11.7685V12.1197C111.336 12.2502 111.375 12.3405 111.451 12.4274L112.036 13.1733H111.764V13.1732Z" fill="white"/>
<path d="M111.339 18.4342H107.084C106.851 18.4342 106.697 18.6081 106.697 18.8723C106.697 19.1365 106.851 19.3104 107.084 19.3104H111.339C111.572 19.3104 111.726 19.1365 111.726 18.8723C111.726 18.6081 111.569 18.4342 111.339 18.4342Z" fill="white"/>
<path d="M105.535 18.4342H104.375C104.142 18.4342 103.988 18.6081 103.988 18.8723C103.988 19.1365 104.142 19.3104 104.375 19.3104H105.535C105.768 19.3104 105.921 19.1365 105.921 18.8723C105.921 18.6081 105.768 18.4342 105.535 18.4342Z" fill="white"/>
<path d="M111.649 16.2435H103.796C102.905 16.2435 102.017 16.9024 102.017 17.9526V18.1265L101.126 19.4844C101.049 19.6148 101.011 19.7921 101.087 19.9225C101.164 20.0964 101.282 20.1867 101.435 20.1867H102.285C102.518 20.7553 103.059 21.5011 103.793 21.5011H111.649C112.499 21.5011 113.275 20.5813 113.275 19.4844V17.9492C113.272 16.9425 112.576 16.2435 111.649 16.2435ZM111.687 20.6282H103.835C103.41 20.6282 103.023 19.9693 102.985 19.7084C102.946 19.4876 102.79 19.3137 102.598 19.3137H102.25L102.752 18.5679C102.79 18.481 102.828 18.394 102.828 18.3037V17.9526C102.828 17.4275 103.371 17.1198 103.835 17.1198H111.687C112.112 17.1198 112.537 17.384 112.537 17.9526V19.4877H112.537C112.537 20.0563 112.112 20.6282 111.687 20.6282Z" fill="white"/>
</g>
</g>
<defs>
<clipPath id="clip0">
<rect y="0.889526" width="143" height="84.2209" fill="white"/>
</clipPath>
<clipPath id="clip1">
<rect x="100.89" y="8.78528" width="12.3854" height="14.0368" fill="white"/>
</clipPath>
</defs>
</svg>
