<svg width="22" height="23" viewBox="0 0 22 23" fill="none" xmlns="http://www.w3.org/2000/svg">
<path d="M10.7418 5.25519V7.568H13.0546C13.5121 7.568 13.9592 7.43236 14.3396 7.17823C14.7199 6.92409 15.0164 6.56288 15.1914 6.14027C15.3665 5.71766 15.4123 5.25263 15.323 4.80399C15.2338 4.35535 15.0135 3.94324 14.69 3.61979C14.3666 3.29634 13.9545 3.07606 13.5059 2.98682C13.0572 2.89758 12.5922 2.94338 12.1696 3.11844C11.747 3.29349 11.3857 3.58993 11.1316 3.97027C10.8775 4.35061 10.7418 4.79776 10.7418 5.25519V5.25519ZM10.7418 5.25519V7.568H8.42902C7.97159 7.568 7.52443 7.43236 7.14409 7.17823C6.76375 6.92409 6.46732 6.56288 6.29226 6.14027C6.11721 5.71766 6.07141 5.25263 6.16065 4.80399C6.24989 4.35535 6.47017 3.94324 6.79362 3.61979C7.11707 3.29634 7.52917 3.07606 7.97782 2.98682C8.42646 2.89758 8.89149 2.94338 9.3141 3.11844C9.73671 3.29349 10.0979 3.58993 10.3521 3.97027C10.6062 4.35061 10.7418 4.79776 10.7418 5.25519V5.25519Z" stroke="#C4C4C4" stroke-width="1.32161" stroke-miterlimit="10" stroke-linecap="round"/>
<path d="M17.3497 7.56836H4.13362C3.40371 7.56836 2.81201 8.16006 2.81201 8.88997V10.8724C2.81201 11.6023 3.40371 12.194 4.13362 12.194H17.3497C18.0796 12.194 18.6713 11.6023 18.6713 10.8724V8.88997C18.6713 8.16006 18.0796 7.56836 17.3497 7.56836Z" stroke="#C4C4C4" stroke-width="1.32161" stroke-linecap="round" stroke-linejoin="round"/>
<path d="M10.7418 7.56836V20.1236M17.3499 12.194V18.1412C17.3499 18.667 17.141 19.1712 16.7692 19.543C16.3974 19.9148 15.8932 20.1236 15.3674 20.1236H6.1162C5.59043 20.1236 5.0862 19.9148 4.71442 19.543C4.34265 19.1712 4.13379 18.667 4.13379 18.1412V12.194H17.3499Z" stroke="#C4C4C4" stroke-width="1.32161" stroke-linecap="round" stroke-linejoin="round"/>
</svg>
