<svg width="143" height="86" viewBox="0 0 143 86" fill="none" xmlns="http://www.w3.org/2000/svg">
<g clip-path="url(#clip0)">
<rect y="0.889526" width="143" height="84.2209" rx="17.546" fill="#FFC044"/>
<path d="M26.312 53.1469V63.1411H24.8662V58.6634H19.2655V63.1411H17.8338V53.1469H19.2655V57.4702H24.8662V53.1469H26.312ZM33.8432 59.6319H28.7899C28.8367 61.2883 29.59 62.1164 31.0499 62.1164C31.864 62.1164 32.6079 61.8497 33.2817 61.3163L33.7168 62.327C33.3987 62.6077 32.9916 62.8323 32.4956 63.0007C32.009 63.1598 31.5177 63.2394 31.0218 63.2394C29.8895 63.2394 29.0005 62.9165 28.3548 62.2708C27.7091 61.6158 27.3862 60.7221 27.3862 59.5898C27.3862 58.8692 27.5266 58.2282 27.8073 57.6668C28.0974 57.1053 28.4998 56.6701 29.0145 56.3613C29.5292 56.0525 30.1141 55.8981 30.7691 55.8981C31.7236 55.8981 32.4722 56.2069 33.015 56.8245C33.5671 57.4422 33.8432 58.2984 33.8432 59.3933V59.6319ZM30.7972 56.9509C30.2638 56.9509 29.8286 57.11 29.4918 57.4281C29.1549 57.7463 28.9397 58.2002 28.8461 58.7897H32.5939C32.5378 58.1908 32.3553 57.7369 32.0465 57.4281C31.7377 57.11 31.3212 56.9509 30.7972 56.9509ZM41.2391 56.0666V63.1411H39.8355V61.9339C39.6296 62.3551 39.3208 62.6779 38.909 62.9025C38.5067 63.1271 38.0341 63.2394 37.4913 63.2394C36.8643 63.2394 36.3122 63.0896 35.835 62.7902C35.3671 62.4907 35.0021 62.0696 34.7401 61.5269C34.4781 60.9748 34.3471 60.3338 34.3471 59.6038C34.3471 58.8739 34.4781 58.2282 34.7401 57.6668C35.0115 57.1053 35.3858 56.6701 35.8631 56.3613C36.3403 56.0525 36.8831 55.8981 37.4913 55.8981C38.0341 55.8981 38.5067 56.0151 38.909 56.249C39.3114 56.4736 39.6202 56.7965 39.8355 57.2176V56.0666H41.2391ZM37.8282 62.1164C38.4645 62.1164 38.9558 61.8965 39.3021 61.4567C39.6577 61.0075 39.8355 60.3805 39.8355 59.5758C39.8355 58.7616 39.6577 58.1347 39.3021 57.6948C38.9558 57.255 38.4599 57.0351 37.8142 57.0351C37.1778 57.0351 36.6772 57.2644 36.3122 57.7229C35.9566 58.1721 35.7788 58.7991 35.7788 59.6038C35.7788 60.3993 35.9566 61.0169 36.3122 61.4567C36.6772 61.8965 37.1825 62.1164 37.8282 62.1164ZM42.62 52.81H44.0237V63.1411H42.62V52.81ZM47.2388 57.1614V60.7127C47.2388 61.1994 47.3417 61.5456 47.5476 61.7515C47.7628 61.948 48.0576 62.0462 48.4319 62.0462C48.6752 62.0462 48.9232 62.0088 49.1759 61.9339V63.085C48.8671 63.1879 48.5161 63.2394 48.1231 63.2394C47.3932 63.2394 46.827 63.0335 46.4247 62.6218C46.0223 62.21 45.8211 61.6111 45.8211 60.825V57.1614H44.4455V56.0666H45.8211V54.2979L47.2388 53.8066V56.0666H49.1899V57.1614H47.2388ZM53.5593 55.8981C55.2531 55.8981 56.1 56.8433 56.1 58.7336V63.1411H54.6822V58.8178C54.6822 58.2002 54.5606 57.751 54.3173 57.4702C54.0833 57.1895 53.7043 57.0491 53.1803 57.0491C52.5814 57.0491 52.0995 57.2363 51.7345 57.6106C51.3789 57.9849 51.2011 58.4856 51.2011 59.1125V63.1411H49.7974V52.81H51.2011V57.1614C51.4351 56.7497 51.7579 56.4362 52.1697 56.221C52.5814 56.0057 53.0446 55.8981 53.5593 55.8981ZM70.1561 53.1469V63.1411H68.8507V56.2771L65.8889 63.1411H64.8923L61.8884 56.3192L61.9024 63.1411H60.597V53.1469H61.7621L65.3976 61.4005L68.991 53.1469H70.1561ZM74.7129 63.2394C74.0204 63.2394 73.4121 63.0896 72.8881 62.7902C72.3641 62.4907 71.957 62.065 71.6669 61.5128C71.3862 60.9607 71.2458 60.315 71.2458 59.5758C71.2458 58.8365 71.3862 58.1908 71.6669 57.6387C71.957 57.0772 72.3641 56.6467 72.8881 56.3473C73.4121 56.0478 74.0204 55.8981 74.7129 55.8981C75.396 55.8981 75.9996 56.0478 76.5236 56.3473C77.0477 56.6467 77.4501 57.0772 77.7308 57.6387C78.0209 58.1908 78.1659 58.8365 78.1659 59.5758C78.1659 60.315 78.0209 60.9607 77.7308 61.5128C77.4501 62.065 77.0477 62.4907 76.5236 62.7902C75.9996 63.0896 75.396 63.2394 74.7129 63.2394ZM74.6988 62.1164C75.3539 62.1164 75.8545 61.9012 76.2008 61.4707C76.547 61.0403 76.7201 60.4086 76.7201 59.5758C76.7201 58.7616 76.5424 58.1347 76.1868 57.6948C75.8405 57.255 75.3492 57.0351 74.7129 57.0351C74.0672 57.0351 73.5665 57.255 73.2109 57.6948C72.8553 58.1347 72.6775 58.7616 72.6775 59.5758C72.6775 60.4086 72.8507 61.0403 73.1969 61.4707C73.5525 61.9012 74.0532 62.1164 74.6988 62.1164ZM82.8831 55.8981C84.5768 55.8981 85.4237 56.8433 85.4237 58.7336V63.1411H84.006V58.8178C84.006 58.2002 83.8844 57.751 83.6411 57.4702C83.4071 57.1895 83.0281 57.0491 82.5041 57.0491C81.9052 57.0491 81.4232 57.2363 81.0583 57.6106C80.7027 57.9849 80.5249 58.4856 80.5249 59.1125V63.1411H79.1212V58.0598C79.1212 57.3205 79.0838 56.6561 79.0089 56.0666H80.3284L80.4547 57.2878C80.6793 56.8386 81.0021 56.497 81.4232 56.2631C81.8537 56.0198 82.3403 55.8981 82.8831 55.8981ZM86.74 56.0666H88.1437V63.1411H86.74V56.0666ZM88.256 52.9785V54.4664H86.6137V52.9785H88.256ZM91.3588 57.1614V60.7127C91.3588 61.1994 91.4617 61.5456 91.6676 61.7515C91.8828 61.948 92.1776 62.0462 92.5519 62.0462C92.7952 62.0462 93.0432 62.0088 93.2959 61.9339V63.085C92.9871 63.1879 92.6361 63.2394 92.2431 63.2394C91.5132 63.2394 90.947 63.0335 90.5447 62.6218C90.1423 62.21 89.9411 61.6111 89.9411 60.825V57.1614H88.5655V56.0666H89.9411V54.2979L91.3588 53.8066V56.0666H93.3099V57.1614H91.3588ZM96.9634 63.2394C96.2709 63.2394 95.6627 63.0896 95.1386 62.7902C94.6146 62.4907 94.2075 62.065 93.9174 61.5128C93.6367 60.9607 93.4963 60.315 93.4963 59.5758C93.4963 58.8365 93.6367 58.1908 93.9174 57.6387C94.2075 57.0772 94.6146 56.6467 95.1386 56.3473C95.6627 56.0478 96.2709 55.8981 96.9634 55.8981C97.6465 55.8981 98.2501 56.0478 98.7742 56.3473C99.2982 56.6467 99.7006 57.0772 99.9813 57.6387C100.271 58.1908 100.416 58.8365 100.416 59.5758C100.416 60.315 100.271 60.9607 99.9813 61.5128C99.7006 62.065 99.2982 62.4907 98.7742 62.7902C98.2501 63.0896 97.6465 63.2394 96.9634 63.2394ZM96.9494 62.1164C97.6044 62.1164 98.1051 61.9012 98.4513 61.4707C98.7976 61.0403 98.9707 60.4086 98.9707 59.5758C98.9707 58.7616 98.7929 58.1347 98.4373 57.6948C98.091 57.255 97.5998 57.0351 96.9634 57.0351C96.3177 57.0351 95.8171 57.255 95.4615 57.6948C95.1059 58.1347 94.9281 58.7616 94.9281 59.5758C94.9281 60.4086 95.1012 61.0403 95.4474 61.4707C95.803 61.9012 96.3037 62.1164 96.9494 62.1164ZM104.895 55.8981C105.11 55.8981 105.335 55.9309 105.569 55.9964L105.541 57.2878C105.288 57.1942 105.012 57.1474 104.713 57.1474C104.067 57.1474 103.58 57.3439 103.253 57.7369C102.935 58.1206 102.775 58.6072 102.775 59.1968V63.1411H101.372V58.0598C101.372 57.3205 101.334 56.6561 101.259 56.0666H102.579L102.705 57.3439C102.892 56.876 103.182 56.5204 103.576 56.2771C103.969 56.0245 104.408 55.8981 104.895 55.8981Z" fill="white"/>
<circle cx="47.6913" cy="3.23062" r="27.0902" transform="rotate(-9.07137 47.6913 3.23062)" fill="#F14336"/>
<g clip-path="url(#clip1)">
<path d="M105.767 11.2101L106.153 11.926L106.54 11.2101C107.063 10.2385 108.013 9.25139 109.443 9.25139C111.285 9.25139 112.733 10.7406 112.733 12.7954C112.733 13.2264 112.663 13.6304 112.531 14.0217H109.969L109.381 12.8466L109.381 12.8461C109.219 12.5242 108.894 12.3951 108.621 12.3951C108.348 12.3951 108.022 12.5242 107.861 12.8461L107.861 12.8466L106.976 14.6161L106.914 14.4915L106.913 14.4911C106.752 14.1692 106.426 14.04 106.153 14.04C105.881 14.04 105.555 14.1692 105.393 14.4911L105.393 14.4915L105.331 14.6161L104.446 12.8466L104.446 12.8461C104.285 12.5242 103.959 12.3951 103.686 12.3951C103.413 12.3951 103.087 12.5242 102.926 12.8461L102.926 12.8466L102.338 14.0217H99.7754C99.6434 13.6304 99.5737 13.2264 99.5737 12.7954C99.5737 10.7406 101.021 9.25139 102.864 9.25139C104.294 9.25139 105.243 10.2385 105.767 11.2101Z" stroke="white" stroke-width="0.877301"/>
<path d="M108.683 15.2517L108.683 15.2522C108.827 15.5395 109.121 15.7215 109.443 15.7215H111.542C110.721 16.725 109.504 17.7515 107.985 19.0333C107.938 19.0731 107.89 19.1132 107.843 19.1536L107.843 19.1536C107.313 19.6007 106.747 20.0781 106.153 20.5928C105.559 20.0781 104.994 19.6007 104.464 19.1536C104.416 19.1131 104.368 19.0729 104.321 19.033C102.802 17.7514 101.586 16.7249 100.765 15.7215H102.863C103.186 15.7215 103.479 15.5395 103.623 15.2522L103.624 15.2517L103.686 15.1272L104.571 16.8967L104.571 16.8971C104.732 17.219 105.058 17.3482 105.331 17.3482C105.604 17.3482 105.929 17.219 106.091 16.8971L106.091 16.8967L106.153 16.7722L106.216 16.8967L106.216 16.8971C106.36 17.1844 106.654 17.3665 106.976 17.3665C107.298 17.3665 107.592 17.1844 107.736 16.8971L107.736 16.8967L108.621 15.1272L108.683 15.2517Z" stroke="white" stroke-width="0.877301"/>
</g>
</g>
<defs>
<clipPath id="clip0">
<rect y="0.889526" width="143" height="84.2209" fill="white"/>
</clipPath>
<clipPath id="clip1">
<rect x="99.135" y="7.90796" width="14.0368" height="14.0368" fill="white"/>
</clipPath>
</defs>
</svg>
