<svg width="80" height="80" viewBox="0 0 80 80" fill="none" xmlns="http://www.w3.org/2000/svg">
<circle opacity="0.05" cx="40" cy="40" r="40" fill="#1B2CC1"/>
<path d="M40.9233 27.7147C40.8099 27.6062 40.659 27.5457 40.5021 27.5457C40.3452 27.5457 40.1943 27.6062 40.0809 27.7147L26.0576 41.111C25.9981 41.168 25.9507 41.2365 25.9183 41.3123C25.886 41.3881 25.8694 41.4697 25.8695 41.5521L25.8672 54.125C25.8672 54.7715 26.124 55.3914 26.5811 55.8486C27.0382 56.3057 27.6582 56.5625 28.3047 56.5625H35.6248C35.948 56.5625 36.258 56.4341 36.4866 56.2055C36.7151 55.977 36.8436 55.667 36.8436 55.3437V44.9844C36.8436 44.8228 36.9078 44.6678 37.022 44.5535C37.1363 44.4392 37.2913 44.375 37.4529 44.375H43.5467C43.7083 44.375 43.8633 44.4392 43.9776 44.5535C44.0919 44.6678 44.1561 44.8228 44.1561 44.9844V55.3437C44.1561 55.667 44.2845 55.977 44.513 56.2055C44.7416 56.4341 45.0516 56.5625 45.3748 56.5625H52.6919C53.3383 56.5625 53.9583 56.3057 54.4154 55.8486C54.8726 55.3914 55.1294 54.7715 55.1294 54.125V41.5521C55.1295 41.4697 55.1128 41.3881 55.0805 41.3123C55.0482 41.2365 55.0008 41.168 54.9412 41.111L40.9233 27.7147Z" fill="#1B2CC1"/>
<path d="M58.3936 38.5974L52.6959 33.1465V24.875C52.6959 24.5518 52.5675 24.2418 52.3389 24.0132C52.1104 23.7847 51.8004 23.6562 51.4772 23.6562H47.8209C47.4977 23.6562 47.1877 23.7847 46.9591 24.0132C46.7306 24.2418 46.6022 24.5518 46.6022 24.875V27.3125L42.1903 23.0941C41.7774 22.6767 41.1635 22.4375 40.5 22.4375C39.8389 22.4375 39.2264 22.6767 38.8136 23.0949L22.6118 38.5958C22.138 39.0529 22.0786 39.8047 22.5098 40.2998C22.618 40.4248 22.7506 40.5264 22.8994 40.5985C23.0482 40.6706 23.2101 40.7117 23.3753 40.7193C23.5404 40.7268 23.7054 40.7007 23.8602 40.6425C24.0149 40.5842 24.1562 40.4951 24.2754 40.3805L40.0811 25.2772C40.1945 25.1687 40.3454 25.1082 40.5023 25.1082C40.6593 25.1082 40.8101 25.1687 40.9235 25.2772L56.7307 40.3805C56.9636 40.6038 57.2755 40.7257 57.598 40.7194C57.9206 40.7131 58.2275 40.5792 58.4515 40.347C58.9192 39.8626 58.8803 39.0628 58.3936 38.5974Z" fill="#1B2CC1"/>
</svg>
