<svg width="143" height="86" viewBox="0 0 143 86" fill="none" xmlns="http://www.w3.org/2000/svg">
<g clip-path="url(#clip0)">
<rect y="0.889526" width="143" height="84.2209" rx="17.546" fill="#058C75"/>
<path d="M27.4069 53.1469V63.1411H26.1014V56.2771L23.1397 63.1411H22.1431L19.1392 56.3192L19.1532 63.1411H17.8478V53.1469H19.0128L22.6484 61.4005L26.2418 53.1469H27.4069ZM34.9535 59.6319H29.9003C29.947 61.2883 30.7004 62.1164 32.1602 62.1164C32.9743 62.1164 33.7183 61.8497 34.392 61.3163L34.8272 62.327C34.509 62.6077 34.1019 62.8323 33.606 63.0007C33.1194 63.1598 32.6281 63.2394 32.1321 63.2394C30.9998 63.2394 30.1108 62.9165 29.4651 62.2708C28.8194 61.6158 28.4966 60.7221 28.4966 59.5898C28.4966 58.8692 28.6369 58.2282 28.9177 57.6668C29.2078 57.1053 29.6102 56.6701 30.1248 56.3613C30.6395 56.0525 31.2244 55.8981 31.8794 55.8981C32.834 55.8981 33.5826 56.2069 34.1253 56.8245C34.6775 57.4422 34.9535 58.2984 34.9535 59.3933V59.6319ZM31.9075 56.9509C31.3741 56.9509 30.939 57.11 30.6021 57.4281C30.2652 57.7463 30.05 58.2002 29.9564 58.7897H33.7042C33.6481 58.1908 33.4656 57.7369 33.1568 57.4281C32.848 57.11 32.4316 56.9509 31.9075 56.9509ZM39.6404 55.8981C41.3342 55.8981 42.181 56.8433 42.181 58.7336V63.1411H40.7633V58.8178C40.7633 58.2002 40.6417 57.751 40.3984 57.4702C40.1644 57.1895 39.7854 57.0491 39.2614 57.0491C38.6625 57.0491 38.1806 57.2363 37.8156 57.6106C37.46 57.9849 37.2822 58.4856 37.2822 59.1125V63.1411H35.8785V58.0598C35.8785 57.3205 35.8411 56.6561 35.7662 56.0666H37.0857L37.212 57.2878C37.4366 56.8386 37.7594 56.497 38.1806 56.2631C38.611 56.0198 39.0976 55.8981 39.6404 55.8981ZM45.3361 57.1614V60.7127C45.3361 61.1994 45.4391 61.5456 45.645 61.7515C45.8602 61.948 46.155 62.0462 46.5293 62.0462C46.7726 62.0462 47.0206 62.0088 47.2732 61.9339V63.085C46.9644 63.1879 46.6135 63.2394 46.2205 63.2394C45.4906 63.2394 44.9244 63.0335 44.522 62.6218C44.1196 62.21 43.9184 61.6111 43.9184 60.825V57.1614H42.5428V56.0666H43.9184V54.2979L45.3361 53.8066V56.0666H47.2873V57.1614H45.3361ZM54.3658 56.0666V63.1411H52.9621V61.9339C52.7562 62.3551 52.4474 62.6779 52.0357 62.9025C51.6333 63.1271 51.1607 63.2394 50.6179 63.2394C49.991 63.2394 49.4388 63.0896 48.9616 62.7902C48.4937 62.4907 48.1287 62.0696 47.8667 61.5269C47.6047 60.9748 47.4737 60.3338 47.4737 59.6038C47.4737 58.8739 47.6047 58.2282 47.8667 57.6668C48.1381 57.1053 48.5124 56.6701 48.9897 56.3613C49.4669 56.0525 50.0097 55.8981 50.6179 55.8981C51.1607 55.8981 51.6333 56.0151 52.0357 56.249C52.438 56.4736 52.7468 56.7965 52.9621 57.2176V56.0666H54.3658ZM50.9548 62.1164C51.5912 62.1164 52.0824 61.8965 52.4287 61.4567C52.7843 61.0075 52.9621 60.3805 52.9621 59.5758C52.9621 58.7616 52.7843 58.1347 52.4287 57.6948C52.0824 57.255 51.5865 57.0351 50.9408 57.0351C50.3044 57.0351 49.8038 57.2644 49.4388 57.7229C49.0832 58.1721 48.9054 58.7991 48.9054 59.6038C48.9054 60.3993 49.0832 61.0169 49.4388 61.4567C49.8038 61.8965 50.3091 62.1164 50.9548 62.1164ZM55.7466 52.81H57.1503V63.1411H55.7466V52.81ZM68.2625 60.6706H63.2093L62.1425 63.1411H60.6686L65.1183 53.1469H66.3395L70.8032 63.1411H69.3293L68.2625 60.6706ZM67.7712 59.5196L65.7359 54.7611L63.7006 59.5196H67.7712ZM73.6439 63.2394C72.4087 63.2394 71.4354 62.9399 70.7242 62.341L71.1453 61.3163C71.8846 61.8778 72.7315 62.1585 73.686 62.1585C74.1726 62.1585 74.5422 62.079 74.7949 61.9199C75.0476 61.7515 75.1739 61.5175 75.1739 61.2181C75.1739 60.9654 75.085 60.7689 74.9072 60.6285C74.7388 60.4788 74.4487 60.3525 74.0369 60.2495L72.8578 59.9688C72.2402 59.8378 71.7676 59.6085 71.4401 59.281C71.1219 58.9441 70.9629 58.5277 70.9629 58.0317C70.9629 57.3954 71.2155 56.8807 71.7208 56.4877C72.2355 56.0946 72.914 55.8981 73.7562 55.8981C74.2615 55.8981 74.7388 55.9777 75.1879 56.1367C75.6465 56.2958 76.0348 56.5204 76.353 56.8105L75.9179 57.8071C75.2347 57.2644 74.5142 56.993 73.7562 56.993C73.2977 56.993 72.9421 57.0819 72.6894 57.2597C72.4367 57.4281 72.3104 57.6668 72.3104 57.9756C72.3104 58.2189 72.3899 58.4154 72.549 58.5651C72.7081 58.7148 72.9608 58.8318 73.307 58.916L74.5142 59.2108C75.1879 59.3605 75.6839 59.5992 76.0021 59.9267C76.3296 60.2449 76.4934 60.6613 76.4934 61.176C76.4934 61.8123 76.236 62.3176 75.7213 62.6919C75.216 63.0569 74.5235 63.2394 73.6439 63.2394ZM79.933 63.2394C78.6978 63.2394 77.7246 62.9399 77.0134 62.341L77.4345 61.3163C78.1738 61.8778 79.0206 62.1585 79.9752 62.1585C80.4618 62.1585 80.8314 62.079 81.0841 61.9199C81.3367 61.7515 81.4631 61.5175 81.4631 61.2181C81.4631 60.9654 81.3742 60.7689 81.1964 60.6285C81.0279 60.4788 80.7378 60.3525 80.3261 60.2495L79.147 59.9688C78.5294 59.8378 78.0568 59.6085 77.7293 59.281C77.4111 58.9441 77.252 58.5277 77.252 58.0317C77.252 57.3954 77.5047 56.8807 78.01 56.4877C78.5247 56.0946 79.2031 55.8981 80.0453 55.8981C80.5507 55.8981 81.0279 55.9777 81.4771 56.1367C81.9356 56.2958 82.324 56.5204 82.6421 56.8105L82.207 57.8071C81.5239 57.2644 80.8033 56.993 80.0453 56.993C79.5868 56.993 79.2312 57.0819 78.9785 57.2597C78.7259 57.4281 78.5995 57.6668 78.5995 57.9756C78.5995 58.2189 78.6791 58.4154 78.8382 58.5651C78.9973 58.7148 79.2499 58.8318 79.5962 58.916L80.8033 59.2108C81.4771 59.3605 81.9731 59.5992 82.2912 59.9267C82.6188 60.2449 82.7825 60.6613 82.7825 61.176C82.7825 61.8123 82.5252 62.3176 82.0105 62.6919C81.5052 63.0569 80.8127 63.2394 79.933 63.2394ZM89.7875 59.6319H84.7343C84.7811 61.2883 85.5344 62.1164 86.9942 62.1164C87.8084 62.1164 88.5523 61.8497 89.2261 61.3163L89.6612 62.327C89.343 62.6077 88.936 62.8323 88.44 63.0007C87.9534 63.1598 87.4621 63.2394 86.9661 63.2394C85.8338 63.2394 84.9448 62.9165 84.2991 62.2708C83.6535 61.6158 83.3306 60.7221 83.3306 59.5898C83.3306 58.8692 83.471 58.2282 83.7517 57.6668C84.0418 57.1053 84.4442 56.6701 84.9589 56.3613C85.4736 56.0525 86.0584 55.8981 86.7135 55.8981C87.668 55.8981 88.4166 56.2069 88.9594 56.8245C89.5115 57.4422 89.7875 58.2984 89.7875 59.3933V59.6319ZM86.7416 56.9509C86.2082 56.9509 85.773 57.11 85.4361 57.4281C85.0992 57.7463 84.884 58.2002 84.7904 58.7897H88.5383C88.4821 58.1908 88.2996 57.7369 87.9908 57.4281C87.682 57.11 87.2656 56.9509 86.7416 56.9509ZM93.183 63.2394C91.9478 63.2394 90.9746 62.9399 90.2634 62.341L90.6845 61.3163C91.4237 61.8778 92.2706 62.1585 93.2251 62.1585C93.7117 62.1585 94.0814 62.079 94.334 61.9199C94.5867 61.7515 94.713 61.5175 94.713 61.2181C94.713 60.9654 94.6241 60.7689 94.4463 60.6285C94.2779 60.4788 93.9878 60.3525 93.5761 60.2495L92.397 59.9688C91.7793 59.8378 91.3068 59.6085 90.9792 59.281C90.6611 58.9441 90.502 58.5277 90.502 58.0317C90.502 57.3954 90.7547 56.8807 91.26 56.4877C91.7747 56.0946 92.4531 55.8981 93.2953 55.8981C93.8006 55.8981 94.2779 55.9777 94.7271 56.1367C95.1856 56.2958 95.574 56.5204 95.8921 56.8105L95.457 57.8071C94.7739 57.2644 94.0533 56.993 93.2953 56.993C92.8368 56.993 92.4812 57.0819 92.2285 57.2597C91.9759 57.4281 91.8495 57.6668 91.8495 57.9756C91.8495 58.2189 91.9291 58.4154 92.0882 58.5651C92.2472 58.7148 92.4999 58.8318 92.8461 58.916L94.0533 59.2108C94.7271 59.3605 95.223 59.5992 95.5412 59.9267C95.8687 60.2449 96.0325 60.6613 96.0325 61.176C96.0325 61.8123 95.7752 62.3176 95.2605 62.6919C94.7551 63.0569 94.0627 63.2394 93.183 63.2394ZM99.4722 63.2394C98.2369 63.2394 97.2637 62.9399 96.5525 62.341L96.9736 61.3163C97.7129 61.8778 98.5598 62.1585 99.5143 62.1585C100.001 62.1585 100.371 62.079 100.623 61.9199C100.876 61.7515 101.002 61.5175 101.002 61.2181C101.002 60.9654 100.913 60.7689 100.735 60.6285C100.567 60.4788 100.277 60.3525 99.8652 60.2495L98.6861 59.9688C98.0685 59.8378 97.5959 59.6085 97.2684 59.281C96.9502 58.9441 96.7911 58.5277 96.7911 58.0317C96.7911 57.3954 97.0438 56.8807 97.5491 56.4877C98.0638 56.0946 98.7423 55.8981 99.5845 55.8981C100.09 55.8981 100.567 55.9777 101.016 56.1367C101.475 56.2958 101.863 56.5204 102.181 56.8105L101.746 57.8071C101.063 57.2644 100.342 56.993 99.5845 56.993C99.1259 56.993 98.7703 57.0819 98.5177 57.2597C98.265 57.4281 98.1387 57.6668 98.1387 57.9756C98.1387 58.2189 98.2182 58.4154 98.3773 58.5651C98.5364 58.7148 98.789 58.8318 99.1353 58.916L100.342 59.2108C101.016 59.3605 101.512 59.5992 101.83 59.9267C102.158 60.2449 102.322 60.6613 102.322 61.176C102.322 61.8123 102.064 62.3176 101.55 62.6919C101.044 63.0569 100.352 63.2394 99.4722 63.2394ZM111.362 55.8981C112.934 55.8981 113.72 56.8433 113.72 58.7336V63.1411H112.302V58.8037C112.302 58.1955 112.195 57.751 111.98 57.4702C111.774 57.1895 111.437 57.0491 110.969 57.0491C110.426 57.0491 109.996 57.2363 109.678 57.6106C109.369 57.9849 109.214 58.4949 109.214 59.1406V63.1411H107.797V58.8037C107.797 58.1955 107.689 57.751 107.474 57.4702C107.268 57.1895 106.931 57.0491 106.463 57.0491C105.92 57.0491 105.49 57.2363 105.172 57.6106C104.854 57.9849 104.695 58.4949 104.695 59.1406V63.1411H103.291V58.0598C103.291 57.3205 103.253 56.6561 103.179 56.0666H104.498L104.624 57.2457C104.83 56.8152 105.125 56.483 105.509 56.249C105.892 56.0151 106.342 55.8981 106.856 55.8981C107.951 55.8981 108.667 56.352 109.004 57.2597C109.219 56.8386 109.533 56.5064 109.944 56.2631C110.365 56.0198 110.838 55.8981 111.362 55.8981ZM121.085 59.6319H116.032C116.079 61.2883 116.832 62.1164 118.292 62.1164C119.106 62.1164 119.85 61.8497 120.524 61.3163L120.959 62.327C120.641 62.6077 120.234 62.8323 119.738 63.0007C119.251 63.1598 118.76 63.2394 118.264 63.2394C117.132 63.2394 116.243 62.9165 115.597 62.2708C114.951 61.6158 114.628 60.7221 114.628 59.5898C114.628 58.8692 114.769 58.2282 115.049 57.6668C115.34 57.1053 115.742 56.6701 116.257 56.3613C116.771 56.0525 117.356 55.8981 118.011 55.8981C118.966 55.8981 119.714 56.2069 120.257 56.8245C120.809 57.4422 121.085 58.2984 121.085 59.3933V59.6319ZM118.039 56.9509C117.506 56.9509 117.071 57.11 116.734 57.4281C116.397 57.7463 116.182 58.2002 116.088 58.7897H119.836C119.78 58.1908 119.597 57.7369 119.289 57.4281C118.98 57.11 118.563 56.9509 118.039 56.9509ZM125.772 55.8981C127.466 55.8981 128.313 56.8433 128.313 58.7336V63.1411H126.895V58.8178C126.895 58.2002 126.773 57.751 126.53 57.4702C126.296 57.1895 125.917 57.0491 125.393 57.0491C124.794 57.0491 124.312 57.2363 123.947 57.6106C123.592 57.9849 123.414 58.4856 123.414 59.1125V63.1411H122.01V58.0598C122.01 57.3205 121.973 56.6561 121.898 56.0666H123.217L123.344 57.2878C123.568 56.8386 123.891 56.497 124.312 56.2631C124.743 56.0198 125.229 55.8981 125.772 55.8981ZM131.468 57.1614V60.7127C131.468 61.1994 131.571 61.5456 131.777 61.7515C131.992 61.948 132.287 62.0462 132.661 62.0462C132.904 62.0462 133.152 62.0088 133.405 61.9339V63.085C133.096 63.1879 132.745 63.2394 132.352 63.2394C131.622 63.2394 131.056 63.0335 130.654 62.6218C130.251 62.21 130.05 61.6111 130.05 60.825V57.1614H128.675V56.0666H130.05V54.2979L131.468 53.8066V56.0666H133.419V57.1614H131.468Z" fill="white"/>
<circle cx="98.2577" cy="85.1104" r="14.0368" transform="rotate(-9.07137 98.2577 85.1104)" fill="#00D6B1"/>
<g clip-path="url(#clip1)">
<path d="M119.062 20.5431C119.158 20.4983 119.201 20.3836 119.156 20.2871C118.919 19.7775 118.297 19.5146 117.737 19.7955C117.341 19.1653 116.533 18.9074 115.841 19.2289C115.744 19.2738 115.702 19.3884 115.747 19.485C115.792 19.5815 115.907 19.6233 116.003 19.5786C116.527 19.3351 117.133 19.5464 117.42 20.0339C117.152 20.3372 117.07 20.7818 117.252 21.1719C117.284 21.2423 117.354 21.2835 117.427 21.2835C117.566 21.2835 117.661 21.1381 117.601 21.0094C117.447 20.6773 117.591 20.2815 117.924 20.1272C118.256 19.9728 118.652 20.1174 118.806 20.4496C118.851 20.5462 118.965 20.5879 119.062 20.5431Z" fill="white"/>
<path d="M113.85 21.241C113.946 21.2853 114.061 21.2428 114.105 21.1461C114.15 21.0493 114.107 20.9348 114.01 20.8904C113.462 20.6391 112.782 20.8284 112.473 21.4307C112.132 21.3269 111.755 21.3378 111.407 21.4994C111.31 21.5443 111.268 21.6589 111.313 21.7556C111.358 21.8521 111.473 21.8939 111.569 21.8491C112.126 21.5902 112.79 21.8329 113.049 22.39C113.082 22.4603 113.151 22.5016 113.224 22.5016C113.363 22.5016 113.459 22.3562 113.399 22.2274C113.271 21.9521 113.068 21.7352 112.827 21.5865C113.045 21.1903 113.489 21.0756 113.85 21.241Z" fill="white"/>
<path d="M117.199 22.8429C117.113 22.905 117.093 23.0255 117.155 23.1119C117.217 23.1984 117.338 23.2183 117.424 23.1561C117.782 22.8998 118.279 22.9812 118.535 23.3387C118.573 23.3912 118.632 23.419 118.692 23.419C118.846 23.419 118.941 23.2426 118.848 23.1138C118.467 22.5832 117.73 22.462 117.199 22.8429Z" fill="white"/>
<path d="M115.583 21.8497C115.512 22.2838 115.103 22.5774 114.669 22.5061C114.563 22.4888 114.464 22.5601 114.447 22.6652C114.43 22.7702 114.501 22.8694 114.606 22.8867C114.671 22.8973 114.736 22.9025 114.8 22.9025C115.359 22.9025 115.867 22.4997 115.964 21.9122C115.981 21.8071 115.91 21.7079 115.805 21.6907C115.7 21.6733 115.601 21.7447 115.583 21.8497Z" fill="white"/>
<path d="M121.786 21.5955C121.879 20.9807 121.477 20.311 120.879 20.0722C120.901 19.8478 120.849 19.6108 120.728 19.388C120.677 19.2945 120.56 19.2599 120.466 19.311C120.373 19.362 120.338 19.4789 120.389 19.5724C120.494 19.7647 120.525 19.9749 120.474 20.1493C120.442 20.2553 120.507 20.3654 120.614 20.3911C121.144 20.5184 121.522 21.136 121.386 21.6252C121.364 21.7069 121.397 21.7939 121.469 21.8393C121.814 22.0588 121.932 22.6475 121.666 23.1222C121.582 22.9281 121.44 22.6897 121.182 22.4647C121.101 22.3948 120.979 22.4033 120.91 22.4836C120.84 22.564 120.848 22.6856 120.929 22.7556C121.178 22.9726 121.34 23.2358 121.404 23.5597C121.406 23.5691 121.402 23.5785 121.405 23.5878C121.646 24.2899 120.938 25.1496 120.336 24.8786C120.324 24.8732 120.312 24.8803 120.3 24.8776C120.166 24.7955 120.019 24.7388 119.856 24.7388H118.904C118.798 24.7388 118.712 24.825 118.712 24.9315C118.712 25.0379 118.798 25.1243 118.904 25.1243H119.856C120.169 25.1243 120.399 25.4191 120.321 25.7228C120.319 25.7327 120.305 25.8067 120.251 26.0995C120.153 26.4738 119.815 26.7345 119.428 26.7345H118.205C117.818 26.7345 117.481 26.4738 117.382 26.0995C117.328 25.8067 117.315 25.7327 117.312 25.7228C117.235 25.4195 117.464 25.1243 117.777 25.1243H118.078C118.185 25.1243 118.271 25.0379 118.271 24.9315C118.271 24.825 118.185 24.7388 118.078 24.7388H117.777C117.214 24.7388 116.802 25.267 116.937 25.8115C116.989 26.0918 117.005 26.1793 117.007 26.1888C117.147 26.7371 117.64 27.12 118.205 27.12H119.308L119.812 29.4338C119.835 29.539 119.809 29.6472 119.742 29.731C119.552 29.9669 119.165 29.8707 119.117 29.5613C119.009 28.8629 118.365 28.2206 116.963 27.4137C116.013 26.8672 115.726 26.0787 115.841 25.3998C116.192 25.5606 116.133 25.7273 116.316 25.7273C116.47 25.7273 116.565 25.551 116.473 25.4222C116.311 25.1973 116.08 25.0636 115.832 24.9932C115.814 24.9752 115.802 24.9509 115.776 24.9413C115.726 24.9228 115.673 24.9269 115.628 24.9479C115.352 24.9205 115.066 24.9773 114.824 25.1513C114.737 25.2133 114.717 25.3337 114.779 25.4203C114.841 25.5067 114.962 25.5265 115.048 25.4644C115.174 25.374 115.318 25.3401 115.462 25.3312C115.438 25.4747 115.43 25.6706 115.45 25.8899C113.964 26.1804 113.074 25.7568 112.51 24.4797C112.464 24.2864 112.42 23.9717 112.462 23.8397C112.495 23.7384 112.439 23.6298 112.338 23.597C112.237 23.5643 112.128 23.62 112.095 23.7213C112.033 23.9139 112.065 24.1894 112.099 24.3834C111.735 24.4108 111.463 24.2146 111.412 24.0792C111.392 24.0274 111.352 23.9864 111.3 23.9669C111.191 23.9257 111.143 23.9898 111.033 24.0203C110.483 24.1735 109.938 23.4525 110.095 22.7875C110.142 22.5883 109.904 22.5883 109.779 22.1356C109.644 21.652 109.837 21.1734 110.21 21.0689C110.319 21.0382 110.379 20.9203 110.338 20.8141C110.11 20.2204 110.504 19.4719 111.041 19.4505C111.138 19.4467 111.217 19.3714 111.226 19.2748C111.278 18.686 111.888 18.1892 112.392 18.3339C112.475 18.3579 112.565 18.3229 112.61 18.2484C112.852 17.8489 113.409 17.6434 113.84 17.7917C113.768 17.9011 113.703 18.0448 113.692 18.2C113.652 18.2086 113.608 18.214 113.573 18.2257C113.288 18.3191 113.097 18.5047 113.089 18.5124C113.013 18.5872 113.012 18.7092 113.087 18.7851C113.161 18.8611 113.283 18.8621 113.359 18.7874C113.38 18.7666 113.883 18.2833 114.396 18.7874C114.433 18.8243 114.482 18.8426 114.531 18.8426C114.702 18.8426 114.789 18.6335 114.666 18.5124C114.467 18.3165 114.266 18.224 114.081 18.1893C114.109 18.0577 114.227 17.9106 114.273 17.8644C114.276 17.8616 114.275 17.8573 114.277 17.8545C114.762 17.3307 115.541 17.383 115.829 17.791C115.861 17.8361 115.911 17.8654 115.965 17.8715C116.02 17.8774 116.075 17.8599 116.116 17.823C116.563 17.4191 117.418 17.5456 117.668 18.0595C117.709 18.1425 117.803 18.1851 117.892 18.1612C118.407 18.0229 119.031 18.3649 119.157 18.8579C119.18 18.9507 119.269 19.0123 119.363 19.0019C119.522 18.9854 119.69 19.0141 119.852 19.085C119.949 19.1278 120.063 19.0835 120.106 18.9861C120.148 18.8885 120.104 18.7748 120.007 18.7319C119.835 18.6568 119.656 18.6163 119.48 18.6122C119.245 18.0378 118.568 17.6669 117.938 17.7587C117.541 17.1793 116.63 17.0197 116.013 17.4178C115.52 16.9509 114.629 16.9879 114.103 17.483C113.534 17.2038 112.76 17.4083 112.359 17.9339C111.711 17.8448 111.016 18.3691 110.865 19.0857C110.201 19.2286 109.752 20.0303 109.923 20.7709C109.267 21.1196 109.154 22.1508 109.7 22.801C109.552 23.7395 110.352 24.6249 111.151 24.3874C111.365 24.6539 111.821 24.8363 112.219 24.7715C112.901 26.1904 114.006 26.5614 115.518 26.2696C115.649 26.7292 115.978 27.292 116.77 27.7478C118.043 28.4802 118.649 29.0576 118.736 29.6201C118.792 29.984 119.099 30.2481 119.466 30.2481C119.938 30.2481 120.289 29.8121 120.189 29.3518L119.693 27.0754C120.207 26.9607 120.557 26.5527 120.629 26.1766C120.666 25.8437 120.796 25.6852 120.644 25.2979C121.426 25.2323 121.983 24.3606 121.804 23.5834C122.327 23.026 122.335 22.061 121.786 21.5955Z" fill="white"/>
</g>
</g>
<defs>
<clipPath id="clip0">
<rect y="0.889526" width="143" height="84.2209" fill="white"/>
</clipPath>
<clipPath id="clip1">
<rect x="108.785" y="16.681" width="14.0368" height="14.0368" fill="white"/>
</clipPath>
</defs>
</svg>
