<svg width="30" height="30" viewBox="0 0 30 30" fill="none" xmlns="http://www.w3.org/2000/svg">
<path d="M23.0174 14.4828C22.7319 14.4828 22.5002 14.714 22.5002 15V18.1034C22.5002 22.0966 19.2519 25.3448 15.2588 25.3448C11.2657 25.3448 8.01739 22.0966 8.01739 18.1034V15C8.01739 14.714 7.78567 14.4828 7.50015 14.4828C7.21463 14.4828 6.98291 14.714 6.98291 15V18.1034C6.98291 22.4922 10.4195 26.084 14.7415 26.3529V28.9655H12.1553C11.8698 28.9655 11.6381 29.1967 11.6381 29.4828C11.6381 29.7688 11.8698 30 12.1553 30H18.3622C18.6477 30 18.8795 29.7688 18.8795 29.4828C18.8795 29.1967 18.6477 28.9655 18.3622 28.9655H15.776V26.3529C20.0981 26.084 23.5346 22.4917 23.5346 18.1034V15C23.5346 14.714 23.3029 14.4828 23.0174 14.4828Z" fill="#828282"/>
<path d="M15.2585 23.7931C18.3956 23.7931 20.9482 21.2405 20.9482 18.1034V5.68966C20.9482 2.55259 18.3956 0 15.2585 0C12.1214 0 9.56885 2.55259 9.56885 5.68966V18.1034C9.56885 21.2405 12.1214 23.7931 15.2585 23.7931ZM10.6033 5.68966C10.6033 3.12259 12.692 1.03448 15.2585 1.03448C17.8251 1.03448 19.9137 3.12259 19.9137 5.68966V18.1034C19.9137 20.6705 17.8251 22.7586 15.2585 22.7586C12.692 22.7586 10.6033 20.6705 10.6033 18.1034V5.68966Z" fill="#828282"/>
<path d="M27.0036 2.22053C26.8013 2.01829 26.4744 2.01829 26.2722 2.22053L21.617 6.8757C21.4148 7.07794 21.4148 7.40484 21.617 7.60708C21.7179 7.70794 21.8503 7.75863 21.9827 7.75863C22.1151 7.75863 22.2475 7.70794 22.3484 7.60708L27.0036 2.95191C27.2058 2.74967 27.2058 2.42277 27.0036 2.22053Z" fill="#828282"/>
<path d="M19.245 10.7105C19.4473 10.5083 19.4473 10.1814 19.245 9.97913C19.0428 9.77689 18.7159 9.77689 18.5137 9.97913L11.2723 17.2205C11.07 17.4228 11.07 17.7496 11.2723 17.9519C11.3731 18.0528 11.5056 18.1034 11.638 18.1034C11.7704 18.1034 11.9028 18.0528 12.0037 17.9519L19.245 10.7105Z" fill="#828282"/>
<path d="M6.6171 21.8757L2.99641 25.4964C2.79417 25.6986 2.79417 26.0255 2.99641 26.2277C3.09727 26.3286 3.22968 26.3793 3.3621 26.3793C3.49451 26.3793 3.62692 26.3286 3.72779 26.2277L7.34848 22.6071C7.55072 22.4048 7.55072 22.0779 7.34848 21.8757C7.14624 21.6734 6.81934 21.6734 6.6171 21.8757Z" fill="#828282"/>
</svg>
