<svg width="183" height="183" viewBox="0 0 183 183" fill="none" xmlns="http://www.w3.org/2000/svg">
<path fill-rule="evenodd" clip-rule="evenodd" d="M144.895 122.017C161.743 92.8349 151.665 55.2221 122.482 38.3736C92.8348 21.2566 55.222 31.3349 38.3735 60.5174C21.2565 90.1649 31.3348 127.778 60.9824 144.895C90.1648 161.743 127.778 151.665 144.895 122.017Z" stroke="#DBECF8" stroke-opacity="0.5" stroke-width="10"/>
<path d="M116.596 147.628C128.055 142.489 138.093 133.798 144.895 122.017C161.743 92.8349 151.665 55.2221 122.482 38.3736C92.8348 21.2565 55.222 31.3349 38.3736 60.5173" stroke="#1B2CC1" stroke-width="10" stroke-linecap="round" stroke-linejoin="round"/>
<mask id="mask0" mask-type="alpha" maskUnits="userSpaceOnUse" x="16" y="4" width="163" height="153">
<path fill-rule="evenodd" clip-rule="evenodd" d="M116.596 147.628C128.055 142.489 138.093 133.798 144.895 122.017C161.743 92.8349 151.665 55.2221 122.482 38.3736C92.8348 21.2565 55.222 31.3349 38.3736 60.5173" fill="white"/>
<path d="M116.596 147.628C128.055 142.489 138.093 133.798 144.895 122.017C161.743 92.8349 151.665 55.2221 122.482 38.3736C92.8348 21.2565 55.222 31.3349 38.3736 60.5173" stroke="white" stroke-width="5.04615" stroke-linecap="round" stroke-linejoin="round"/>
</mask>
<g mask="url(#mask0)">
</g>
<circle cx="111" cy="150" r="12.25" fill="#1B2CC1" stroke="white" stroke-width="1.5"/>
<g clip-path="url(#clip0)">
<path d="M115.854 146.475C115.658 146.279 115.342 146.279 115.146 146.475L109.156 152.465L106.854 150.162C106.658 149.967 106.342 149.967 106.146 150.162C105.951 150.358 105.951 150.674 106.146 150.869L108.803 153.526C108.998 153.721 109.315 153.721 109.51 153.526L115.854 147.182C116.049 146.986 116.049 146.67 115.854 146.475Z" fill="white"/>
</g>
<path d="M67.4816 76.608V88H65.2576L60.0896 81.536V88H57.2896V76.608H59.4816L64.6496 83.04V76.608H67.4816ZM77.5556 79.872V88H74.7236V86.912C74.201 87.7227 73.4276 88.128 72.4036 88.128C71.369 88.128 70.5956 87.84 70.0836 87.264C69.5823 86.688 69.3316 85.808 69.3316 84.624V79.872H72.2276V84.704C72.2276 85.504 72.5743 85.904 73.2676 85.904C73.673 85.904 73.9983 85.76 74.2436 85.472C74.4996 85.184 74.6276 84.8 74.6276 84.32V79.872H77.5556ZM84.0859 85.792C84.2779 85.792 84.5339 85.76 84.8539 85.696V87.888C84.4592 88.048 83.9579 88.128 83.3499 88.128C82.2512 88.128 81.4139 87.8187 80.8379 87.2C80.2725 86.5813 79.9899 85.7227 79.9899 84.624V82H78.4699V79.872H79.9899V78.032L82.8859 77.104V79.872H84.8379V82H82.8859V84.624C82.8859 85.008 82.9979 85.3013 83.2219 85.504C83.4565 85.696 83.7445 85.792 84.0859 85.792ZM91.0781 79.68C91.4728 79.68 91.7768 79.7387 91.9901 79.856V82.496C91.5315 82.2827 91.0888 82.176 90.6621 82.176C89.4461 82.176 88.8381 82.7573 88.8381 83.92V88H85.9421V82.208C85.9421 81.3333 85.8995 80.5547 85.8141 79.872H88.5341L88.7101 81.232C88.9021 80.7307 89.2115 80.3467 89.6381 80.08C90.0648 79.8133 90.5448 79.68 91.0781 79.68ZM92.8171 79.872H95.7131V88H92.8171V79.872ZM95.7611 75.888V78.496H92.7371V75.888H95.7611ZM102.242 85.792C102.434 85.792 102.69 85.76 103.01 85.696V87.888C102.615 88.048 102.114 88.128 101.506 88.128C100.407 88.128 99.5701 87.8187 98.9941 87.2C98.4288 86.5813 98.1461 85.7227 98.1461 84.624V82H96.6261V79.872H98.1461V78.032L101.042 77.104V79.872H102.994V82H101.042V84.624C101.042 85.008 101.154 85.3013 101.378 85.504C101.613 85.696 101.901 85.792 102.242 85.792ZM104.098 79.872H106.994V88H104.098V79.872ZM107.042 75.888V78.496H104.018V75.888H107.042ZM112.819 88.128C111.913 88.128 111.123 87.9573 110.451 87.616C109.779 87.2747 109.262 86.784 108.899 86.144C108.537 85.504 108.355 84.752 108.355 83.888C108.355 83.024 108.537 82.272 108.899 81.632C109.262 80.992 109.779 80.5013 110.451 80.16C111.123 79.8187 111.913 79.648 112.819 79.648C113.715 79.648 114.494 79.824 115.155 80.176C115.827 80.5173 116.345 81.008 116.707 81.648C117.07 82.2773 117.251 83.024 117.251 83.888C117.251 84.752 117.07 85.504 116.707 86.144C116.345 86.7733 115.827 87.264 115.155 87.616C114.494 87.9573 113.715 88.128 112.819 88.128ZM112.819 85.968C113.865 85.968 114.387 85.2747 114.387 83.888C114.387 83.184 114.254 82.6667 113.987 82.336C113.731 81.9947 113.342 81.824 112.819 81.824C112.286 81.824 111.886 81.9947 111.619 82.336C111.353 82.6667 111.219 83.184 111.219 83.888C111.219 84.6027 111.353 85.1307 111.619 85.472C111.886 85.8027 112.286 85.968 112.819 85.968ZM124.054 79.648C125.014 79.648 125.729 79.9413 126.198 80.528C126.678 81.104 126.918 81.9787 126.918 83.152V88H124.022V83.28C124.022 82.7787 123.937 82.4213 123.766 82.208C123.595 81.984 123.329 81.872 122.966 81.872C122.529 81.872 122.177 82.0213 121.91 82.32C121.643 82.608 121.51 82.992 121.51 83.472V88H118.614V82.208C118.614 81.3333 118.571 80.5547 118.486 79.872H121.206L121.35 81.072C121.659 80.6133 122.043 80.2613 122.502 80.016C122.961 79.7707 123.478 79.648 124.054 79.648ZM53.8603 105.648H48.8043L47.7963 108H44.7882L50.1163 96.608H52.4843L57.8283 108H54.8683L53.8603 105.648ZM52.8843 103.392L51.3323 99.792L49.7803 103.392H52.8843ZM61.4253 108.128C59.8039 108.128 58.5239 107.803 57.5853 107.152L58.3213 105.184C58.7586 105.483 59.2546 105.717 59.8093 105.888C60.3639 106.048 60.9079 106.128 61.4413 106.128C61.7719 106.128 62.0279 106.08 62.2093 105.984C62.3906 105.888 62.4813 105.755 62.4813 105.584C62.4813 105.435 62.4119 105.317 62.2733 105.232C62.1453 105.136 61.8946 105.051 61.5213 104.976L60.2093 104.672C59.3773 104.501 58.7746 104.235 58.4013 103.872C58.0386 103.499 57.8573 102.987 57.8573 102.336C57.8573 101.813 58.0119 101.349 58.3213 100.944C58.6306 100.539 59.0573 100.224 59.6013 100C60.1559 99.7653 60.7906 99.648 61.5052 99.648C62.0919 99.648 62.6679 99.7333 63.2333 99.904C63.7986 100.075 64.3266 100.315 64.8173 100.624L64.0493 102.544C63.6226 102.267 63.1853 102.053 62.7373 101.904C62.2893 101.755 61.8679 101.68 61.4733 101.68C61.1533 101.68 60.9026 101.733 60.7213 101.84C60.5399 101.936 60.4493 102.08 60.4493 102.272C60.4493 102.389 60.5026 102.485 60.6093 102.56C60.7159 102.624 60.9186 102.693 61.2173 102.768L62.5773 103.072C63.4413 103.275 64.0599 103.573 64.4333 103.968C64.8173 104.352 65.0093 104.88 65.0093 105.552C65.0093 106.352 64.6893 106.981 64.0493 107.44C63.4199 107.899 62.5453 108.128 61.4253 108.128ZM69.5346 108.128C67.9133 108.128 66.6333 107.803 65.6946 107.152L66.4306 105.184C66.868 105.483 67.364 105.717 67.9186 105.888C68.4733 106.048 69.0173 106.128 69.5506 106.128C69.8813 106.128 70.1373 106.08 70.3186 105.984C70.5 105.888 70.5906 105.755 70.5906 105.584C70.5906 105.435 70.5213 105.317 70.3826 105.232C70.2546 105.136 70.004 105.051 69.6306 104.976L68.3186 104.672C67.4866 104.501 66.884 104.235 66.5106 103.872C66.148 103.499 65.9666 102.987 65.9666 102.336C65.9666 101.813 66.1213 101.349 66.4306 100.944C66.74 100.539 67.1666 100.224 67.7106 100C68.2653 99.7653 68.9 99.648 69.6146 99.648C70.2013 99.648 70.7773 99.7333 71.3426 99.904C71.908 100.075 72.436 100.315 72.9266 100.624L72.1586 102.544C71.732 102.267 71.2946 102.053 70.8466 101.904C70.3986 101.755 69.9773 101.68 69.5826 101.68C69.2626 101.68 69.012 101.733 68.8306 101.84C68.6493 101.936 68.5586 102.08 68.5586 102.272C68.5586 102.389 68.612 102.485 68.7186 102.56C68.8253 102.624 69.028 102.693 69.3266 102.768L70.6866 103.072C71.5506 103.275 72.1693 103.573 72.5426 103.968C72.9266 104.352 73.1186 104.88 73.1186 105.552C73.1186 106.352 72.7986 106.981 72.1586 107.44C71.5293 107.899 70.6546 108.128 69.5346 108.128ZM81.868 104.224H76.764C76.8173 104.853 76.9987 105.307 77.308 105.584C77.6173 105.861 78.0707 106 78.668 106C79.0733 106 79.4787 105.936 79.884 105.808C80.2893 105.669 80.6573 105.483 80.988 105.248L81.724 107.168C81.3187 107.467 80.828 107.701 80.252 107.872C79.676 108.043 79.1 108.128 78.524 108.128C77.596 108.128 76.7907 107.957 76.108 107.616C75.4253 107.275 74.9027 106.789 74.54 106.16C74.1773 105.52 73.996 104.768 73.996 103.904C73.996 103.083 74.1667 102.352 74.508 101.712C74.86 101.061 75.34 100.555 75.948 100.192C76.5667 99.8293 77.2707 99.648 78.06 99.648C78.828 99.648 79.5 99.8187 80.076 100.16C80.652 100.501 81.0947 100.992 81.404 101.632C81.7133 102.261 81.868 102.997 81.868 103.84V104.224ZM78.14 101.632C77.4253 101.632 76.9773 102.048 76.796 102.88H79.388C79.2813 102.048 78.8653 101.632 78.14 101.632ZM86.4878 108.128C84.8664 108.128 83.5864 107.803 82.6478 107.152L83.3838 105.184C83.8211 105.483 84.3171 105.717 84.8718 105.888C85.4264 106.048 85.9704 106.128 86.5038 106.128C86.8344 106.128 87.0904 106.08 87.2718 105.984C87.4531 105.888 87.5438 105.755 87.5438 105.584C87.5438 105.435 87.4744 105.317 87.3358 105.232C87.2078 105.136 86.9571 105.051 86.5838 104.976L85.2718 104.672C84.4398 104.501 83.8371 104.235 83.4638 103.872C83.1011 103.499 82.9198 102.987 82.9198 102.336C82.9198 101.813 83.0744 101.349 83.3838 100.944C83.6931 100.539 84.1198 100.224 84.6638 100C85.2184 99.7653 85.8531 99.648 86.5677 99.648C87.1544 99.648 87.7304 99.7333 88.2958 99.904C88.8611 100.075 89.3891 100.315 89.8798 100.624L89.1118 102.544C88.6851 102.267 88.2478 102.053 87.7998 101.904C87.3518 101.755 86.9304 101.68 86.5358 101.68C86.2158 101.68 85.9651 101.733 85.7838 101.84C85.6024 101.936 85.5118 102.08 85.5118 102.272C85.5118 102.389 85.5651 102.485 85.6718 102.56C85.7784 102.624 85.9811 102.693 86.2798 102.768L87.6398 103.072C88.5038 103.275 89.1224 103.573 89.4958 103.968C89.8798 104.352 90.0718 104.88 90.0718 105.552C90.0718 106.352 89.7518 106.981 89.1118 107.44C88.4824 107.899 87.6078 108.128 86.4878 108.128ZM94.5971 108.128C92.9758 108.128 91.6958 107.803 90.7571 107.152L91.4931 105.184C91.9305 105.483 92.4265 105.717 92.9811 105.888C93.5358 106.048 94.0798 106.128 94.6131 106.128C94.9438 106.128 95.1998 106.08 95.3811 105.984C95.5625 105.888 95.6531 105.755 95.6531 105.584C95.6531 105.435 95.5838 105.317 95.4451 105.232C95.3171 105.136 95.0665 105.051 94.6931 104.976L93.3811 104.672C92.5491 104.501 91.9465 104.235 91.5731 103.872C91.2105 103.499 91.0291 102.987 91.0291 102.336C91.0291 101.813 91.1838 101.349 91.4931 100.944C91.8025 100.539 92.2291 100.224 92.7731 100C93.3278 99.7653 93.9625 99.648 94.6771 99.648C95.2638 99.648 95.8398 99.7333 96.4051 99.904C96.9705 100.075 97.4985 100.315 97.9891 100.624L97.2211 102.544C96.7945 102.267 96.3571 102.053 95.9091 101.904C95.4611 101.755 95.0398 101.68 94.6451 101.68C94.3251 101.68 94.0745 101.733 93.8931 101.84C93.7118 101.936 93.6211 102.08 93.6211 102.272C93.6211 102.389 93.6745 102.485 93.7811 102.56C93.8878 102.624 94.0905 102.693 94.3891 102.768L95.7491 103.072C96.6131 103.275 97.2318 103.573 97.6051 103.968C97.9891 104.352 98.1811 104.88 98.1811 105.552C98.1811 106.352 97.8611 106.981 97.2211 107.44C96.5918 107.899 95.7171 108.128 94.5971 108.128ZM109.779 99.648C110.717 99.648 111.411 99.936 111.859 100.512C112.317 101.088 112.547 101.968 112.547 103.152V108H109.651V103.232C109.651 102.752 109.576 102.405 109.427 102.192C109.288 101.979 109.048 101.872 108.707 101.872C108.301 101.872 107.987 102.021 107.763 102.32C107.539 102.619 107.427 103.04 107.427 103.584V108H104.531V103.232C104.531 102.752 104.456 102.405 104.307 102.192C104.157 101.979 103.917 101.872 103.587 101.872C103.181 101.872 102.867 102.021 102.643 102.32C102.429 102.619 102.323 103.04 102.323 103.584V108H99.4265V102.208C99.4265 101.333 99.3838 100.555 99.2985 99.872H102.019L102.163 101.008C102.408 100.571 102.749 100.235 103.187 100C103.635 99.7653 104.147 99.648 104.723 99.648C105.885 99.648 106.675 100.139 107.091 101.12C107.379 100.672 107.757 100.315 108.227 100.048C108.707 99.7813 109.224 99.648 109.779 99.648ZM121.727 104.224H116.623C116.677 104.853 116.858 105.307 117.167 105.584C117.477 105.861 117.93 106 118.527 106C118.933 106 119.338 105.936 119.743 105.808C120.149 105.669 120.517 105.483 120.847 105.248L121.583 107.168C121.178 107.467 120.687 107.701 120.111 107.872C119.535 108.043 118.959 108.128 118.383 108.128C117.455 108.128 116.65 107.957 115.967 107.616C115.285 107.275 114.762 106.789 114.399 106.16C114.037 105.52 113.855 104.768 113.855 103.904C113.855 103.083 114.026 102.352 114.367 101.712C114.719 101.061 115.199 100.555 115.807 100.192C116.426 99.8293 117.13 99.648 117.919 99.648C118.687 99.648 119.359 99.8187 119.935 100.16C120.511 100.501 120.954 100.992 121.263 101.632C121.573 102.261 121.727 102.997 121.727 103.84V104.224ZM117.999 101.632C117.285 101.632 116.837 102.048 116.655 102.88H119.247C119.141 102.048 118.725 101.632 117.999 101.632ZM128.507 99.648C129.467 99.648 130.182 99.9413 130.651 100.528C131.131 101.104 131.371 101.979 131.371 103.152V108H128.475V103.28C128.475 102.779 128.39 102.421 128.219 102.208C128.048 101.984 127.782 101.872 127.419 101.872C126.982 101.872 126.63 102.021 126.363 102.32C126.096 102.608 125.963 102.992 125.963 103.472V108H123.067V102.208C123.067 101.333 123.024 100.555 122.939 99.872H125.659L125.803 101.072C126.112 100.613 126.496 100.261 126.955 100.016C127.414 99.7707 127.931 99.648 128.507 99.648ZM137.852 105.792C138.044 105.792 138.3 105.76 138.62 105.696V107.888C138.225 108.048 137.724 108.128 137.116 108.128C136.017 108.128 135.18 107.819 134.604 107.2C134.038 106.581 133.756 105.723 133.756 104.624V102H132.236V99.872H133.756V98.032L136.652 97.104V99.872H138.604V102H136.652V104.624C136.652 105.008 136.764 105.301 136.988 105.504C137.222 105.696 137.51 105.792 137.852 105.792Z" fill="black"/>
<defs>
<clipPath id="clip0">
<rect x="106" y="145" width="10" height="10" fill="white"/>
</clipPath>
</defs>
</svg>
