<svg width="30" height="30" viewBox="0 0 30 30" fill="none" xmlns="http://www.w3.org/2000/svg">
<path d="M14.202 3.87898C13.7145 3.60298 13.1365 3.61198 12.657 3.90098C12.634 3.91448 12.612 3.93048 12.592 3.94748L5.817 9.67898H0.5C0.2235 9.67898 0 9.90248 0 10.179V19.679C0 19.812 0.0525 19.939 0.1465 20.0325C0.2405 20.126 0.367 20.179 0.5 20.179L5.805 20.1765L12.5765 26.3965C12.6015 26.4195 12.6285 26.4395 12.657 26.4565C12.903 26.605 13.1755 26.6795 13.448 26.6795C13.7065 26.679 13.9645 26.6125 14.202 26.4785C14.7015 26.1965 15 25.6815 15 25.1005V5.25698C15 4.67648 14.7015 4.16148 14.202 3.87898ZM14 25.1005C14 25.316 13.8915 25.5055 13.7105 25.608C13.633 25.6515 13.4365 25.7355 13.2105 25.621L6.5 19.4565V17.1785C6.5 16.902 6.2765 16.6785 6 16.6785C5.7235 16.6785 5.5 16.902 5.5 17.1785V19.1765L1 19.1785V10.6785H5.5V12.6785C5.5 12.955 5.7235 13.1785 6 13.1785C6.2765 13.1785 6.5 12.955 6.5 12.6785V10.4105L13.2025 4.74048C13.433 4.61948 13.633 4.70548 13.7105 4.74948C13.8915 4.85198 14 5.04148 14 5.25698V25.1005Z" fill="#828282"/>
<path d="M26.0128 14.929C26.0128 10.7555 23.3548 7.049 19.3983 5.7055C19.1373 5.617 18.8528 5.757 18.7638 6.0185C18.6753 6.2795 18.8153 6.564 19.0768 6.653C22.6273 7.8585 25.0128 11.1845 25.0128 14.9295C25.0128 18.671 22.6318 21.9975 19.0883 23.2065C18.8273 23.2955 18.6873 23.5795 18.7768 23.8415C18.8478 24.049 19.0418 24.18 19.2498 24.18C19.3033 24.18 19.3578 24.1715 19.4113 24.153C23.3603 22.8055 26.0128 19.099 26.0128 14.929Z" fill="#828282"/>
<path d="M22.2264 3.18699C21.9724 3.08049 21.6789 3.19749 21.5704 3.45199C21.4629 3.70649 21.5814 3.99999 21.8359 4.10799C26.1879 5.95449 28.9999 10.2025 28.9999 14.929C28.9999 19.8175 26.0529 24.119 21.4924 25.886C21.2349 25.986 21.1069 26.2755 21.2069 26.533C21.2834 26.731 21.4729 26.8525 21.6734 26.8525C21.7334 26.8525 21.7944 26.842 21.8539 26.819C26.8024 24.9005 29.9999 20.2335 29.9999 14.929C29.9999 9.79999 26.9484 5.19099 22.2264 3.18699Z" fill="#828282"/>
<path d="M21.5132 14.929C21.5132 11.943 19.5087 9.27797 16.6387 8.44797C16.3737 8.37247 16.0967 8.52397 16.0197 8.78997C15.9432 9.05497 16.0957 9.33248 16.3617 9.40898C18.8062 10.1155 20.5137 12.3855 20.5137 14.929C20.5137 17.4725 18.8062 19.7425 16.3617 20.449C16.0962 20.5255 15.9432 20.803 16.0197 21.068C16.0832 21.287 16.2827 21.4295 16.5002 21.4295C16.5462 21.4295 16.5927 21.423 16.6387 21.41C19.5092 20.5795 21.5132 17.9145 21.5132 14.929Z" fill="#828282"/>
</svg>
