<svg width="305" height="105" viewBox="0 0 305 105" fill="none" xmlns="http://www.w3.org/2000/svg">
<rect width="305" height="102" rx="20" fill="#0066F5"/>
<path d="M121.336 41.128C120.237 41.128 119.277 40.8933 118.456 40.424C117.645 39.944 117.021 39.2667 116.584 38.392C116.147 37.5173 115.928 36.4827 115.928 35.288C115.928 34.104 116.147 33.0747 116.584 32.2C117.021 31.3253 117.645 30.6533 118.456 30.184C119.277 29.7147 120.237 29.48 121.336 29.48C122.115 29.48 122.835 29.6027 123.496 29.848C124.168 30.0827 124.733 30.4293 125.192 30.888L124.616 32.104C124.083 31.6667 123.555 31.352 123.032 31.16C122.52 30.9573 121.96 30.856 121.352 30.856C120.168 30.856 119.251 31.24 118.6 32.008C117.96 32.776 117.64 33.8693 117.64 35.288C117.64 36.7173 117.96 37.8213 118.6 38.6C119.251 39.368 120.168 39.752 121.352 39.752C121.96 39.752 122.52 39.656 123.032 39.464C123.555 39.2613 124.083 38.9413 124.616 38.504L125.192 39.72C124.733 40.1787 124.168 40.5307 123.496 40.776C122.835 41.0107 122.115 41.128 121.336 41.128ZM126.481 29.224H128.081V41H126.481V29.224ZM129.81 32.936H131.41V41H129.81V32.936ZM131.538 29.416V31.112H129.666V29.416H131.538ZM136.643 41.112C135.832 41.112 135.123 40.9413 134.515 40.6C133.918 40.2587 133.459 39.7787 133.139 39.16C132.819 38.5307 132.659 37.8 132.659 36.968C132.659 36.136 132.824 35.4 133.155 34.76C133.496 34.12 133.971 33.624 134.579 33.272C135.187 32.92 135.896 32.744 136.707 32.744C137.272 32.744 137.816 32.84 138.339 33.032C138.862 33.2133 139.283 33.464 139.603 33.784L139.107 34.952C138.35 34.3547 137.587 34.056 136.819 34.056C136.04 34.056 135.432 34.312 134.995 34.824C134.558 35.3253 134.339 36.0347 134.339 36.952C134.339 37.8693 134.558 38.5787 134.995 39.08C135.432 39.5707 136.04 39.816 136.819 39.816C137.608 39.816 138.371 39.5173 139.107 38.92L139.603 40.088C139.262 40.408 138.824 40.6587 138.291 40.84C137.768 41.0213 137.219 41.112 136.643 41.112ZM145.939 41L142.083 37.192V41H140.483V29.224H142.083V36.584L145.667 32.952H147.667L143.811 36.824L148.003 41H145.939ZM156.257 32.744C158.188 32.744 159.153 33.8213 159.153 35.976V41H157.537V36.072C157.537 35.368 157.398 34.856 157.121 34.536C156.854 34.216 156.422 34.056 155.825 34.056C155.142 34.056 154.593 34.2693 154.177 34.696C153.772 35.1227 153.569 35.6933 153.569 36.408V41H151.969V29.224H153.569V34.184C153.836 33.7147 154.204 33.3573 154.673 33.112C155.142 32.8667 155.67 32.744 156.257 32.744ZM167.693 37H161.933C161.987 38.888 162.845 39.832 164.509 39.832C165.437 39.832 166.285 39.528 167.053 38.92L167.549 40.072C167.187 40.392 166.723 40.648 166.157 40.84C165.603 41.0213 165.043 41.112 164.477 41.112C163.187 41.112 162.173 40.744 161.437 40.008C160.701 39.2613 160.333 38.2427 160.333 36.952C160.333 36.1307 160.493 35.4 160.813 34.76C161.144 34.12 161.603 33.624 162.189 33.272C162.776 32.92 163.443 32.744 164.189 32.744C165.277 32.744 166.131 33.096 166.749 33.8C167.379 34.504 167.693 35.48 167.693 36.728V37ZM164.221 33.944C163.613 33.944 163.117 34.1253 162.733 34.488C162.349 34.8507 162.104 35.368 161.997 36.04H166.269C166.205 35.3573 165.997 34.84 165.645 34.488C165.293 34.1253 164.819 33.944 164.221 33.944ZM172.924 32.744C173.169 32.744 173.425 32.7813 173.692 32.856L173.66 34.328C173.372 34.2213 173.057 34.168 172.716 34.168C171.98 34.168 171.425 34.392 171.052 34.84C170.689 35.2773 170.508 35.832 170.508 36.504V41H168.908V35.208C168.908 34.3653 168.865 33.608 168.78 32.936H170.284L170.428 34.392C170.641 33.8587 170.972 33.4533 171.42 33.176C171.868 32.888 172.369 32.744 172.924 32.744ZM181.007 37H175.247C175.3 38.888 176.159 39.832 177.823 39.832C178.751 39.832 179.599 39.528 180.367 38.92L180.863 40.072C180.5 40.392 180.036 40.648 179.471 40.84C178.916 41.0213 178.356 41.112 177.791 41.112C176.5 41.112 175.487 40.744 174.751 40.008C174.015 39.2613 173.647 38.2427 173.647 36.952C173.647 36.1307 173.807 35.4 174.127 34.76C174.458 34.12 174.916 33.624 175.503 33.272C176.09 32.92 176.756 32.744 177.503 32.744C178.591 32.744 179.444 33.096 180.063 33.8C180.692 34.504 181.007 35.48 181.007 36.728V37ZM177.535 33.944C176.927 33.944 176.431 34.1253 176.047 34.488C175.663 34.8507 175.418 35.368 175.311 36.04H179.583C179.519 35.3573 179.311 34.84 178.959 34.488C178.607 34.1253 178.132 33.944 177.535 33.944ZM187.943 34.184V38.232C187.943 38.7867 188.06 39.1813 188.295 39.416C188.54 39.64 188.876 39.752 189.303 39.752C189.58 39.752 189.863 39.7093 190.151 39.624V40.936C189.799 41.0533 189.399 41.112 188.951 41.112C188.119 41.112 187.474 40.8773 187.015 40.408C186.556 39.9387 186.327 39.256 186.327 38.36V34.184H184.759V32.936H186.327V30.92L187.943 30.36V32.936H190.167V34.184H187.943ZM194.492 41.112C193.702 41.112 193.009 40.9413 192.412 40.6C191.814 40.2587 191.35 39.7733 191.02 39.144C190.7 38.5147 190.54 37.7787 190.54 36.936C190.54 36.0933 190.7 35.3573 191.02 34.728C191.35 34.088 191.814 33.5973 192.412 33.256C193.009 32.9147 193.702 32.744 194.492 32.744C195.27 32.744 195.958 32.9147 196.556 33.256C197.153 33.5973 197.612 34.088 197.932 34.728C198.262 35.3573 198.428 36.0933 198.428 36.936C198.428 37.7787 198.262 38.5147 197.932 39.144C197.612 39.7733 197.153 40.2587 196.556 40.6C195.958 40.9413 195.27 41.112 194.492 41.112ZM194.476 39.832C195.222 39.832 195.793 39.5867 196.188 39.096C196.582 38.6053 196.78 37.8853 196.78 36.936C196.78 36.008 196.577 35.2933 196.172 34.792C195.777 34.2907 195.217 34.04 194.492 34.04C193.756 34.04 193.185 34.2907 192.78 34.792C192.374 35.2933 192.172 36.008 192.172 36.936C192.172 37.8853 192.369 38.6053 192.764 39.096C193.169 39.5867 193.74 39.832 194.476 39.832ZM206.118 41.112C204.71 41.112 203.601 40.7707 202.79 40.088L203.27 38.92C204.113 39.56 205.078 39.88 206.166 39.88C206.721 39.88 207.142 39.7893 207.43 39.608C207.718 39.416 207.862 39.1493 207.862 38.808C207.862 38.52 207.761 38.296 207.558 38.136C207.366 37.9653 207.035 37.8213 206.566 37.704L205.222 37.384C204.518 37.2347 203.979 36.9733 203.606 36.6C203.243 36.216 203.062 35.7413 203.062 35.176C203.062 34.4507 203.35 33.864 203.926 33.416C204.513 32.968 205.286 32.744 206.246 32.744C206.822 32.744 207.366 32.8347 207.878 33.016C208.401 33.1973 208.843 33.4533 209.206 33.784L208.71 34.92C207.931 34.3013 207.11 33.992 206.246 33.992C205.723 33.992 205.318 34.0933 205.03 34.296C204.742 34.488 204.598 34.76 204.598 35.112C204.598 35.3893 204.689 35.6133 204.87 35.784C205.051 35.9547 205.339 36.088 205.734 36.184L207.11 36.52C207.878 36.6907 208.443 36.9627 208.806 37.336C209.179 37.6987 209.366 38.1733 209.366 38.76C209.366 39.4853 209.073 40.0613 208.486 40.488C207.91 40.904 207.121 41.112 206.118 41.112ZM212.649 34.184V38.232C212.649 38.7867 212.766 39.1813 213.001 39.416C213.246 39.64 213.582 39.752 214.009 39.752C214.286 39.752 214.569 39.7093 214.857 39.624V40.936C214.505 41.0533 214.105 41.112 213.657 41.112C212.825 41.112 212.179 40.8773 211.721 40.408C211.262 39.9387 211.033 39.256 211.033 38.36V34.184H209.465V32.936H211.033V30.92L212.649 30.36V32.936H214.873V34.184H212.649ZM223.101 32.936V41H221.501V39.624C221.267 40.104 220.915 40.472 220.445 40.728C219.987 40.984 219.448 41.112 218.829 41.112C218.115 41.112 217.485 40.9413 216.941 40.6C216.408 40.2587 215.992 39.7787 215.693 39.16C215.395 38.5307 215.245 37.8 215.245 36.968C215.245 36.136 215.395 35.4 215.693 34.76C216.003 34.12 216.429 33.624 216.973 33.272C217.517 32.92 218.136 32.744 218.829 32.744C219.448 32.744 219.987 32.8773 220.445 33.144C220.904 33.4 221.256 33.768 221.501 34.248V32.936H223.101ZM219.213 39.832C219.939 39.832 220.499 39.5813 220.893 39.08C221.299 38.568 221.501 37.8533 221.501 36.936C221.501 36.008 221.299 35.2933 220.893 34.792C220.499 34.2907 219.933 34.04 219.197 34.04C218.472 34.04 217.901 34.3013 217.485 34.824C217.08 35.336 216.877 36.0507 216.877 36.968C216.877 37.8747 217.08 38.5787 217.485 39.08C217.901 39.5813 218.477 39.832 219.213 39.832ZM228.851 32.744C229.097 32.744 229.353 32.7813 229.619 32.856L229.587 34.328C229.299 34.2213 228.985 34.168 228.643 34.168C227.907 34.168 227.353 34.392 226.979 34.84C226.617 35.2773 226.435 35.832 226.435 36.504V41H224.835V35.208C224.835 34.3653 224.793 33.608 224.707 32.936H226.211L226.355 34.392C226.569 33.8587 226.899 33.4533 227.347 33.176C227.795 32.888 228.297 32.744 228.851 32.744ZM232.979 34.184V38.232C232.979 38.7867 233.096 39.1813 233.331 39.416C233.576 39.64 233.912 39.752 234.339 39.752C234.616 39.752 234.899 39.7093 235.187 39.624V40.936C234.835 41.0533 234.435 41.112 233.987 41.112C233.155 41.112 232.509 40.8773 232.051 40.408C231.592 39.9387 231.363 39.256 231.363 38.36V34.184H229.795V32.936H231.363V30.92L232.979 30.36V32.936H235.203V34.184H232.979ZM119 61.112C117.592 61.112 116.483 60.7707 115.672 60.088L116.152 58.92C116.995 59.56 117.96 59.88 119.048 59.88C119.603 59.88 120.024 59.7893 120.312 59.608C120.6 59.416 120.744 59.1493 120.744 58.808C120.744 58.52 120.643 58.296 120.44 58.136C120.248 57.9653 119.917 57.8213 119.448 57.704L118.104 57.384C117.4 57.2347 116.861 56.9733 116.488 56.6C116.125 56.216 115.944 55.7413 115.944 55.176C115.944 54.4507 116.232 53.864 116.808 53.416C117.395 52.968 118.168 52.744 119.128 52.744C119.704 52.744 120.248 52.8347 120.76 53.016C121.283 53.1973 121.725 53.4533 122.088 53.784L121.592 54.92C120.813 54.3013 119.992 53.992 119.128 53.992C118.605 53.992 118.2 54.0933 117.912 54.296C117.624 54.488 117.48 54.76 117.48 55.112C117.48 55.3893 117.571 55.6133 117.752 55.784C117.933 55.9547 118.221 56.088 118.616 56.184L119.992 56.52C120.76 56.6907 121.325 56.9627 121.688 57.336C122.061 57.6987 122.248 58.1733 122.248 58.76C122.248 59.4853 121.955 60.0613 121.368 60.488C120.792 60.904 120.003 61.112 119 61.112ZM130.716 52.936L126.956 61.656C126.54 62.6053 126.017 63.2987 125.388 63.736C124.769 64.184 124.001 64.4827 123.084 64.632L122.732 63.384C123.489 63.2133 124.06 62.9893 124.444 62.712C124.838 62.4453 125.153 62.04 125.388 61.496L125.676 60.824L122.284 52.936H123.996L126.524 59.176L129.1 52.936H130.716ZM140.526 52.744C142.318 52.744 143.214 53.8213 143.214 55.976V61H141.598V56.056C141.598 55.3627 141.475 54.856 141.23 54.536C140.995 54.216 140.611 54.056 140.078 54.056C139.459 54.056 138.969 54.2693 138.606 54.696C138.254 55.1227 138.078 55.704 138.078 56.44V61H136.462V56.056C136.462 55.3627 136.339 54.856 136.094 54.536C135.859 54.216 135.475 54.056 134.942 54.056C134.323 54.056 133.833 54.2693 133.47 54.696C133.107 55.1227 132.926 55.704 132.926 56.44V61H131.326V55.208C131.326 54.3653 131.283 53.608 131.198 52.936H132.702L132.846 54.28C133.081 53.7893 133.417 53.4107 133.854 53.144C134.291 52.8773 134.803 52.744 135.39 52.744C136.638 52.744 137.454 53.2613 137.838 54.296C138.083 53.816 138.441 53.4373 138.91 53.16C139.39 52.8827 139.929 52.744 140.526 52.744ZM149.161 52.744C149.854 52.744 150.473 52.92 151.017 53.272C151.561 53.624 151.982 54.12 152.281 54.76C152.59 55.4 152.745 56.136 152.745 56.968C152.745 57.8 152.596 58.5307 152.297 59.16C151.998 59.7787 151.577 60.2587 151.033 60.6C150.489 60.9413 149.865 61.112 149.161 61.112C148.542 61.112 147.998 60.984 147.529 60.728C147.07 60.4613 146.724 60.0827 146.489 59.592V64.456H144.889V55.208C144.889 54.3653 144.846 53.608 144.761 52.936H146.265L146.425 54.424C146.638 53.8907 146.985 53.48 147.465 53.192C147.945 52.8933 148.51 52.744 149.161 52.744ZM148.793 59.832C149.518 59.832 150.084 59.5813 150.489 59.08C150.894 58.5787 151.097 57.8747 151.097 56.968C151.097 56.0507 150.894 55.336 150.489 54.824C150.084 54.3013 149.518 54.04 148.793 54.04C148.046 54.04 147.476 54.2907 147.081 54.792C146.686 55.2933 146.489 56.008 146.489 56.936C146.489 57.864 146.686 58.5787 147.081 59.08C147.486 59.5813 148.057 59.832 148.793 59.832ZM156.064 54.184V58.232C156.064 58.7867 156.181 59.1813 156.416 59.416C156.661 59.64 156.997 59.752 157.424 59.752C157.701 59.752 157.984 59.7093 158.272 59.624V60.936C157.92 61.0533 157.52 61.112 157.072 61.112C156.24 61.112 155.594 60.8773 155.136 60.408C154.677 59.9387 154.448 59.256 154.448 58.36V54.184H152.88V52.936H154.448V50.92L156.064 50.36V52.936H158.288V54.184H156.064ZM162.612 61.112C161.823 61.112 161.13 60.9413 160.532 60.6C159.935 60.2587 159.471 59.7733 159.14 59.144C158.82 58.5147 158.66 57.7787 158.66 56.936C158.66 56.0933 158.82 55.3573 159.14 54.728C159.471 54.088 159.935 53.5973 160.532 53.256C161.13 52.9147 161.823 52.744 162.612 52.744C163.391 52.744 164.079 52.9147 164.676 53.256C165.274 53.5973 165.732 54.088 166.052 54.728C166.383 55.3573 166.548 56.0933 166.548 56.936C166.548 57.7787 166.383 58.5147 166.052 59.144C165.732 59.7733 165.274 60.2587 164.676 60.6C164.079 60.9413 163.391 61.112 162.612 61.112ZM162.596 59.832C163.343 59.832 163.914 59.5867 164.308 59.096C164.703 58.6053 164.9 57.8853 164.9 56.936C164.9 56.008 164.698 55.2933 164.292 54.792C163.898 54.2907 163.338 54.04 162.612 54.04C161.876 54.04 161.306 54.2907 160.9 54.792C160.495 55.2933 160.292 56.008 160.292 56.936C160.292 57.8853 160.49 58.6053 160.884 59.096C161.29 59.5867 161.86 59.832 162.596 59.832ZM176.997 52.744C178.789 52.744 179.685 53.8213 179.685 55.976V61H178.069V56.056C178.069 55.3627 177.946 54.856 177.701 54.536C177.466 54.216 177.082 54.056 176.549 54.056C175.93 54.056 175.44 54.2693 175.077 54.696C174.725 55.1227 174.549 55.704 174.549 56.44V61H172.933V56.056C172.933 55.3627 172.81 54.856 172.565 54.536C172.33 54.216 171.946 54.056 171.413 54.056C170.794 54.056 170.304 54.2693 169.941 54.696C169.578 55.1227 169.397 55.704 169.397 56.44V61H167.797V55.208C167.797 54.3653 167.754 53.608 167.669 52.936H169.173L169.317 54.28C169.552 53.7893 169.888 53.4107 170.325 53.144C170.762 52.8773 171.274 52.744 171.861 52.744C173.109 52.744 173.925 53.2613 174.309 54.296C174.554 53.816 174.912 53.4373 175.381 53.16C175.861 52.8827 176.4 52.744 176.997 52.744ZM192.362 52.936V61H190.762V59.624C190.527 60.104 190.175 60.472 189.706 60.728C189.247 60.984 188.709 61.112 188.09 61.112C187.375 61.112 186.746 60.9413 186.202 60.6C185.669 60.2587 185.253 59.7787 184.954 59.16C184.655 58.5307 184.506 57.8 184.506 56.968C184.506 56.136 184.655 55.4 184.954 54.76C185.263 54.12 185.69 53.624 186.234 53.272C186.778 52.92 187.397 52.744 188.09 52.744C188.709 52.744 189.247 52.8773 189.706 53.144C190.165 53.4 190.517 53.768 190.762 54.248V52.936H192.362ZM188.474 59.832C189.199 59.832 189.759 59.5813 190.154 59.08C190.559 58.568 190.762 57.8533 190.762 56.936C190.762 56.008 190.559 55.2933 190.154 54.792C189.759 54.2907 189.194 54.04 188.458 54.04C187.733 54.04 187.162 54.3013 186.746 54.824C186.341 55.336 186.138 56.0507 186.138 56.968C186.138 57.8747 186.341 58.5787 186.746 59.08C187.162 59.5813 187.738 59.832 188.474 59.832ZM196.912 61.112C195.504 61.112 194.395 60.7707 193.584 60.088L194.064 58.92C194.907 59.56 195.872 59.88 196.96 59.88C197.515 59.88 197.936 59.7893 198.224 59.608C198.512 59.416 198.656 59.1493 198.656 58.808C198.656 58.52 198.555 58.296 198.352 58.136C198.16 57.9653 197.829 57.8213 197.36 57.704L196.016 57.384C195.312 57.2347 194.773 56.9733 194.4 56.6C194.037 56.216 193.856 55.7413 193.856 55.176C193.856 54.4507 194.144 53.864 194.72 53.416C195.307 52.968 196.08 52.744 197.04 52.744C197.616 52.744 198.16 52.8347 198.672 53.016C199.195 53.1973 199.637 53.4533 200 53.784L199.504 54.92C198.725 54.3013 197.904 53.992 197.04 53.992C196.517 53.992 196.112 54.0933 195.824 54.296C195.536 54.488 195.392 54.76 195.392 55.112C195.392 55.3893 195.483 55.6133 195.664 55.784C195.845 55.9547 196.133 56.088 196.528 56.184L197.904 56.52C198.672 56.6907 199.237 56.9627 199.6 57.336C199.973 57.6987 200.16 58.1733 200.16 58.76C200.16 59.4853 199.867 60.0613 199.28 60.488C198.704 60.904 197.915 61.112 196.912 61.112ZM204.241 61.112C202.833 61.112 201.723 60.7707 200.913 60.088L201.393 58.92C202.235 59.56 203.201 59.88 204.289 59.88C204.843 59.88 205.265 59.7893 205.553 59.608C205.841 59.416 205.985 59.1493 205.985 58.808C205.985 58.52 205.883 58.296 205.681 58.136C205.489 57.9653 205.158 57.8213 204.689 57.704L203.345 57.384C202.641 57.2347 202.102 56.9733 201.729 56.6C201.366 56.216 201.185 55.7413 201.185 55.176C201.185 54.4507 201.473 53.864 202.049 53.416C202.635 52.968 203.409 52.744 204.369 52.744C204.945 52.744 205.489 52.8347 206.001 53.016C206.523 53.1973 206.966 53.4533 207.329 53.784L206.833 54.92C206.054 54.3013 205.233 53.992 204.369 53.992C203.846 53.992 203.441 54.0933 203.153 54.296C202.865 54.488 202.721 54.76 202.721 55.112C202.721 55.3893 202.811 55.6133 202.993 55.784C203.174 55.9547 203.462 56.088 203.857 56.184L205.233 56.52C206.001 56.6907 206.566 56.9627 206.929 57.336C207.302 57.6987 207.489 58.1733 207.489 58.76C207.489 59.4853 207.195 60.0613 206.609 60.488C206.033 60.904 205.243 61.112 204.241 61.112ZM215.633 57H209.873C209.927 58.888 210.785 59.832 212.449 59.832C213.377 59.832 214.225 59.528 214.993 58.92L215.489 60.072C215.127 60.392 214.663 60.648 214.097 60.84C213.543 61.0213 212.983 61.112 212.417 61.112C211.127 61.112 210.113 60.744 209.377 60.008C208.641 59.2613 208.273 58.2427 208.273 56.952C208.273 56.1307 208.433 55.4 208.753 54.76C209.084 54.12 209.543 53.624 210.129 53.272C210.716 52.92 211.383 52.744 212.129 52.744C213.217 52.744 214.071 53.096 214.689 53.8C215.319 54.504 215.633 55.48 215.633 56.728V57ZM212.161 53.944C211.553 53.944 211.057 54.1253 210.673 54.488C210.289 54.8507 210.044 55.368 209.937 56.04H214.209C214.145 55.3573 213.937 54.84 213.585 54.488C213.233 54.1253 212.759 53.944 212.161 53.944ZM219.664 61.112C218.256 61.112 217.146 60.7707 216.336 60.088L216.816 58.92C217.658 59.56 218.624 59.88 219.712 59.88C220.266 59.88 220.688 59.7893 220.976 59.608C221.264 59.416 221.408 59.1493 221.408 58.808C221.408 58.52 221.306 58.296 221.104 58.136C220.912 57.9653 220.581 57.8213 220.112 57.704L218.768 57.384C218.064 57.2347 217.525 56.9733 217.152 56.6C216.789 56.216 216.608 55.7413 216.608 55.176C216.608 54.4507 216.896 53.864 217.472 53.416C218.058 52.968 218.832 52.744 219.792 52.744C220.368 52.744 220.912 52.8347 221.424 53.016C221.946 53.1973 222.389 53.4533 222.752 53.784L222.256 54.92C221.477 54.3013 220.656 53.992 219.792 53.992C219.269 53.992 218.864 54.0933 218.576 54.296C218.288 54.488 218.144 54.76 218.144 55.112C218.144 55.3893 218.234 55.6133 218.416 55.784C218.597 55.9547 218.885 56.088 219.28 56.184L220.656 56.52C221.424 56.6907 221.989 56.9627 222.352 57.336C222.725 57.6987 222.912 58.1733 222.912 58.76C222.912 59.4853 222.618 60.0613 222.032 60.488C221.456 60.904 220.666 61.112 219.664 61.112ZM226.993 61.112C225.585 61.112 224.475 60.7707 223.665 60.088L224.145 58.92C224.987 59.56 225.953 59.88 227.041 59.88C227.595 59.88 228.017 59.7893 228.305 59.608C228.593 59.416 228.737 59.1493 228.737 58.808C228.737 58.52 228.635 58.296 228.433 58.136C228.241 57.9653 227.91 57.8213 227.441 57.704L226.097 57.384C225.393 57.2347 224.854 56.9733 224.481 56.6C224.118 56.216 223.937 55.7413 223.937 55.176C223.937 54.4507 224.225 53.864 224.801 53.416C225.387 52.968 226.161 52.744 227.121 52.744C227.697 52.744 228.241 52.8347 228.753 53.016C229.275 53.1973 229.718 53.4533 230.081 53.784L229.585 54.92C228.806 54.3013 227.985 53.992 227.121 53.992C226.598 53.992 226.193 54.0933 225.905 54.296C225.617 54.488 225.473 54.76 225.473 55.112C225.473 55.3893 225.563 55.6133 225.745 55.784C225.926 55.9547 226.214 56.088 226.609 56.184L227.985 56.52C228.753 56.6907 229.318 56.9627 229.681 57.336C230.054 57.6987 230.241 58.1733 230.241 58.76C230.241 59.4853 229.947 60.0613 229.361 60.488C228.785 60.904 227.995 61.112 226.993 61.112ZM240.705 52.744C242.497 52.744 243.393 53.8213 243.393 55.976V61H241.777V56.056C241.777 55.3627 241.655 54.856 241.409 54.536C241.175 54.216 240.791 54.056 240.257 54.056C239.639 54.056 239.148 54.2693 238.785 54.696C238.433 55.1227 238.257 55.704 238.257 56.44V61H236.641V56.056C236.641 55.3627 236.519 54.856 236.273 54.536C236.039 54.216 235.655 54.056 235.121 54.056C234.503 54.056 234.012 54.2693 233.649 54.696C233.287 55.1227 233.105 55.704 233.105 56.44V61H231.505V55.208C231.505 54.3653 231.463 53.608 231.377 52.936H232.881L233.025 54.28C233.26 53.7893 233.596 53.4107 234.033 53.144C234.471 52.8773 234.983 52.744 235.569 52.744C236.817 52.744 237.633 53.2613 238.017 54.296C238.263 53.816 238.62 53.4373 239.089 53.16C239.569 52.8827 240.108 52.744 240.705 52.744ZM251.948 57H246.188C246.242 58.888 247.1 59.832 248.764 59.832C249.692 59.832 250.54 59.528 251.308 58.92L251.804 60.072C251.442 60.392 250.978 60.648 250.412 60.84C249.858 61.0213 249.298 61.112 248.732 61.112C247.442 61.112 246.428 60.744 245.692 60.008C244.956 59.2613 244.588 58.2427 244.588 56.952C244.588 56.1307 244.748 55.4 245.068 54.76C245.399 54.12 245.858 53.624 246.444 53.272C247.031 52.92 247.698 52.744 248.444 52.744C249.532 52.744 250.386 53.096 251.004 53.8C251.634 54.504 251.948 55.48 251.948 56.728V57ZM248.476 53.944C247.868 53.944 247.372 54.1253 246.988 54.488C246.604 54.8507 246.359 55.368 246.252 56.04H250.524C250.46 55.3573 250.252 54.84 249.9 54.488C249.548 54.1253 249.074 53.944 248.476 53.944ZM257.451 52.744C259.381 52.744 260.347 53.8213 260.347 55.976V61H258.731V56.072C258.731 55.368 258.592 54.856 258.315 54.536C258.048 54.216 257.616 54.056 257.019 54.056C256.336 54.056 255.787 54.2693 255.371 54.696C254.965 55.1227 254.763 55.6933 254.763 56.408V61H253.163V55.208C253.163 54.3653 253.12 53.608 253.035 52.936H254.539L254.683 54.328C254.939 53.816 255.307 53.4267 255.787 53.16C256.277 52.8827 256.832 52.744 257.451 52.744ZM264.103 54.184V58.232C264.103 58.7867 264.22 59.1813 264.455 59.416C264.7 59.64 265.036 59.752 265.463 59.752C265.74 59.752 266.023 59.7093 266.311 59.624V60.936C265.959 61.0533 265.559 61.112 265.111 61.112C264.279 61.112 263.634 60.8773 263.175 60.408C262.716 59.9387 262.487 59.256 262.487 58.36V54.184H260.919V52.936H262.487V50.92L264.103 50.36V52.936H266.327V54.184H264.103Z" fill="white"/>
<path d="M89.25 72.1875H98.625V59.6875C98.625 56.3723 97.308 53.1929 94.9638 50.8487C92.6196 48.5045 89.4402 47.1875 86.125 47.1875H29.875C26.5598 47.1875 23.3804 48.5045 21.0362 50.8487C18.692 53.1929 17.375 56.3723 17.375 59.6875V72.1875H26.75V101.875H89.25V72.1875Z" fill="#F14336"/>
<path d="M47.0625 45.625H68.9375V51.875C68.9375 54.7758 67.7852 57.5578 65.734 59.609C63.6828 61.6602 60.9008 62.8125 58 62.8125H58C56.5637 62.8125 55.1414 62.5296 53.8144 61.9799C52.4874 61.4303 51.2817 60.6246 50.266 59.609C49.2504 58.5934 48.4447 57.3876 47.8951 56.0606C47.3454 54.7336 47.0625 53.3114 47.0625 51.875V45.625Z" fill="#FFB089"/>
<path d="M72.0625 22.1875V39.375C72.0626 42.1563 71.2379 44.8752 69.6927 47.1878C68.1476 49.5004 65.9513 51.3028 63.3817 52.3671C60.8121 53.4315 57.9846 53.7099 55.2567 53.1672C52.5289 52.6245 50.0232 51.2851 48.0567 49.3183C47.7055 48.9681 47.3736 48.5991 47.0625 48.2129C45.0359 45.7138 43.9323 42.5926 43.9375 39.375V22.1875L50.1875 17.5H65.8125L72.0625 22.1875Z" fill="#FFCEB6"/>
<path d="M51.75 34.6875C52.6129 34.6875 53.3125 33.9879 53.3125 33.125C53.3125 32.2621 52.6129 31.5625 51.75 31.5625C50.8871 31.5625 50.1875 32.2621 50.1875 33.125C50.1875 33.9879 50.8871 34.6875 51.75 34.6875Z" fill="#91591C"/>
<path d="M64.25 34.6875C65.1129 34.6875 65.8125 33.9879 65.8125 33.125C65.8125 32.2621 65.1129 31.5625 64.25 31.5625C63.3871 31.5625 62.6875 32.2621 62.6875 33.125C62.6875 33.9879 63.3871 34.6875 64.25 34.6875Z" fill="#91591C"/>
<path d="M72.0625 20.6406V30L65.8125 25.3125V20.625H50.1875V25.3125L43.9375 30V20.625C43.9377 18.9675 44.5963 17.3779 45.7683 16.2058C46.9404 15.0338 48.53 14.3752 50.1875 14.375H53.3125C53.3128 13.1319 53.8068 11.9398 54.6858 11.0608C55.5648 10.1818 56.7569 9.68782 58 9.6875H61.1094C64.0143 9.68763 66.8002 10.8417 68.8543 12.8957C70.9083 14.9498 72.0624 17.7357 72.0625 20.6406Z" fill="#B1712C"/>
<path d="M53.3125 14.375V20.625H50.1875V25.3125L43.9375 30V20.625C43.9377 18.9675 44.5963 17.3779 45.7683 16.2058C46.9404 15.0338 48.53 14.3752 50.1875 14.375H53.3125Z" fill="#A36522"/>
<path d="M56.4375 34.6875C53.9519 34.6901 51.5689 35.6787 49.8113 37.4363C48.0537 39.1939 47.0651 41.5769 47.0625 44.0625V48.2129C47.3736 48.5991 47.7055 48.9681 48.0566 49.3183C50.357 51.6188 53.3839 53.0506 56.6215 53.3697C59.8591 53.6888 63.1073 52.8755 65.8125 51.0684V44.0625C65.8099 41.5769 64.8213 39.1939 63.0637 37.4363C61.3061 35.6787 58.9231 34.6901 56.4375 34.6875Z" fill="#FFBFA1"/>
<path d="M98.625 72.1876V86.6016C98.625 88.1049 98.2494 89.5845 97.5323 90.9057C96.8152 92.227 95.7794 93.3482 94.5189 94.1675C93.2584 94.9867 91.8132 95.4781 90.3146 95.5969C88.8159 95.7157 87.3114 95.4582 85.9375 94.8477L61.4824 83.9786C59.6726 83.1731 58.2218 81.7307 57.4059 79.9256C56.5899 78.1204 56.4656 76.0784 57.0567 74.1876C57.2162 73.6759 57.4275 73.1817 57.6875 72.713C57.7949 72.5118 57.9141 72.3165 58.043 72.1231L59.3965 70.0938L59.4727 69.9786C59.9183 69.3109 60.6038 68.8402 61.3871 68.6643C62.1703 68.4883 62.9912 68.6204 63.6797 69.0333L68.9375 72.1876V67.1993C68.9377 66.5487 69.1625 65.9181 69.5738 65.414C69.9852 64.9099 70.5579 64.5633 71.1953 64.4327C71.8326 64.302 72.4956 64.3954 73.0721 64.697C73.6485 64.9986 74.1033 65.4899 74.3594 66.088L78.3125 75.3126L83 77.6563V72.1876H98.625Z" fill="#FFCEB6"/>
<path d="M85.0484 76.9756C84.2769 76.5899 83.3388 76.9026 82.9531 77.674C82.5673 78.4455 82.88 79.3836 83.6515 79.7694L85.5431 80.7151C86.3145 81.1009 87.2526 80.7882 87.6384 80.0167C88.0241 79.2452 87.7114 78.3071 86.9399 77.9214L85.0484 76.9756Z" fill="#FFBFA1"/>
<path d="M38.5515 34.5225L32.3015 31.3975C32.1033 31.2984 31.9285 31.1584 31.7886 30.9866C31.6487 30.8148 31.5469 30.6152 31.4901 30.401C31.4332 30.1869 31.4225 29.9631 31.4588 29.7446C31.495 29.526 31.5773 29.3176 31.7002 29.1333L33.9584 25.7458L30.571 23.4875L32.3044 20.8875L36.9919 24.0125C37.1627 24.1263 37.3093 24.2726 37.4235 24.4431C37.5377 24.6136 37.6172 24.8049 37.6574 25.0061C37.6976 25.2073 37.6979 25.4144 37.658 25.6157C37.6182 25.817 37.5391 26.0085 37.4253 26.1792L35.2821 29.394L39.949 31.7275L38.5515 34.5225Z" fill="#02C26A"/>
<path d="M34.5629 40.9375H28.3129C27.8985 40.9375 27.5011 40.7728 27.2081 40.4798C26.9151 40.1868 26.7505 39.7894 26.7504 39.375V35.8136L23.1313 34.6074L24.1195 31.6426L28.807 33.2051C29.1182 33.3088 29.3888 33.5078 29.5805 33.7738C29.7723 34.0399 29.8754 34.3595 29.8754 34.6875V37.8125H34.5629V40.9375Z" fill="#02C26A"/>
<path d="M77.4493 34.5225L76.0518 31.7275L80.7187 29.394L78.5755 26.1792C78.4616 26.0085 78.3825 25.817 78.3427 25.6157C78.3029 25.4144 78.3031 25.2073 78.3434 25.0061C78.3836 24.8049 78.4631 24.6136 78.5773 24.4431C78.6914 24.2726 78.8381 24.1263 79.0088 24.0125L83.6963 20.8875L85.4297 23.4875L82.0424 25.7458L84.3006 29.1333C84.4235 29.3176 84.5058 29.526 84.542 29.7446C84.5782 29.9631 84.5675 30.1869 84.5107 30.401C84.4538 30.6152 84.3521 30.8148 84.2122 30.9866C84.0723 31.1584 83.8974 31.2984 83.6993 31.3975L77.4493 34.5225Z" fill="#02C26A"/>
<path d="M87.688 40.9375H81.438V37.8125H86.1255V34.6875C86.1255 34.3595 86.2287 34.0399 86.4204 33.7738C86.6122 33.5078 86.8828 33.3088 87.1939 33.2051L91.8814 31.6426L92.8696 34.6074L89.2505 35.8136V39.375C89.2505 39.7894 89.0859 40.1868 88.7928 40.4798C88.4998 40.7728 88.1024 40.9375 87.688 40.9375Z" fill="#02C26A"/>
<path d="M64.3155 74.8671C64.2099 75.0431 64.0708 75.1965 63.9059 75.3187C63.7411 75.4409 63.5537 75.5294 63.3547 75.5791C63.1556 75.6289 62.9487 75.639 62.7457 75.6088C62.5428 75.5786 62.3477 75.5088 62.1718 75.4032L57.6875 72.7129C57.7949 72.5118 57.9141 72.3165 58.043 72.1231L59.3965 70.0938L63.7795 72.7236C64.1348 72.9367 64.3909 73.2823 64.4914 73.6843C64.5919 74.0863 64.5286 74.5118 64.3155 74.8671Z" fill="#FFBFA1"/>
<path d="M62.1912 79.0903L62.1908 79.0909C61.9775 79.446 61.6319 79.7019 61.23 79.8023C60.828 79.9027 60.4027 79.8394 60.0475 79.6262L56.7578 77.6524C56.6028 76.4895 56.7048 75.3068 57.0566 74.1876L61.6554 76.9459C61.8314 77.0515 61.9849 77.1907 62.1071 77.3557C62.2293 77.5206 62.3178 77.708 62.3676 77.9071C62.4173 78.1062 62.4274 78.3132 62.3971 78.5163C62.3668 78.7193 62.2968 78.9143 62.1912 79.0903Z" fill="#FFBFA1"/>
<path d="M33.4596 72.1875L50.1875 51.875V44.0625C50.1875 42.4049 50.846 40.8152 52.0181 39.6431C53.1902 38.471 54.7799 37.8125 56.4375 37.8125H56.4375C58.0951 37.8125 59.6848 38.471 60.8569 39.6431C62.029 40.8152 62.6875 42.4049 62.6875 44.0625V52.0866C62.6875 54.9986 61.7835 57.8387 60.1003 60.215L39.8191 88.8472C38.6773 90.4593 37.1656 91.7741 35.4109 92.6815C33.6561 93.5889 31.7094 94.0625 29.7339 94.0625H29.7339C26.4561 94.0625 23.3126 92.7604 20.9948 90.4427C18.6771 88.1249 17.375 84.9814 17.375 81.7036V72.1875H33.4596Z" fill="#FFCEB6"/>
<path d="M58 51.875C56.7572 51.8736 55.5658 51.3793 54.687 50.5005C53.8082 49.6217 53.3139 48.4303 53.3125 47.1875V45.625H56.4375V47.1875C56.4375 47.6019 56.6021 47.9993 56.8951 48.2924C57.1882 48.5854 57.5856 48.75 58 48.75C58.4144 48.75 58.8118 48.5854 59.1049 48.2924C59.3979 47.9993 59.5625 47.6019 59.5625 47.1875V44.0625H62.6875V47.1875C62.6861 48.4303 62.1918 49.6217 61.313 50.5005C60.4342 51.3793 59.2428 51.8736 58 51.875Z" fill="#FFBFA1"/>
<path d="M28.1114 76.2542L31.2734 72.4161C31.4039 72.2577 31.5643 72.1266 31.7455 72.0302C31.9267 71.9338 32.1251 71.874 32.3294 71.8542C32.5336 71.8345 32.7398 71.8552 32.9361 71.9152C33.1324 71.9751 33.315 72.0731 33.4734 72.2036C33.7933 72.4672 33.9954 72.847 34.0353 73.2596C34.0751 73.6722 33.9494 74.0837 33.6859 74.4036L30.524 78.2417C30.3934 78.4001 30.233 78.5313 30.0518 78.6277C29.8706 78.7241 29.6722 78.7839 29.468 78.8036C29.2637 78.8233 29.0575 78.8026 28.8612 78.7427C28.6649 78.6827 28.4823 78.5847 28.3239 78.4542C28.1655 78.3237 28.0344 78.1633 27.938 77.9821C27.8416 77.8009 27.7818 77.6025 27.762 77.3982C27.7423 77.1939 27.763 76.9877 27.823 76.7915C27.8829 76.5952 27.9809 76.4126 28.1114 76.2542Z" fill="#FFBFA1"/>
</svg>
